G04 #@! TF.GenerationSoftware,KiCad,Pcbnew,(5.1.10)-1*
G04 #@! TF.CreationDate,2021-11-22T20:28:52+00:00*
G04 #@! TF.ProjectId,Big Ben Ornament,42696720-4265-46e2-904f-726e616d656e,rev?*
G04 #@! TF.SameCoordinates,Original*
G04 #@! TF.FileFunction,Copper,L3,Inr*
G04 #@! TF.FilePolarity,Positive*
%FSLAX46Y46*%
G04 Gerber Fmt 4.6, Leading zero omitted, Abs format (unit mm)*
G04 Created by KiCad (PCBNEW (5.1.10)-1) date 2021-11-22 20:28:52*
%MOMM*%
%LPD*%
G01*
G04 APERTURE LIST*
G04 #@! TA.AperFunction,ViaPad*
%ADD10C,0.800000*%
G04 #@! TD*
G04 #@! TA.AperFunction,ViaPad*
%ADD11C,1.600000*%
G04 #@! TD*
G04 #@! TA.AperFunction,Conductor*
%ADD12C,0.250000*%
G04 #@! TD*
G04 #@! TA.AperFunction,Conductor*
%ADD13C,0.500000*%
G04 #@! TD*
G04 APERTURE END LIST*
D10*
X92519500Y-125793500D03*
X114871500Y-125730000D03*
X109918500Y-148717000D03*
X110426500Y-169926000D03*
D11*
X103695500Y-66929000D03*
D10*
X103568500Y-161480500D03*
X104330500Y-149606000D03*
X104140000Y-152336500D03*
X106426000Y-155829000D03*
X100584000Y-155829000D03*
X94551500Y-150177500D03*
X105791000Y-129921000D03*
D11*
X97091500Y-166687500D03*
X100139500Y-140843000D03*
D10*
X95620840Y-66266060D03*
X111495840Y-66266060D03*
X115125500Y-134175500D03*
X94742000Y-123698000D03*
X96583500Y-123698000D03*
X105854500Y-132842000D03*
X104521000Y-145669000D03*
X94551500Y-143891000D03*
X98869500Y-123698000D03*
X104775000Y-127254000D03*
X94635500Y-141602500D03*
X103489000Y-166259000D03*
X108870900Y-149510600D03*
X101155500Y-123698000D03*
X114173000Y-158877000D03*
X92435500Y-141602500D03*
X103441500Y-123698000D03*
X105727500Y-123698000D03*
X103251000Y-131000500D03*
X108013500Y-123698000D03*
X110299500Y-123698000D03*
X91122500Y-132715000D03*
X108775500Y-129794000D03*
X112585500Y-123698000D03*
X114871500Y-123698000D03*
X113855500Y-148336000D03*
X103759000Y-127317500D03*
X115375000Y-151325000D03*
X115529600Y-167360600D03*
X104267000Y-129857500D03*
X113125000Y-151098000D03*
X113919000Y-150431500D03*
X113157000Y-145605500D03*
X115529600Y-169900600D03*
X103251000Y-129766060D03*
X112325000Y-150438000D03*
X102743000Y-127317500D03*
X111525000Y-151111000D03*
X109029500Y-151130000D03*
X102933500Y-133667500D03*
X98163000Y-133993000D03*
X112649000Y-131953000D03*
X112649000Y-134112000D03*
X109918500Y-146494500D03*
X107061000Y-144081500D03*
X103489000Y-168259000D03*
X108712000Y-145542000D03*
X104965500Y-168259000D03*
D12*
X107961020Y-154293980D02*
X106426000Y-155829000D01*
X107961020Y-151125478D02*
X107961020Y-154293980D01*
X108681499Y-150404999D02*
X107961020Y-151125478D01*
X109377501Y-150404999D02*
X108681499Y-150404999D01*
X109918500Y-149864000D02*
X109377501Y-150404999D01*
X109918500Y-148717000D02*
X109918500Y-149864000D01*
X101763999Y-126592499D02*
X98869500Y-123698000D01*
X104113499Y-126592499D02*
X101763999Y-126592499D01*
X104775000Y-127254000D02*
X104113499Y-126592499D01*
D13*
X98869500Y-127877002D02*
X98869500Y-123698000D01*
X103834498Y-132842000D02*
X98869500Y-127877002D01*
X105854500Y-132842000D02*
X103834498Y-132842000D01*
X99013001Y-137224999D02*
X94635500Y-141602500D01*
X99013001Y-133584999D02*
X99013001Y-137224999D01*
X98869500Y-133441498D02*
X99013001Y-133584999D01*
X98869500Y-127877002D02*
X98869500Y-133441498D01*
D12*
X115529600Y-151479600D02*
X115375000Y-151325000D01*
X115188499Y-151511501D02*
X115375000Y-151325000D01*
X115188499Y-167019499D02*
X115188499Y-151511501D01*
X115529600Y-167360600D02*
X115188499Y-167019499D01*
X115375000Y-138431998D02*
X115375000Y-139042720D01*
X106139001Y-129195999D02*
X115375000Y-138431998D01*
X105637499Y-129195999D02*
X106139001Y-129195999D01*
X103759000Y-127317500D02*
X105637499Y-129195999D01*
X115375000Y-139042720D02*
X115375000Y-138933500D01*
X115375000Y-151325000D02*
X115375000Y-139042720D01*
X110643501Y-148118999D02*
X113157000Y-145605500D01*
X115529600Y-169900600D02*
X110643501Y-165014501D01*
X110643501Y-165014501D02*
X110643501Y-148118999D01*
X102743000Y-127374502D02*
X102743000Y-127317500D01*
X103410999Y-128042501D02*
X102743000Y-127374502D01*
X103785501Y-128042501D02*
X103410999Y-128042501D01*
X104992001Y-129249001D02*
X103785501Y-128042501D01*
X104992001Y-130205501D02*
X104992001Y-129249001D01*
X114173000Y-139386500D02*
X104992001Y-130205501D01*
X111525000Y-148310502D02*
X114173000Y-145662502D01*
X114173000Y-145662502D02*
X114173000Y-139386500D01*
X111525000Y-151111000D02*
X111525000Y-148310502D01*
X102763999Y-154785503D02*
X102763999Y-167533999D01*
X102763999Y-167533999D02*
X103489000Y-168259000D01*
X107061000Y-150488502D02*
X102763999Y-154785503D01*
X107061000Y-144081500D02*
X107061000Y-150488502D01*
X104965500Y-153987500D02*
X104965500Y-168259000D01*
X107511010Y-151441990D02*
X104965500Y-153987500D01*
X107511010Y-146742990D02*
X107511010Y-151441990D01*
X108712000Y-145542000D02*
X107511010Y-146742990D01*
M02*
