M48
INCH,TZ
T1C0.0157
T2C0.0315
%
G90
G05
T1
X35875Y-52250
X36392Y-55749
X36425Y-49525
X37225Y-56650
X37225Y-59125
X37258Y-55749
X37300Y-48700
X37646Y-26089
X38025Y-48700
X38647Y-52753
X38925Y-48700
X39600Y-61350
X39825Y-48700
X40450Y-50125
X40525Y-52625
X40650Y-51089
X40650Y-51575
X40725Y-48700
X40744Y-65456
X40744Y-66244
X40775Y-63575
X40850Y-50125
X41000Y-59975
X41050Y-51125
X41075Y-58900
X41150Y-57350
X41250Y-50100
X41325Y-66244
X41625Y-48700
X41650Y-51150
X41675Y-52300
X41900Y-61350
X42150Y-56725
X42525Y-48700
X42800Y-57300
X42825Y-51100
X42863Y-58862
X42925Y-59500
X43275Y-57675
X43275Y-58550
X43425Y-48700
X43475Y-66900
X43896Y-26089
X43907Y-59493
X44222Y-59228
X44325Y-48700
X44350Y-51950
X44350Y-52800
X44537Y-59487
X44550Y-57325
X44825Y-58400
X44850Y-59225
X44950Y-62550
X45225Y-48700
X45225Y-49500
X45325Y-52825
X45423Y-59577
X45484Y-65890
X45484Y-66890
T2
X38225Y-65625
X39425Y-55450
X40825Y-26350
T0
M30
