G04 #@! TF.GenerationSoftware,KiCad,Pcbnew,(5.1.10)-1*
G04 #@! TF.CreationDate,2021-11-22T20:28:52+00:00*
G04 #@! TF.ProjectId,Big Ben Ornament,42696720-4265-46e2-904f-726e616d656e,rev?*
G04 #@! TF.SameCoordinates,Original*
G04 #@! TF.FileFunction,Copper,L4,Bot*
G04 #@! TF.FilePolarity,Positive*
%FSLAX46Y46*%
G04 Gerber Fmt 4.6, Leading zero omitted, Abs format (unit mm)*
G04 Created by KiCad (PCBNEW (5.1.10)-1) date 2021-11-22 20:28:52*
%MOMM*%
%LPD*%
G01*
G04 APERTURE LIST*
G04 #@! TA.AperFunction,SMDPad,CuDef*
%ADD10C,0.100000*%
G04 #@! TD*
G04 #@! TA.AperFunction,SMDPad,CuDef*
%ADD11R,1.000000X1.500000*%
G04 #@! TD*
G04 #@! TA.AperFunction,SMDPad,CuDef*
%ADD12R,0.800000X1.000000*%
G04 #@! TD*
G04 #@! TA.AperFunction,SMDPad,CuDef*
%ADD13R,1.500000X0.700000*%
G04 #@! TD*
G04 #@! TA.AperFunction,SMDPad,CuDef*
%ADD14R,0.300000X1.100000*%
G04 #@! TD*
G04 #@! TA.AperFunction,SMDPad,CuDef*
%ADD15R,2.300000X3.100000*%
G04 #@! TD*
G04 #@! TA.AperFunction,SMDPad,CuDef*
%ADD16R,3.150000X1.000000*%
G04 #@! TD*
G04 #@! TA.AperFunction,SMDPad,CuDef*
%ADD17R,0.900000X1.200000*%
G04 #@! TD*
G04 #@! TA.AperFunction,SMDPad,CuDef*
%ADD18C,10.200000*%
G04 #@! TD*
G04 #@! TA.AperFunction,SMDPad,CuDef*
%ADD19R,3.500000X3.300000*%
G04 #@! TD*
G04 #@! TA.AperFunction,SMDPad,CuDef*
%ADD20R,5.100000X5.100000*%
G04 #@! TD*
G04 #@! TA.AperFunction,SMDPad,CuDef*
%ADD21C,17.800000*%
G04 #@! TD*
G04 #@! TA.AperFunction,ViaPad*
%ADD22C,0.800000*%
G04 #@! TD*
G04 #@! TA.AperFunction,ViaPad*
%ADD23C,1.600000*%
G04 #@! TD*
G04 #@! TA.AperFunction,Conductor*
%ADD24C,0.250000*%
G04 #@! TD*
G04 #@! TA.AperFunction,Conductor*
%ADD25C,0.500000*%
G04 #@! TD*
G04 #@! TA.AperFunction,Conductor*
%ADD26C,0.254000*%
G04 #@! TD*
G04 #@! TA.AperFunction,Conductor*
%ADD27C,0.100000*%
G04 #@! TD*
G04 APERTURE END LIST*
G04 #@! TA.AperFunction,SMDPad,CuDef*
D10*
G36*
X91134500Y-122289000D02*
G01*
X90584500Y-122289000D01*
X90584500Y-122288398D01*
X90559966Y-122288398D01*
X90511135Y-122283588D01*
X90463010Y-122274016D01*
X90416055Y-122259772D01*
X90370722Y-122240995D01*
X90327449Y-122217864D01*
X90286650Y-122190604D01*
X90248721Y-122159476D01*
X90214024Y-122124779D01*
X90182896Y-122086850D01*
X90155636Y-122046051D01*
X90132505Y-122002778D01*
X90113728Y-121957445D01*
X90099484Y-121910490D01*
X90089912Y-121862365D01*
X90085102Y-121813534D01*
X90085102Y-121789000D01*
X90084500Y-121789000D01*
X90084500Y-121289000D01*
X90085102Y-121289000D01*
X90085102Y-121264466D01*
X90089912Y-121215635D01*
X90099484Y-121167510D01*
X90113728Y-121120555D01*
X90132505Y-121075222D01*
X90155636Y-121031949D01*
X90182896Y-120991150D01*
X90214024Y-120953221D01*
X90248721Y-120918524D01*
X90286650Y-120887396D01*
X90327449Y-120860136D01*
X90370722Y-120837005D01*
X90416055Y-120818228D01*
X90463010Y-120803984D01*
X90511135Y-120794412D01*
X90559966Y-120789602D01*
X90584500Y-120789602D01*
X90584500Y-120789000D01*
X91134500Y-120789000D01*
X91134500Y-122289000D01*
G37*
G04 #@! TD.AperFunction*
G04 #@! TA.AperFunction,SMDPad,CuDef*
G36*
X93184500Y-120789602D02*
G01*
X93209034Y-120789602D01*
X93257865Y-120794412D01*
X93305990Y-120803984D01*
X93352945Y-120818228D01*
X93398278Y-120837005D01*
X93441551Y-120860136D01*
X93482350Y-120887396D01*
X93520279Y-120918524D01*
X93554976Y-120953221D01*
X93586104Y-120991150D01*
X93613364Y-121031949D01*
X93636495Y-121075222D01*
X93655272Y-121120555D01*
X93669516Y-121167510D01*
X93679088Y-121215635D01*
X93683898Y-121264466D01*
X93683898Y-121289000D01*
X93684500Y-121289000D01*
X93684500Y-121789000D01*
X93683898Y-121789000D01*
X93683898Y-121813534D01*
X93679088Y-121862365D01*
X93669516Y-121910490D01*
X93655272Y-121957445D01*
X93636495Y-122002778D01*
X93613364Y-122046051D01*
X93586104Y-122086850D01*
X93554976Y-122124779D01*
X93520279Y-122159476D01*
X93482350Y-122190604D01*
X93441551Y-122217864D01*
X93398278Y-122240995D01*
X93352945Y-122259772D01*
X93305990Y-122274016D01*
X93257865Y-122283588D01*
X93209034Y-122288398D01*
X93184500Y-122288398D01*
X93184500Y-122289000D01*
X92634500Y-122289000D01*
X92634500Y-120789000D01*
X93184500Y-120789000D01*
X93184500Y-120789602D01*
G37*
G04 #@! TD.AperFunction*
D11*
X91884500Y-121539000D03*
X115189000Y-121539000D03*
G04 #@! TA.AperFunction,SMDPad,CuDef*
D10*
G36*
X116489000Y-120789602D02*
G01*
X116513534Y-120789602D01*
X116562365Y-120794412D01*
X116610490Y-120803984D01*
X116657445Y-120818228D01*
X116702778Y-120837005D01*
X116746051Y-120860136D01*
X116786850Y-120887396D01*
X116824779Y-120918524D01*
X116859476Y-120953221D01*
X116890604Y-120991150D01*
X116917864Y-121031949D01*
X116940995Y-121075222D01*
X116959772Y-121120555D01*
X116974016Y-121167510D01*
X116983588Y-121215635D01*
X116988398Y-121264466D01*
X116988398Y-121289000D01*
X116989000Y-121289000D01*
X116989000Y-121789000D01*
X116988398Y-121789000D01*
X116988398Y-121813534D01*
X116983588Y-121862365D01*
X116974016Y-121910490D01*
X116959772Y-121957445D01*
X116940995Y-122002778D01*
X116917864Y-122046051D01*
X116890604Y-122086850D01*
X116859476Y-122124779D01*
X116824779Y-122159476D01*
X116786850Y-122190604D01*
X116746051Y-122217864D01*
X116702778Y-122240995D01*
X116657445Y-122259772D01*
X116610490Y-122274016D01*
X116562365Y-122283588D01*
X116513534Y-122288398D01*
X116489000Y-122288398D01*
X116489000Y-122289000D01*
X115939000Y-122289000D01*
X115939000Y-120789000D01*
X116489000Y-120789000D01*
X116489000Y-120789602D01*
G37*
G04 #@! TD.AperFunction*
G04 #@! TA.AperFunction,SMDPad,CuDef*
G36*
X114439000Y-122289000D02*
G01*
X113889000Y-122289000D01*
X113889000Y-122288398D01*
X113864466Y-122288398D01*
X113815635Y-122283588D01*
X113767510Y-122274016D01*
X113720555Y-122259772D01*
X113675222Y-122240995D01*
X113631949Y-122217864D01*
X113591150Y-122190604D01*
X113553221Y-122159476D01*
X113518524Y-122124779D01*
X113487396Y-122086850D01*
X113460136Y-122046051D01*
X113437005Y-122002778D01*
X113418228Y-121957445D01*
X113403984Y-121910490D01*
X113394412Y-121862365D01*
X113389602Y-121813534D01*
X113389602Y-121789000D01*
X113389000Y-121789000D01*
X113389000Y-121289000D01*
X113389602Y-121289000D01*
X113389602Y-121264466D01*
X113394412Y-121215635D01*
X113403984Y-121167510D01*
X113418228Y-121120555D01*
X113437005Y-121075222D01*
X113460136Y-121031949D01*
X113487396Y-120991150D01*
X113518524Y-120953221D01*
X113553221Y-120918524D01*
X113591150Y-120887396D01*
X113631949Y-120860136D01*
X113675222Y-120837005D01*
X113720555Y-120818228D01*
X113767510Y-120803984D01*
X113815635Y-120794412D01*
X113864466Y-120789602D01*
X113889000Y-120789602D01*
X113889000Y-120789000D01*
X114439000Y-120789000D01*
X114439000Y-122289000D01*
G37*
G04 #@! TD.AperFunction*
D12*
X114853500Y-154528500D03*
X114853500Y-161828500D03*
X117063500Y-161828500D03*
X117063500Y-154528500D03*
D13*
X114203500Y-160428500D03*
X114203500Y-158928500D03*
X114203500Y-155928500D03*
G04 #@! TA.AperFunction,SMDPad,CuDef*
G36*
G01*
X93668001Y-126314000D02*
X92767999Y-126314000D01*
G75*
G02*
X92518000Y-126064001I0J249999D01*
G01*
X92518000Y-125363999D01*
G75*
G02*
X92767999Y-125114000I249999J0D01*
G01*
X93668001Y-125114000D01*
G75*
G02*
X93918000Y-125363999I0J-249999D01*
G01*
X93918000Y-126064001D01*
G75*
G02*
X93668001Y-126314000I-249999J0D01*
G01*
G37*
G04 #@! TD.AperFunction*
G04 #@! TA.AperFunction,SMDPad,CuDef*
G36*
G01*
X93668001Y-124314000D02*
X92767999Y-124314000D01*
G75*
G02*
X92518000Y-124064001I0J249999D01*
G01*
X92518000Y-123363999D01*
G75*
G02*
X92767999Y-123114000I249999J0D01*
G01*
X93668001Y-123114000D01*
G75*
G02*
X93918000Y-123363999I0J-249999D01*
G01*
X93918000Y-124064001D01*
G75*
G02*
X93668001Y-124314000I-249999J0D01*
G01*
G37*
G04 #@! TD.AperFunction*
G04 #@! TA.AperFunction,SMDPad,CuDef*
G36*
G01*
X110534500Y-146044499D02*
X110534500Y-146944501D01*
G75*
G02*
X110284501Y-147194500I-249999J0D01*
G01*
X109584499Y-147194500D01*
G75*
G02*
X109334500Y-146944501I0J249999D01*
G01*
X109334500Y-146044499D01*
G75*
G02*
X109584499Y-145794500I249999J0D01*
G01*
X110284501Y-145794500D01*
G75*
G02*
X110534500Y-146044499I0J-249999D01*
G01*
G37*
G04 #@! TD.AperFunction*
G04 #@! TA.AperFunction,SMDPad,CuDef*
G36*
G01*
X112534500Y-146044499D02*
X112534500Y-146944501D01*
G75*
G02*
X112284501Y-147194500I-249999J0D01*
G01*
X111584499Y-147194500D01*
G75*
G02*
X111334500Y-146944501I0J249999D01*
G01*
X111334500Y-146044499D01*
G75*
G02*
X111584499Y-145794500I249999J0D01*
G01*
X112284501Y-145794500D01*
G75*
G02*
X112534500Y-146044499I0J-249999D01*
G01*
G37*
G04 #@! TD.AperFunction*
G04 #@! TA.AperFunction,SMDPad,CuDef*
G36*
G01*
X110033000Y-134498501D02*
X110033000Y-133598499D01*
G75*
G02*
X110282999Y-133348500I249999J0D01*
G01*
X110983001Y-133348500D01*
G75*
G02*
X111233000Y-133598499I0J-249999D01*
G01*
X111233000Y-134498501D01*
G75*
G02*
X110983001Y-134748500I-249999J0D01*
G01*
X110282999Y-134748500D01*
G75*
G02*
X110033000Y-134498501I0J249999D01*
G01*
G37*
G04 #@! TD.AperFunction*
G04 #@! TA.AperFunction,SMDPad,CuDef*
G36*
G01*
X112033000Y-134498501D02*
X112033000Y-133598499D01*
G75*
G02*
X112282999Y-133348500I249999J0D01*
G01*
X112983001Y-133348500D01*
G75*
G02*
X113233000Y-133598499I0J-249999D01*
G01*
X113233000Y-134498501D01*
G75*
G02*
X112983001Y-134748500I-249999J0D01*
G01*
X112282999Y-134748500D01*
G75*
G02*
X112033000Y-134498501I0J249999D01*
G01*
G37*
G04 #@! TD.AperFunction*
G04 #@! TA.AperFunction,SMDPad,CuDef*
G36*
G01*
X110033000Y-132403001D02*
X110033000Y-131502999D01*
G75*
G02*
X110282999Y-131253000I249999J0D01*
G01*
X110983001Y-131253000D01*
G75*
G02*
X111233000Y-131502999I0J-249999D01*
G01*
X111233000Y-132403001D01*
G75*
G02*
X110983001Y-132653000I-249999J0D01*
G01*
X110282999Y-132653000D01*
G75*
G02*
X110033000Y-132403001I0J249999D01*
G01*
G37*
G04 #@! TD.AperFunction*
G04 #@! TA.AperFunction,SMDPad,CuDef*
G36*
G01*
X112033000Y-132403001D02*
X112033000Y-131502999D01*
G75*
G02*
X112282999Y-131253000I249999J0D01*
G01*
X112983001Y-131253000D01*
G75*
G02*
X113233000Y-131502999I0J-249999D01*
G01*
X113233000Y-132403001D01*
G75*
G02*
X112983001Y-132653000I-249999J0D01*
G01*
X112282999Y-132653000D01*
G75*
G02*
X112033000Y-132403001I0J249999D01*
G01*
G37*
G04 #@! TD.AperFunction*
G04 #@! TA.AperFunction,SMDPad,CuDef*
G36*
G01*
X112033000Y-137737001D02*
X112033000Y-136836999D01*
G75*
G02*
X112282999Y-136587000I249999J0D01*
G01*
X112983001Y-136587000D01*
G75*
G02*
X113233000Y-136836999I0J-249999D01*
G01*
X113233000Y-137737001D01*
G75*
G02*
X112983001Y-137987000I-249999J0D01*
G01*
X112282999Y-137987000D01*
G75*
G02*
X112033000Y-137737001I0J249999D01*
G01*
G37*
G04 #@! TD.AperFunction*
G04 #@! TA.AperFunction,SMDPad,CuDef*
G36*
G01*
X110033000Y-137737001D02*
X110033000Y-136836999D01*
G75*
G02*
X110282999Y-136587000I249999J0D01*
G01*
X110983001Y-136587000D01*
G75*
G02*
X111233000Y-136836999I0J-249999D01*
G01*
X111233000Y-137737001D01*
G75*
G02*
X110983001Y-137987000I-249999J0D01*
G01*
X110282999Y-137987000D01*
G75*
G02*
X110033000Y-137737001I0J249999D01*
G01*
G37*
G04 #@! TD.AperFunction*
G04 #@! TA.AperFunction,SMDPad,CuDef*
G36*
G01*
X90100999Y-123114000D02*
X91001001Y-123114000D01*
G75*
G02*
X91251000Y-123363999I0J-249999D01*
G01*
X91251000Y-124064001D01*
G75*
G02*
X91001001Y-124314000I-249999J0D01*
G01*
X90100999Y-124314000D01*
G75*
G02*
X89851000Y-124064001I0J249999D01*
G01*
X89851000Y-123363999D01*
G75*
G02*
X90100999Y-123114000I249999J0D01*
G01*
G37*
G04 #@! TD.AperFunction*
G04 #@! TA.AperFunction,SMDPad,CuDef*
G36*
G01*
X90100999Y-125114000D02*
X91001001Y-125114000D01*
G75*
G02*
X91251000Y-125363999I0J-249999D01*
G01*
X91251000Y-126064001D01*
G75*
G02*
X91001001Y-126314000I-249999J0D01*
G01*
X90100999Y-126314000D01*
G75*
G02*
X89851000Y-126064001I0J249999D01*
G01*
X89851000Y-125363999D01*
G75*
G02*
X90100999Y-125114000I249999J0D01*
G01*
G37*
G04 #@! TD.AperFunction*
D14*
X97780400Y-128604000D03*
X98280400Y-128604000D03*
X98780400Y-128604000D03*
X99280400Y-128604000D03*
X99780400Y-128604000D03*
X100280400Y-128604000D03*
X100780400Y-128604000D03*
X101280400Y-128604000D03*
X101780400Y-128604000D03*
X102280400Y-128604000D03*
X102780400Y-128604000D03*
X103280400Y-128604000D03*
X103780400Y-128604000D03*
X104280400Y-128604000D03*
X104780400Y-128604000D03*
X105280400Y-128604000D03*
X105780400Y-128604000D03*
X106280400Y-128604000D03*
X106780400Y-128604000D03*
X107280400Y-128604000D03*
X107780400Y-128604000D03*
X108280400Y-128604000D03*
X108780400Y-128604000D03*
X109280400Y-128604000D03*
D15*
X96110400Y-126904000D03*
X110950400Y-126904000D03*
D16*
X115529600Y-164820600D03*
X110479600Y-164820600D03*
X115529600Y-167360600D03*
X110479600Y-167360600D03*
X115529600Y-169900600D03*
X110479600Y-169900600D03*
G04 #@! TA.AperFunction,SMDPad,CuDef*
G36*
G01*
X111384500Y-149173250D02*
X111384500Y-148260750D01*
G75*
G02*
X111628250Y-148017000I243750J0D01*
G01*
X112115750Y-148017000D01*
G75*
G02*
X112359500Y-148260750I0J-243750D01*
G01*
X112359500Y-149173250D01*
G75*
G02*
X112115750Y-149417000I-243750J0D01*
G01*
X111628250Y-149417000D01*
G75*
G02*
X111384500Y-149173250I0J243750D01*
G01*
G37*
G04 #@! TD.AperFunction*
G04 #@! TA.AperFunction,SMDPad,CuDef*
G36*
G01*
X109509500Y-149173250D02*
X109509500Y-148260750D01*
G75*
G02*
X109753250Y-148017000I243750J0D01*
G01*
X110240750Y-148017000D01*
G75*
G02*
X110484500Y-148260750I0J-243750D01*
G01*
X110484500Y-149173250D01*
G75*
G02*
X110240750Y-149417000I-243750J0D01*
G01*
X109753250Y-149417000D01*
G75*
G02*
X109509500Y-149173250I0J243750D01*
G01*
G37*
G04 #@! TD.AperFunction*
D17*
X112775000Y-139636500D03*
X109475000Y-139636500D03*
D18*
X103505000Y-66929000D03*
D19*
X111405000Y-66929000D03*
X95605000Y-66929000D03*
D20*
X99504500Y-168756000D03*
X99504500Y-143156000D03*
D21*
X99504500Y-155956000D03*
D22*
X92519500Y-125793500D03*
X114871500Y-125730000D03*
X109918500Y-148717000D03*
X110426500Y-169926000D03*
D23*
X103695500Y-66929000D03*
D22*
X103568500Y-161480500D03*
X104330500Y-149606000D03*
X104140000Y-152336500D03*
X106426000Y-155829000D03*
X100584000Y-155829000D03*
X94551500Y-150177500D03*
X105791000Y-129921000D03*
D23*
X97091500Y-166687500D03*
X100139500Y-140843000D03*
D22*
X95620840Y-66266060D03*
X111495840Y-66266060D03*
X115125500Y-134175500D03*
X94742000Y-123698000D03*
X96583500Y-123698000D03*
X105854500Y-132842000D03*
X104521000Y-145669000D03*
X94551500Y-143891000D03*
X98869500Y-123698000D03*
X104775000Y-127254000D03*
X94635500Y-141602500D03*
X103489000Y-166259000D03*
X108870900Y-149510600D03*
X101155500Y-123698000D03*
X114173000Y-158877000D03*
X92435500Y-141602500D03*
X103441500Y-123698000D03*
X105727500Y-123698000D03*
X103251000Y-131000500D03*
X108013500Y-123698000D03*
X110299500Y-123698000D03*
X91122500Y-132715000D03*
X108775500Y-129794000D03*
X112585500Y-123698000D03*
X114871500Y-123698000D03*
X113855500Y-148336000D03*
X103759000Y-127317500D03*
X115375000Y-151325000D03*
X115529600Y-167360600D03*
X104267000Y-129857500D03*
X113125000Y-151098000D03*
X113919000Y-150431500D03*
X113157000Y-145605500D03*
X115529600Y-169900600D03*
X103251000Y-129766060D03*
X112325000Y-150438000D03*
X102743000Y-127317500D03*
X111525000Y-151111000D03*
X109029500Y-151130000D03*
X102933500Y-133667500D03*
X98163000Y-133993000D03*
X112649000Y-131953000D03*
X112649000Y-134112000D03*
X109918500Y-146494500D03*
X107061000Y-144081500D03*
X103489000Y-168259000D03*
X108712000Y-145542000D03*
X104965500Y-168259000D03*
D24*
X105791000Y-128614600D02*
X105780400Y-128604000D01*
X105791000Y-129921000D02*
X105791000Y-128614600D01*
X116489000Y-124112500D02*
X116489000Y-121539000D01*
X114871500Y-125730000D02*
X116489000Y-124112500D01*
X90630500Y-125793500D02*
X90551000Y-125714000D01*
X92519500Y-125793500D02*
X90630500Y-125793500D01*
D25*
X101599101Y-170850601D02*
X99504500Y-168756000D01*
X112414601Y-170850601D02*
X101599101Y-170850601D01*
X112504601Y-170760601D02*
X112414601Y-170850601D01*
X112504601Y-162127399D02*
X112504601Y-170760601D01*
X114203500Y-160428500D02*
X112504601Y-162127399D01*
D24*
X99280400Y-126152588D02*
X99280400Y-128604000D01*
X97550813Y-124423001D02*
X99280400Y-126152588D01*
X95467001Y-124423001D02*
X97550813Y-124423001D01*
X94742000Y-123698000D02*
X95467001Y-124423001D01*
X97149185Y-123698000D02*
X96583500Y-123698000D01*
X97462222Y-123698000D02*
X97149185Y-123698000D01*
X99780400Y-126016178D02*
X97462222Y-123698000D01*
X99780400Y-128604000D02*
X99780400Y-126016178D01*
X105280400Y-128604000D02*
X104780400Y-128604000D01*
X104780400Y-127259400D02*
X104775000Y-127254000D01*
X104780400Y-128604000D02*
X104780400Y-127259400D01*
X102159402Y-123698000D02*
X101155500Y-123698000D01*
X102292002Y-123698000D02*
X102159402Y-123698000D01*
X106280400Y-127686398D02*
X102292002Y-123698000D01*
X106280400Y-128604000D02*
X106280400Y-127686398D01*
X106780400Y-127036900D02*
X106780400Y-128604000D01*
X103441500Y-123698000D02*
X106780400Y-127036900D01*
X107280400Y-125250900D02*
X107280400Y-128604000D01*
X105727500Y-123698000D02*
X107280400Y-125250900D01*
X107780400Y-123931100D02*
X107780400Y-128604000D01*
X108013500Y-123698000D02*
X107780400Y-123931100D01*
X107780400Y-129389002D02*
X107780400Y-128604000D01*
X106168902Y-131000500D02*
X107780400Y-129389002D01*
X103251000Y-131000500D02*
X106168902Y-131000500D01*
X108280400Y-125016178D02*
X108280400Y-128604000D01*
X109167597Y-124128981D02*
X108280400Y-125016178D01*
X109995520Y-124128980D02*
X109167597Y-124128981D01*
X110299500Y-123825000D02*
X109995520Y-124128980D01*
X110299500Y-123698000D02*
X110299500Y-123825000D01*
X111704510Y-124578990D02*
X109353998Y-124578990D01*
X109353998Y-124578990D02*
X108805399Y-125127589D01*
X112585500Y-123698000D02*
X111704510Y-124578990D01*
X108780400Y-127118398D02*
X108780400Y-128604000D01*
X108805399Y-127093399D02*
X108780400Y-127118398D01*
X108805399Y-125127589D02*
X108805399Y-127093399D01*
X108780400Y-129789100D02*
X108775500Y-129794000D01*
X108780400Y-128604000D02*
X108780400Y-129789100D01*
X109280400Y-125288998D02*
X109280400Y-128604000D01*
X109540399Y-125028999D02*
X109280400Y-125288998D01*
X113540501Y-125028999D02*
X109540399Y-125028999D01*
X114871500Y-123698000D02*
X113540501Y-125028999D01*
X102280400Y-131102902D02*
X102280400Y-128604000D01*
X102902999Y-131725501D02*
X102280400Y-131102902D01*
X106684691Y-131725501D02*
X102902999Y-131725501D01*
X112246190Y-137287000D02*
X106684691Y-131725501D01*
X112633000Y-137287000D02*
X112246190Y-137287000D01*
X112775000Y-137429000D02*
X112633000Y-137287000D01*
X112775000Y-139636500D02*
X112775000Y-137429000D01*
X108056990Y-141053510D02*
X109474000Y-139636500D01*
X114255499Y-145630997D02*
X112579002Y-143954500D01*
X114255499Y-147936001D02*
X114255499Y-145630997D01*
X113855500Y-148336000D02*
X114255499Y-147936001D01*
X109370480Y-143954500D02*
X108056990Y-142641010D01*
X112579002Y-143954500D02*
X109370480Y-143954500D01*
X108056990Y-142641010D02*
X108056990Y-141053510D01*
X111872000Y-146557000D02*
X111934500Y-146494500D01*
X111872000Y-148717000D02*
X111872000Y-146557000D01*
X115529600Y-167360600D02*
X115529600Y-167360600D01*
X103759000Y-128582600D02*
X103780400Y-128604000D01*
X103759000Y-127317500D02*
X103759000Y-128582600D01*
X104267000Y-128617400D02*
X104280400Y-128604000D01*
X104267000Y-129857500D02*
X104267000Y-128617400D01*
X108579599Y-167285599D02*
X108579599Y-160533903D01*
X108654600Y-167360600D02*
X108579599Y-167285599D01*
X113125000Y-155988502D02*
X113125000Y-151098000D01*
X108579599Y-160533903D02*
X113125000Y-155988502D01*
X110479600Y-167360600D02*
X108654600Y-167360600D01*
X115578501Y-153107001D02*
X113919000Y-151447500D01*
X115578501Y-154528503D02*
X115578501Y-153107001D01*
X116738501Y-155688503D02*
X115578501Y-154528503D01*
X116738501Y-160050501D02*
X116738501Y-155688503D01*
X113919000Y-151447500D02*
X113919000Y-150431500D01*
X115578501Y-161210501D02*
X116738501Y-160050501D01*
X115578501Y-164771699D02*
X115578501Y-161210501D01*
X115529600Y-164820600D02*
X115578501Y-164771699D01*
X115529600Y-169900600D02*
X115529600Y-169900600D01*
D25*
X110479600Y-160742398D02*
X110479600Y-164820600D01*
X114203500Y-157018498D02*
X110479600Y-160742398D01*
X114203500Y-155928500D02*
X114203500Y-157018498D01*
D24*
X103280400Y-129828100D02*
X103280400Y-128604000D01*
X103251000Y-129857500D02*
X103280400Y-129828100D01*
X102780400Y-127354900D02*
X102780400Y-128604000D01*
X102743000Y-127317500D02*
X102780400Y-127354900D01*
X109029500Y-151130000D02*
X107606980Y-149707480D01*
X101780400Y-131239312D02*
X105605588Y-135064500D01*
X101780400Y-128604000D02*
X101780400Y-131239312D01*
X106235500Y-135064500D02*
X107606980Y-136435980D01*
X105605588Y-135064500D02*
X106235500Y-135064500D01*
X106335999Y-148436499D02*
X107606980Y-149707480D01*
X106335999Y-137706961D02*
X106335999Y-148436499D01*
X107606980Y-136435980D02*
X106335999Y-137706961D01*
X101280400Y-127818998D02*
X101280400Y-128604000D01*
X100430499Y-126969097D02*
X101280400Y-127818998D01*
X100807499Y-122972999D02*
X100430499Y-123349999D01*
X114755001Y-122972999D02*
X100807499Y-122972999D01*
X115189000Y-122539000D02*
X114755001Y-122972999D01*
X100430499Y-123349999D02*
X100430499Y-126969097D01*
X115189000Y-121539000D02*
X115189000Y-122539000D01*
X98780400Y-126288998D02*
X98780400Y-128604000D01*
X91884500Y-123993690D02*
X92679800Y-124788990D01*
X91884500Y-121539000D02*
X91884500Y-123993690D01*
X97520401Y-125028999D02*
X98780400Y-126288998D01*
X94739499Y-125028999D02*
X97520401Y-125028999D01*
X94499490Y-124788990D02*
X94739499Y-125028999D01*
X92679800Y-124788990D02*
X94499490Y-124788990D01*
X98870399Y-129604399D02*
X102933500Y-133667500D01*
X98780400Y-129514400D02*
X98870399Y-129604399D01*
X98780400Y-128604000D02*
X98780400Y-129514400D01*
X98280400Y-133875600D02*
X98163000Y-133993000D01*
X98280400Y-128604000D02*
X98280400Y-133875600D01*
X93218000Y-121572500D02*
X93184500Y-121539000D01*
X93218000Y-123714000D02*
X93218000Y-121572500D01*
X90584500Y-123680500D02*
X90551000Y-123714000D01*
X90584500Y-121539000D02*
X90584500Y-123680500D01*
D26*
X117297943Y-153645657D02*
X116663500Y-153645657D01*
X116588811Y-153653013D01*
X116516992Y-153674799D01*
X116450804Y-153710178D01*
X116392789Y-153757789D01*
X116345178Y-153815804D01*
X116309799Y-153881992D01*
X116288013Y-153953811D01*
X116280657Y-154028500D01*
X116280657Y-154515068D01*
X116084501Y-154318912D01*
X116084501Y-153131855D01*
X116086949Y-153107001D01*
X116077179Y-153007808D01*
X116048246Y-152912426D01*
X116001260Y-152824522D01*
X115938028Y-152747474D01*
X115918721Y-152731629D01*
X115291853Y-152104762D01*
X115298078Y-152106000D01*
X115451922Y-152106000D01*
X115602809Y-152075987D01*
X115744942Y-152017113D01*
X115872859Y-151931642D01*
X115981642Y-151822859D01*
X116067113Y-151694942D01*
X116125987Y-151552809D01*
X116156000Y-151401922D01*
X116156000Y-151248078D01*
X116125987Y-151097191D01*
X116067113Y-150955058D01*
X115981642Y-150827141D01*
X115872859Y-150718358D01*
X115744942Y-150632887D01*
X115602809Y-150574013D01*
X115451922Y-150544000D01*
X115298078Y-150544000D01*
X115147191Y-150574013D01*
X115005058Y-150632887D01*
X114877141Y-150718358D01*
X114768358Y-150827141D01*
X114682887Y-150955058D01*
X114624013Y-151097191D01*
X114594000Y-151248078D01*
X114594000Y-151401922D01*
X114595238Y-151408147D01*
X114425000Y-151237909D01*
X114425000Y-151030001D01*
X114525642Y-150929359D01*
X114611113Y-150801442D01*
X114669987Y-150659309D01*
X114700000Y-150508422D01*
X114700000Y-150354578D01*
X114669987Y-150203691D01*
X114611113Y-150061558D01*
X114525642Y-149933641D01*
X114416859Y-149824858D01*
X114288942Y-149739387D01*
X114146809Y-149680513D01*
X113995922Y-149650500D01*
X113842078Y-149650500D01*
X113691191Y-149680513D01*
X113549058Y-149739387D01*
X113421141Y-149824858D01*
X113312358Y-149933641D01*
X113226887Y-150061558D01*
X113168013Y-150203691D01*
X113145475Y-150317000D01*
X113097232Y-150317000D01*
X113075987Y-150210191D01*
X113017113Y-150068058D01*
X112931642Y-149940141D01*
X112822859Y-149831358D01*
X112694942Y-149745887D01*
X112552809Y-149687013D01*
X112488309Y-149674183D01*
X112558818Y-149616318D01*
X112636743Y-149521366D01*
X112694646Y-149413037D01*
X112730303Y-149295492D01*
X112742343Y-149173250D01*
X112742343Y-148260750D01*
X112730303Y-148138508D01*
X112694646Y-148020963D01*
X112636743Y-147912634D01*
X112558818Y-147817682D01*
X112463866Y-147739757D01*
X112378000Y-147693861D01*
X112378000Y-147568134D01*
X112407962Y-147565183D01*
X112526679Y-147529171D01*
X112636089Y-147470690D01*
X112731988Y-147391988D01*
X112810690Y-147296089D01*
X112869171Y-147186679D01*
X112905183Y-147067962D01*
X112917343Y-146944501D01*
X112917343Y-146351579D01*
X112929191Y-146356487D01*
X113080078Y-146386500D01*
X113233922Y-146386500D01*
X113384809Y-146356487D01*
X113526942Y-146297613D01*
X113654859Y-146212142D01*
X113749500Y-146117501D01*
X113749499Y-147560784D01*
X113627691Y-147585013D01*
X113485558Y-147643887D01*
X113357641Y-147729358D01*
X113248858Y-147838141D01*
X113163387Y-147966058D01*
X113104513Y-148108191D01*
X113074500Y-148259078D01*
X113074500Y-148412922D01*
X113104513Y-148563809D01*
X113163387Y-148705942D01*
X113248858Y-148833859D01*
X113357641Y-148942642D01*
X113485558Y-149028113D01*
X113627691Y-149086987D01*
X113778578Y-149117000D01*
X113932422Y-149117000D01*
X114083309Y-149086987D01*
X114225442Y-149028113D01*
X114353359Y-148942642D01*
X114462142Y-148833859D01*
X114547613Y-148705942D01*
X114606487Y-148563809D01*
X114636500Y-148412922D01*
X114636500Y-148269362D01*
X114678258Y-148218480D01*
X114725244Y-148130576D01*
X114754177Y-148035194D01*
X114761499Y-147960855D01*
X114761499Y-147960848D01*
X114763946Y-147936002D01*
X114761499Y-147911156D01*
X114761499Y-145655851D01*
X114763947Y-145630997D01*
X114754177Y-145531804D01*
X114725244Y-145436422D01*
X114718506Y-145423817D01*
X114678258Y-145348518D01*
X114615026Y-145271470D01*
X114595719Y-145255625D01*
X112954378Y-143614285D01*
X112938529Y-143594973D01*
X112861481Y-143531741D01*
X112773577Y-143484755D01*
X112678195Y-143455822D01*
X112603856Y-143448500D01*
X112603848Y-143448500D01*
X112579002Y-143446053D01*
X112554156Y-143448500D01*
X109580072Y-143448500D01*
X108562990Y-142431419D01*
X108562990Y-141263101D01*
X109206749Y-140619343D01*
X109925000Y-140619343D01*
X109999689Y-140611987D01*
X110071508Y-140590201D01*
X110137696Y-140554822D01*
X110195711Y-140507211D01*
X110243322Y-140449196D01*
X110278701Y-140383008D01*
X110300487Y-140311189D01*
X110307843Y-140236500D01*
X110307843Y-139036500D01*
X110300487Y-138961811D01*
X110278701Y-138889992D01*
X110243322Y-138823804D01*
X110195711Y-138765789D01*
X110137696Y-138718178D01*
X110071508Y-138682799D01*
X109999689Y-138661013D01*
X109925000Y-138653657D01*
X109025000Y-138653657D01*
X108950311Y-138661013D01*
X108878492Y-138682799D01*
X108812304Y-138718178D01*
X108754289Y-138765789D01*
X108706678Y-138823804D01*
X108671299Y-138889992D01*
X108649513Y-138961811D01*
X108642157Y-139036500D01*
X108642157Y-139752751D01*
X107716770Y-140678138D01*
X107697464Y-140693983D01*
X107634232Y-140771031D01*
X107609117Y-140818018D01*
X107587245Y-140858936D01*
X107558312Y-140954318D01*
X107548543Y-141053510D01*
X107550991Y-141078366D01*
X107550990Y-142616163D01*
X107548543Y-142641010D01*
X107550990Y-142665856D01*
X107550990Y-142665863D01*
X107558312Y-142740202D01*
X107587245Y-142835584D01*
X107634231Y-142923489D01*
X107697463Y-143000537D01*
X107716775Y-143016386D01*
X108995108Y-144294720D01*
X109010953Y-144314027D01*
X109088001Y-144377259D01*
X109175905Y-144424245D01*
X109249087Y-144446444D01*
X109271286Y-144453178D01*
X109281174Y-144454152D01*
X109345626Y-144460500D01*
X109345633Y-144460500D01*
X109370479Y-144462947D01*
X109395325Y-144460500D01*
X112369411Y-144460500D01*
X112811976Y-144903065D01*
X112787058Y-144913387D01*
X112659141Y-144998858D01*
X112550358Y-145107641D01*
X112464887Y-145235558D01*
X112406013Y-145377691D01*
X112397052Y-145422742D01*
X112284501Y-145411657D01*
X111584499Y-145411657D01*
X111461038Y-145423817D01*
X111342321Y-145459829D01*
X111232911Y-145518310D01*
X111137012Y-145597012D01*
X111058310Y-145692911D01*
X110999829Y-145802321D01*
X110963817Y-145921038D01*
X110951657Y-146044499D01*
X110951657Y-146944501D01*
X110963817Y-147067962D01*
X110999829Y-147186679D01*
X111058310Y-147296089D01*
X111137012Y-147391988D01*
X111232911Y-147470690D01*
X111342321Y-147529171D01*
X111366001Y-147536354D01*
X111366000Y-147693860D01*
X111280134Y-147739757D01*
X111185182Y-147817682D01*
X111107257Y-147912634D01*
X111049354Y-148020963D01*
X111013697Y-148138508D01*
X111001657Y-148260750D01*
X111001657Y-149173250D01*
X111013697Y-149295492D01*
X111049354Y-149413037D01*
X111107257Y-149521366D01*
X111185182Y-149616318D01*
X111280134Y-149694243D01*
X111388463Y-149752146D01*
X111506008Y-149787803D01*
X111628250Y-149799843D01*
X111874307Y-149799843D01*
X111827141Y-149831358D01*
X111718358Y-149940141D01*
X111632887Y-150068058D01*
X111574013Y-150210191D01*
X111550182Y-150330000D01*
X111448078Y-150330000D01*
X111297191Y-150360013D01*
X111155058Y-150418887D01*
X111027141Y-150504358D01*
X110918358Y-150613141D01*
X110832887Y-150741058D01*
X110774013Y-150883191D01*
X110744000Y-151034078D01*
X110744000Y-151187922D01*
X110774013Y-151338809D01*
X110832887Y-151480942D01*
X110918358Y-151608859D01*
X111027141Y-151717642D01*
X111155058Y-151803113D01*
X111297191Y-151861987D01*
X111448078Y-151892000D01*
X111601922Y-151892000D01*
X111752809Y-151861987D01*
X111894942Y-151803113D01*
X112022859Y-151717642D01*
X112131642Y-151608859D01*
X112217113Y-151480942D01*
X112275987Y-151338809D01*
X112299818Y-151219000D01*
X112352768Y-151219000D01*
X112374013Y-151325809D01*
X112432887Y-151467942D01*
X112518358Y-151595859D01*
X112619001Y-151696502D01*
X112619000Y-155778910D01*
X108239380Y-160158531D01*
X108220073Y-160174376D01*
X108156841Y-160251424D01*
X108134054Y-160294055D01*
X108109854Y-160339329D01*
X108080921Y-160434711D01*
X108071152Y-160533903D01*
X108073600Y-160558759D01*
X108073599Y-167260753D01*
X108071152Y-167285599D01*
X108073599Y-167310445D01*
X108073599Y-167310452D01*
X108080921Y-167384791D01*
X108109854Y-167480173D01*
X108156840Y-167568078D01*
X108220072Y-167645126D01*
X108239384Y-167660975D01*
X108279224Y-167700815D01*
X108295073Y-167720127D01*
X108372121Y-167783359D01*
X108460025Y-167830345D01*
X108521757Y-167849071D01*
X108521757Y-167860600D01*
X108529113Y-167935289D01*
X108550899Y-168007108D01*
X108586278Y-168073296D01*
X108633889Y-168131311D01*
X108691904Y-168178922D01*
X108758092Y-168214301D01*
X108829911Y-168236087D01*
X108904600Y-168243443D01*
X111873602Y-168243443D01*
X111873602Y-169017757D01*
X108904600Y-169017757D01*
X108829911Y-169025113D01*
X108758092Y-169046899D01*
X108691904Y-169082278D01*
X108633889Y-169129889D01*
X108586278Y-169187904D01*
X108550899Y-169254092D01*
X108529113Y-169325911D01*
X108521757Y-169400600D01*
X108521757Y-170219601D01*
X102437343Y-170219601D01*
X102437343Y-168182078D01*
X102708000Y-168182078D01*
X102708000Y-168335922D01*
X102738013Y-168486809D01*
X102796887Y-168628942D01*
X102882358Y-168756859D01*
X102991141Y-168865642D01*
X103119058Y-168951113D01*
X103261191Y-169009987D01*
X103412078Y-169040000D01*
X103565922Y-169040000D01*
X103716809Y-169009987D01*
X103858942Y-168951113D01*
X103986859Y-168865642D01*
X104095642Y-168756859D01*
X104181113Y-168628942D01*
X104227250Y-168517559D01*
X104273387Y-168628942D01*
X104358858Y-168756859D01*
X104467641Y-168865642D01*
X104595558Y-168951113D01*
X104737691Y-169009987D01*
X104888578Y-169040000D01*
X105042422Y-169040000D01*
X105193309Y-169009987D01*
X105335442Y-168951113D01*
X105463359Y-168865642D01*
X105572142Y-168756859D01*
X105657613Y-168628942D01*
X105716487Y-168486809D01*
X105746500Y-168335922D01*
X105746500Y-168182078D01*
X105716487Y-168031191D01*
X105657613Y-167889058D01*
X105572142Y-167761141D01*
X105463359Y-167652358D01*
X105335442Y-167566887D01*
X105193309Y-167508013D01*
X105042422Y-167478000D01*
X104888578Y-167478000D01*
X104737691Y-167508013D01*
X104595558Y-167566887D01*
X104467641Y-167652358D01*
X104358858Y-167761141D01*
X104273387Y-167889058D01*
X104227250Y-168000441D01*
X104181113Y-167889058D01*
X104095642Y-167761141D01*
X103986859Y-167652358D01*
X103858942Y-167566887D01*
X103716809Y-167508013D01*
X103565922Y-167478000D01*
X103412078Y-167478000D01*
X103261191Y-167508013D01*
X103119058Y-167566887D01*
X102991141Y-167652358D01*
X102882358Y-167761141D01*
X102796887Y-167889058D01*
X102738013Y-168031191D01*
X102708000Y-168182078D01*
X102437343Y-168182078D01*
X102437343Y-166206000D01*
X102429987Y-166131311D01*
X102408201Y-166059492D01*
X102372822Y-165993304D01*
X102325211Y-165935289D01*
X102267196Y-165887678D01*
X102201008Y-165852299D01*
X102129189Y-165830513D01*
X102054500Y-165823157D01*
X97897342Y-165823157D01*
X97844343Y-165770158D01*
X97650913Y-165640912D01*
X97435985Y-165551886D01*
X97207818Y-165506500D01*
X96975182Y-165506500D01*
X96747015Y-165551886D01*
X96532087Y-165640912D01*
X96338657Y-165770158D01*
X96174158Y-165934657D01*
X96044912Y-166128087D01*
X95955886Y-166343015D01*
X95910500Y-166571182D01*
X95910500Y-166803818D01*
X95955886Y-167031985D01*
X96044912Y-167246913D01*
X96174158Y-167440343D01*
X96338657Y-167604842D01*
X96532087Y-167734088D01*
X96571657Y-167750478D01*
X96571657Y-171245780D01*
X90270443Y-171245780D01*
X90207152Y-171242584D01*
X90156256Y-171234816D01*
X90107368Y-171222246D01*
X90060514Y-171205097D01*
X90015814Y-171183564D01*
X89973546Y-171157886D01*
X89933940Y-171128269D01*
X89897358Y-171095022D01*
X89864108Y-171058437D01*
X89834499Y-171018841D01*
X89808815Y-170976564D01*
X89787283Y-170931867D01*
X89770135Y-170885017D01*
X89757564Y-170836126D01*
X89749797Y-170785237D01*
X89746601Y-170721925D01*
X89746601Y-155041901D01*
X90223500Y-155041901D01*
X90223500Y-156870099D01*
X90580163Y-158663168D01*
X91279784Y-160352202D01*
X92295476Y-161872293D01*
X93588207Y-163165024D01*
X95108298Y-164180716D01*
X96797332Y-164880337D01*
X98590401Y-165237000D01*
X100418599Y-165237000D01*
X102211668Y-164880337D01*
X103900702Y-164180716D01*
X105420793Y-163165024D01*
X106713524Y-161872293D01*
X107729216Y-160352202D01*
X108428837Y-158663168D01*
X108785500Y-156870099D01*
X108785500Y-155041901D01*
X108428837Y-153248832D01*
X107729216Y-151559798D01*
X106713524Y-150039707D01*
X105420793Y-148746976D01*
X103900702Y-147731284D01*
X102211668Y-147031663D01*
X100418599Y-146675000D01*
X98590401Y-146675000D01*
X96797332Y-147031663D01*
X95108298Y-147731284D01*
X93588207Y-148746976D01*
X92295476Y-150039707D01*
X91279784Y-151559798D01*
X90580163Y-153248832D01*
X90223500Y-155041901D01*
X89746601Y-155041901D01*
X89746601Y-141525578D01*
X91654500Y-141525578D01*
X91654500Y-141679422D01*
X91684513Y-141830309D01*
X91743387Y-141972442D01*
X91828858Y-142100359D01*
X91937641Y-142209142D01*
X92065558Y-142294613D01*
X92207691Y-142353487D01*
X92358578Y-142383500D01*
X92512422Y-142383500D01*
X92663309Y-142353487D01*
X92805442Y-142294613D01*
X92933359Y-142209142D01*
X93042142Y-142100359D01*
X93127613Y-141972442D01*
X93186487Y-141830309D01*
X93216500Y-141679422D01*
X93216500Y-141525578D01*
X93186487Y-141374691D01*
X93127613Y-141232558D01*
X93042142Y-141104641D01*
X92933359Y-140995858D01*
X92805442Y-140910387D01*
X92663309Y-140851513D01*
X92512422Y-140821500D01*
X92358578Y-140821500D01*
X92207691Y-140851513D01*
X92065558Y-140910387D01*
X91937641Y-140995858D01*
X91828858Y-141104641D01*
X91743387Y-141232558D01*
X91684513Y-141374691D01*
X91654500Y-141525578D01*
X89746601Y-141525578D01*
X89746601Y-140606000D01*
X96571657Y-140606000D01*
X96571657Y-145706000D01*
X96579013Y-145780689D01*
X96600799Y-145852508D01*
X96636178Y-145918696D01*
X96683789Y-145976711D01*
X96741804Y-146024322D01*
X96807992Y-146059701D01*
X96879811Y-146081487D01*
X96954500Y-146088843D01*
X102054500Y-146088843D01*
X102129189Y-146081487D01*
X102201008Y-146059701D01*
X102267196Y-146024322D01*
X102325211Y-145976711D01*
X102372822Y-145918696D01*
X102408201Y-145852508D01*
X102429987Y-145780689D01*
X102437343Y-145706000D01*
X102437343Y-140606000D01*
X102429987Y-140531311D01*
X102408201Y-140459492D01*
X102372822Y-140393304D01*
X102325211Y-140335289D01*
X102267196Y-140287678D01*
X102201008Y-140252299D01*
X102129189Y-140230513D01*
X102054500Y-140223157D01*
X101145710Y-140223157D01*
X101056842Y-140090157D01*
X100892343Y-139925658D01*
X100698913Y-139796412D01*
X100483985Y-139707386D01*
X100255818Y-139662000D01*
X100023182Y-139662000D01*
X99795015Y-139707386D01*
X99580087Y-139796412D01*
X99386657Y-139925658D01*
X99222158Y-140090157D01*
X99133290Y-140223157D01*
X96954500Y-140223157D01*
X96879811Y-140230513D01*
X96807992Y-140252299D01*
X96741804Y-140287678D01*
X96683789Y-140335289D01*
X96636178Y-140393304D01*
X96600799Y-140459492D01*
X96579013Y-140531311D01*
X96571657Y-140606000D01*
X89746601Y-140606000D01*
X89746601Y-132638078D01*
X90341500Y-132638078D01*
X90341500Y-132791922D01*
X90371513Y-132942809D01*
X90430387Y-133084942D01*
X90515858Y-133212859D01*
X90624641Y-133321642D01*
X90752558Y-133407113D01*
X90894691Y-133465987D01*
X91045578Y-133496000D01*
X91199422Y-133496000D01*
X91350309Y-133465987D01*
X91492442Y-133407113D01*
X91620359Y-133321642D01*
X91729142Y-133212859D01*
X91814613Y-133084942D01*
X91873487Y-132942809D01*
X91903500Y-132791922D01*
X91903500Y-132638078D01*
X91873487Y-132487191D01*
X91814613Y-132345058D01*
X91729142Y-132217141D01*
X91620359Y-132108358D01*
X91492442Y-132022887D01*
X91350309Y-131964013D01*
X91199422Y-131934000D01*
X91045578Y-131934000D01*
X90894691Y-131964013D01*
X90752558Y-132022887D01*
X90624641Y-132108358D01*
X90515858Y-132217141D01*
X90430387Y-132345058D01*
X90371513Y-132487191D01*
X90341500Y-132638078D01*
X89746601Y-132638078D01*
X89746601Y-126587884D01*
X89749411Y-126590190D01*
X89858821Y-126648671D01*
X89977538Y-126684683D01*
X90100999Y-126696843D01*
X91001001Y-126696843D01*
X91124462Y-126684683D01*
X91243179Y-126648671D01*
X91352589Y-126590190D01*
X91448488Y-126511488D01*
X91527190Y-126415589D01*
X91585671Y-126306179D01*
X91587697Y-126299500D01*
X91920999Y-126299500D01*
X92021641Y-126400142D01*
X92149558Y-126485613D01*
X92291691Y-126544487D01*
X92382805Y-126562611D01*
X92416411Y-126590190D01*
X92525821Y-126648671D01*
X92644538Y-126684683D01*
X92767999Y-126696843D01*
X93668001Y-126696843D01*
X93791462Y-126684683D01*
X93910179Y-126648671D01*
X94019589Y-126590190D01*
X94115488Y-126511488D01*
X94194190Y-126415589D01*
X94252671Y-126306179D01*
X94288683Y-126187462D01*
X94300843Y-126064001D01*
X94300843Y-125363999D01*
X94294499Y-125299590D01*
X94364123Y-125369214D01*
X94379972Y-125388526D01*
X94457020Y-125451758D01*
X94544924Y-125498744D01*
X94577557Y-125508643D01*
X94577557Y-128454000D01*
X94584913Y-128528689D01*
X94606699Y-128600508D01*
X94642078Y-128666696D01*
X94689689Y-128724711D01*
X94747704Y-128772322D01*
X94813892Y-128807701D01*
X94885711Y-128829487D01*
X94960400Y-128836843D01*
X97247557Y-128836843D01*
X97247557Y-129154000D01*
X97254913Y-129228689D01*
X97276699Y-129300508D01*
X97312078Y-129366696D01*
X97359689Y-129424711D01*
X97417704Y-129472322D01*
X97483892Y-129507701D01*
X97555711Y-129529487D01*
X97630400Y-129536843D01*
X97774400Y-129536843D01*
X97774401Y-133313353D01*
X97665141Y-133386358D01*
X97556358Y-133495141D01*
X97470887Y-133623058D01*
X97412013Y-133765191D01*
X97382000Y-133916078D01*
X97382000Y-134069922D01*
X97412013Y-134220809D01*
X97470887Y-134362942D01*
X97556358Y-134490859D01*
X97665141Y-134599642D01*
X97793058Y-134685113D01*
X97935191Y-134743987D01*
X98086078Y-134774000D01*
X98239922Y-134774000D01*
X98390809Y-134743987D01*
X98532942Y-134685113D01*
X98660859Y-134599642D01*
X98769642Y-134490859D01*
X98855113Y-134362942D01*
X98913987Y-134220809D01*
X98944000Y-134069922D01*
X98944000Y-133916078D01*
X98913987Y-133765191D01*
X98855113Y-133623058D01*
X98786400Y-133520221D01*
X98786400Y-130235991D01*
X102152500Y-133602092D01*
X102152500Y-133744422D01*
X102182513Y-133895309D01*
X102241387Y-134037442D01*
X102326858Y-134165359D01*
X102435641Y-134274142D01*
X102563558Y-134359613D01*
X102705691Y-134418487D01*
X102856578Y-134448500D01*
X103010422Y-134448500D01*
X103161309Y-134418487D01*
X103303442Y-134359613D01*
X103431359Y-134274142D01*
X103540142Y-134165359D01*
X103625613Y-134037442D01*
X103684487Y-133895309D01*
X103690513Y-133865016D01*
X105230216Y-135404720D01*
X105246061Y-135424027D01*
X105323109Y-135487259D01*
X105411013Y-135534245D01*
X105506395Y-135563178D01*
X105605588Y-135572948D01*
X105630442Y-135570500D01*
X106025909Y-135570500D01*
X106891388Y-136435980D01*
X105995784Y-137331585D01*
X105976472Y-137347434D01*
X105913240Y-137424482D01*
X105866254Y-137512387D01*
X105837321Y-137607769D01*
X105829999Y-137682108D01*
X105829999Y-137682115D01*
X105827552Y-137706961D01*
X105829999Y-137731807D01*
X105830000Y-148411643D01*
X105827552Y-148436499D01*
X105837321Y-148535691D01*
X105866254Y-148631073D01*
X105888126Y-148671991D01*
X105913241Y-148718978D01*
X105976473Y-148796026D01*
X105995779Y-148811870D01*
X107266758Y-150082850D01*
X107266763Y-150082854D01*
X108248500Y-151064592D01*
X108248500Y-151206922D01*
X108278513Y-151357809D01*
X108337387Y-151499942D01*
X108422858Y-151627859D01*
X108531641Y-151736642D01*
X108659558Y-151822113D01*
X108801691Y-151880987D01*
X108952578Y-151911000D01*
X109106422Y-151911000D01*
X109257309Y-151880987D01*
X109399442Y-151822113D01*
X109527359Y-151736642D01*
X109636142Y-151627859D01*
X109721613Y-151499942D01*
X109780487Y-151357809D01*
X109810500Y-151206922D01*
X109810500Y-151053078D01*
X109780487Y-150902191D01*
X109721613Y-150760058D01*
X109636142Y-150632141D01*
X109527359Y-150523358D01*
X109399442Y-150437887D01*
X109257309Y-150379013D01*
X109106422Y-150349000D01*
X108964092Y-150349000D01*
X107982354Y-149367263D01*
X107982350Y-149367258D01*
X106875842Y-148260750D01*
X109126657Y-148260750D01*
X109126657Y-149173250D01*
X109138697Y-149295492D01*
X109174354Y-149413037D01*
X109232257Y-149521366D01*
X109310182Y-149616318D01*
X109405134Y-149694243D01*
X109513463Y-149752146D01*
X109631008Y-149787803D01*
X109753250Y-149799843D01*
X110240750Y-149799843D01*
X110362992Y-149787803D01*
X110480537Y-149752146D01*
X110588866Y-149694243D01*
X110683818Y-149616318D01*
X110761743Y-149521366D01*
X110819646Y-149413037D01*
X110855303Y-149295492D01*
X110867343Y-149173250D01*
X110867343Y-148260750D01*
X110855303Y-148138508D01*
X110819646Y-148020963D01*
X110761743Y-147912634D01*
X110683818Y-147817682D01*
X110588866Y-147739757D01*
X110480537Y-147681854D01*
X110362992Y-147646197D01*
X110240750Y-147634157D01*
X109753250Y-147634157D01*
X109631008Y-147646197D01*
X109513463Y-147681854D01*
X109405134Y-147739757D01*
X109310182Y-147817682D01*
X109232257Y-147912634D01*
X109174354Y-148020963D01*
X109138697Y-148138508D01*
X109126657Y-148260750D01*
X106875842Y-148260750D01*
X106841999Y-148226908D01*
X106841999Y-145465078D01*
X107931000Y-145465078D01*
X107931000Y-145618922D01*
X107961013Y-145769809D01*
X108019887Y-145911942D01*
X108105358Y-146039859D01*
X108214141Y-146148642D01*
X108342058Y-146234113D01*
X108484191Y-146292987D01*
X108635078Y-146323000D01*
X108788922Y-146323000D01*
X108939809Y-146292987D01*
X108951657Y-146288079D01*
X108951657Y-146944501D01*
X108963817Y-147067962D01*
X108999829Y-147186679D01*
X109058310Y-147296089D01*
X109137012Y-147391988D01*
X109232911Y-147470690D01*
X109342321Y-147529171D01*
X109461038Y-147565183D01*
X109584499Y-147577343D01*
X110284501Y-147577343D01*
X110407962Y-147565183D01*
X110526679Y-147529171D01*
X110636089Y-147470690D01*
X110731988Y-147391988D01*
X110810690Y-147296089D01*
X110869171Y-147186679D01*
X110905183Y-147067962D01*
X110917343Y-146944501D01*
X110917343Y-146044499D01*
X110905183Y-145921038D01*
X110869171Y-145802321D01*
X110810690Y-145692911D01*
X110731988Y-145597012D01*
X110636089Y-145518310D01*
X110526679Y-145459829D01*
X110407962Y-145423817D01*
X110284501Y-145411657D01*
X109584499Y-145411657D01*
X109484336Y-145421522D01*
X109462987Y-145314191D01*
X109404113Y-145172058D01*
X109318642Y-145044141D01*
X109209859Y-144935358D01*
X109081942Y-144849887D01*
X108939809Y-144791013D01*
X108788922Y-144761000D01*
X108635078Y-144761000D01*
X108484191Y-144791013D01*
X108342058Y-144849887D01*
X108214141Y-144935358D01*
X108105358Y-145044141D01*
X108019887Y-145172058D01*
X107961013Y-145314191D01*
X107931000Y-145465078D01*
X106841999Y-145465078D01*
X106841999Y-144834239D01*
X106984078Y-144862500D01*
X107137922Y-144862500D01*
X107288809Y-144832487D01*
X107430942Y-144773613D01*
X107558859Y-144688142D01*
X107667642Y-144579359D01*
X107753113Y-144451442D01*
X107811987Y-144309309D01*
X107842000Y-144158422D01*
X107842000Y-144004578D01*
X107811987Y-143853691D01*
X107753113Y-143711558D01*
X107667642Y-143583641D01*
X107558859Y-143474858D01*
X107430942Y-143389387D01*
X107288809Y-143330513D01*
X107137922Y-143300500D01*
X106984078Y-143300500D01*
X106841999Y-143328761D01*
X106841999Y-137987000D01*
X109394928Y-137987000D01*
X109407188Y-138111482D01*
X109443498Y-138231180D01*
X109502463Y-138341494D01*
X109581815Y-138438185D01*
X109678506Y-138517537D01*
X109788820Y-138576502D01*
X109908518Y-138612812D01*
X110033000Y-138625072D01*
X110347250Y-138622000D01*
X110506000Y-138463250D01*
X110506000Y-137414000D01*
X109556750Y-137414000D01*
X109398000Y-137572750D01*
X109394928Y-137987000D01*
X106841999Y-137987000D01*
X106841999Y-137916552D01*
X107947203Y-136811349D01*
X107966507Y-136795507D01*
X107982350Y-136776202D01*
X108029738Y-136718459D01*
X108076725Y-136630555D01*
X108105658Y-136535173D01*
X108115428Y-136435980D01*
X108105658Y-136336787D01*
X108097778Y-136310810D01*
X108076725Y-136241405D01*
X108029738Y-136153501D01*
X107982350Y-136095758D01*
X107982349Y-136095757D01*
X107966507Y-136076453D01*
X107947202Y-136060610D01*
X106610876Y-134724285D01*
X106595027Y-134704973D01*
X106517979Y-134641741D01*
X106430075Y-134594755D01*
X106334693Y-134565822D01*
X106260354Y-134558500D01*
X106260346Y-134558500D01*
X106235500Y-134556053D01*
X106210654Y-134558500D01*
X105815180Y-134558500D01*
X103488180Y-132231501D01*
X106475100Y-132231501D01*
X110194101Y-135950503D01*
X110033000Y-135948928D01*
X109908518Y-135961188D01*
X109788820Y-135997498D01*
X109678506Y-136056463D01*
X109581815Y-136135815D01*
X109502463Y-136232506D01*
X109443498Y-136342820D01*
X109407188Y-136462518D01*
X109394928Y-136587000D01*
X109398000Y-137001250D01*
X109556750Y-137160000D01*
X110506000Y-137160000D01*
X110506000Y-137140000D01*
X110760000Y-137140000D01*
X110760000Y-137160000D01*
X110780000Y-137160000D01*
X110780000Y-137414000D01*
X110760000Y-137414000D01*
X110760000Y-138463250D01*
X110918750Y-138622000D01*
X111233000Y-138625072D01*
X111357482Y-138612812D01*
X111477180Y-138576502D01*
X111587494Y-138517537D01*
X111684185Y-138438185D01*
X111763537Y-138341494D01*
X111822502Y-138231180D01*
X111836436Y-138185246D01*
X111931411Y-138263190D01*
X112040821Y-138321671D01*
X112159538Y-138357683D01*
X112269001Y-138368464D01*
X112269000Y-138659172D01*
X112250311Y-138661013D01*
X112178492Y-138682799D01*
X112112304Y-138718178D01*
X112054289Y-138765789D01*
X112006678Y-138823804D01*
X111971299Y-138889992D01*
X111949513Y-138961811D01*
X111942157Y-139036500D01*
X111942157Y-140236500D01*
X111949513Y-140311189D01*
X111971299Y-140383008D01*
X112006678Y-140449196D01*
X112054289Y-140507211D01*
X112112304Y-140554822D01*
X112178492Y-140590201D01*
X112250311Y-140611987D01*
X112325000Y-140619343D01*
X113225000Y-140619343D01*
X113299689Y-140611987D01*
X113371508Y-140590201D01*
X113437696Y-140554822D01*
X113495711Y-140507211D01*
X113543322Y-140449196D01*
X113578701Y-140383008D01*
X113600487Y-140311189D01*
X113607843Y-140236500D01*
X113607843Y-139036500D01*
X113600487Y-138961811D01*
X113578701Y-138889992D01*
X113543322Y-138823804D01*
X113495711Y-138765789D01*
X113437696Y-138718178D01*
X113371508Y-138682799D01*
X113299689Y-138661013D01*
X113281000Y-138659172D01*
X113281000Y-138291834D01*
X113334589Y-138263190D01*
X113430488Y-138184488D01*
X113509190Y-138088589D01*
X113567671Y-137979179D01*
X113603683Y-137860462D01*
X113615843Y-137737001D01*
X113615843Y-136836999D01*
X113603683Y-136713538D01*
X113567671Y-136594821D01*
X113509190Y-136485411D01*
X113430488Y-136389512D01*
X113334589Y-136310810D01*
X113225179Y-136252329D01*
X113106462Y-136216317D01*
X112983001Y-136204157D01*
X112282999Y-136204157D01*
X112159538Y-136216317D01*
X112040821Y-136252329D01*
X111966719Y-136291937D01*
X111059659Y-135384877D01*
X111233000Y-135386572D01*
X111357482Y-135374312D01*
X111477180Y-135338002D01*
X111587494Y-135279037D01*
X111684185Y-135199685D01*
X111763537Y-135102994D01*
X111822502Y-134992680D01*
X111836436Y-134946746D01*
X111931411Y-135024690D01*
X112040821Y-135083171D01*
X112159538Y-135119183D01*
X112282999Y-135131343D01*
X112983001Y-135131343D01*
X113106462Y-135119183D01*
X113225179Y-135083171D01*
X113334589Y-135024690D01*
X113430488Y-134945988D01*
X113509190Y-134850089D01*
X113567671Y-134740679D01*
X113603683Y-134621962D01*
X113615843Y-134498501D01*
X113615843Y-134098578D01*
X114344500Y-134098578D01*
X114344500Y-134252422D01*
X114374513Y-134403309D01*
X114433387Y-134545442D01*
X114518858Y-134673359D01*
X114627641Y-134782142D01*
X114755558Y-134867613D01*
X114897691Y-134926487D01*
X115048578Y-134956500D01*
X115202422Y-134956500D01*
X115353309Y-134926487D01*
X115495442Y-134867613D01*
X115623359Y-134782142D01*
X115732142Y-134673359D01*
X115817613Y-134545442D01*
X115876487Y-134403309D01*
X115906500Y-134252422D01*
X115906500Y-134098578D01*
X115876487Y-133947691D01*
X115817613Y-133805558D01*
X115732142Y-133677641D01*
X115623359Y-133568858D01*
X115495442Y-133483387D01*
X115353309Y-133424513D01*
X115202422Y-133394500D01*
X115048578Y-133394500D01*
X114897691Y-133424513D01*
X114755558Y-133483387D01*
X114627641Y-133568858D01*
X114518858Y-133677641D01*
X114433387Y-133805558D01*
X114374513Y-133947691D01*
X114344500Y-134098578D01*
X113615843Y-134098578D01*
X113615843Y-133598499D01*
X113603683Y-133475038D01*
X113567671Y-133356321D01*
X113509190Y-133246911D01*
X113430488Y-133151012D01*
X113334589Y-133072310D01*
X113225179Y-133013829D01*
X113182063Y-133000750D01*
X113225179Y-132987671D01*
X113334589Y-132929190D01*
X113430488Y-132850488D01*
X113509190Y-132754589D01*
X113567671Y-132645179D01*
X113603683Y-132526462D01*
X113615843Y-132403001D01*
X113615843Y-131502999D01*
X113603683Y-131379538D01*
X113567671Y-131260821D01*
X113509190Y-131151411D01*
X113430488Y-131055512D01*
X113334589Y-130976810D01*
X113225179Y-130918329D01*
X113106462Y-130882317D01*
X112983001Y-130870157D01*
X112282999Y-130870157D01*
X112159538Y-130882317D01*
X112040821Y-130918329D01*
X111931411Y-130976810D01*
X111836436Y-131054754D01*
X111822502Y-131008820D01*
X111763537Y-130898506D01*
X111684185Y-130801815D01*
X111587494Y-130722463D01*
X111477180Y-130663498D01*
X111357482Y-130627188D01*
X111233000Y-130614928D01*
X110918750Y-130618000D01*
X110760000Y-130776750D01*
X110760000Y-131826000D01*
X110780000Y-131826000D01*
X110780000Y-132080000D01*
X110760000Y-132080000D01*
X110760000Y-133921500D01*
X110780000Y-133921500D01*
X110780000Y-134175500D01*
X110760000Y-134175500D01*
X110760000Y-134195500D01*
X110506000Y-134195500D01*
X110506000Y-134175500D01*
X110486000Y-134175500D01*
X110486000Y-133921500D01*
X110506000Y-133921500D01*
X110506000Y-132080000D01*
X109556750Y-132080000D01*
X109398000Y-132238750D01*
X109394928Y-132653000D01*
X109407188Y-132777482D01*
X109443498Y-132897180D01*
X109498858Y-133000750D01*
X109443498Y-133104320D01*
X109407188Y-133224018D01*
X109394928Y-133348500D01*
X109397705Y-133722923D01*
X107060067Y-131385286D01*
X107044218Y-131365974D01*
X106967170Y-131302742D01*
X106879266Y-131255756D01*
X106870181Y-131253000D01*
X109394928Y-131253000D01*
X109398000Y-131667250D01*
X109556750Y-131826000D01*
X110506000Y-131826000D01*
X110506000Y-130776750D01*
X110347250Y-130618000D01*
X110033000Y-130614928D01*
X109908518Y-130627188D01*
X109788820Y-130663498D01*
X109678506Y-130722463D01*
X109581815Y-130801815D01*
X109502463Y-130898506D01*
X109443498Y-131008820D01*
X109407188Y-131128518D01*
X109394928Y-131253000D01*
X106870181Y-131253000D01*
X106783884Y-131226823D01*
X106709545Y-131219501D01*
X106709537Y-131219501D01*
X106684691Y-131217054D01*
X106666109Y-131218884D01*
X107997747Y-129887247D01*
X108024513Y-130021809D01*
X108083387Y-130163942D01*
X108168858Y-130291859D01*
X108277641Y-130400642D01*
X108405558Y-130486113D01*
X108547691Y-130544987D01*
X108698578Y-130575000D01*
X108852422Y-130575000D01*
X109003309Y-130544987D01*
X109145442Y-130486113D01*
X109273359Y-130400642D01*
X109382142Y-130291859D01*
X109467613Y-130163942D01*
X109526487Y-130021809D01*
X109556500Y-129870922D01*
X109556500Y-129717078D01*
X109526487Y-129566191D01*
X109510592Y-129527818D01*
X109576908Y-129507701D01*
X109643096Y-129472322D01*
X109701111Y-129424711D01*
X109748722Y-129366696D01*
X109784101Y-129300508D01*
X109805887Y-129228689D01*
X109813243Y-129154000D01*
X109813243Y-128836843D01*
X112100400Y-128836843D01*
X112175089Y-128829487D01*
X112246908Y-128807701D01*
X112313096Y-128772322D01*
X112371111Y-128724711D01*
X112418722Y-128666696D01*
X112454101Y-128600508D01*
X112475887Y-128528689D01*
X112483243Y-128454000D01*
X112483243Y-125534999D01*
X113515655Y-125534999D01*
X113540501Y-125537446D01*
X113565347Y-125534999D01*
X113565355Y-125534999D01*
X113639694Y-125527677D01*
X113735076Y-125498744D01*
X113822980Y-125451758D01*
X113900028Y-125388526D01*
X113915877Y-125369214D01*
X114806092Y-124479000D01*
X114948422Y-124479000D01*
X115099309Y-124448987D01*
X115241442Y-124390113D01*
X115369359Y-124304642D01*
X115478142Y-124195859D01*
X115563613Y-124067942D01*
X115622487Y-123925809D01*
X115652500Y-123774922D01*
X115652500Y-123621078D01*
X115622487Y-123470191D01*
X115563613Y-123328058D01*
X115478142Y-123200141D01*
X115369359Y-123091358D01*
X115359093Y-123084499D01*
X115529220Y-122914372D01*
X115548527Y-122898527D01*
X115611759Y-122821479D01*
X115658745Y-122733575D01*
X115677471Y-122671843D01*
X115689000Y-122671843D01*
X115763689Y-122664487D01*
X115814000Y-122649225D01*
X115864311Y-122664487D01*
X115939000Y-122671843D01*
X115983001Y-122671843D01*
X115983000Y-123902908D01*
X114936909Y-124949000D01*
X114794578Y-124949000D01*
X114643691Y-124979013D01*
X114501558Y-125037887D01*
X114373641Y-125123358D01*
X114264858Y-125232141D01*
X114179387Y-125360058D01*
X114120513Y-125502191D01*
X114090500Y-125653078D01*
X114090500Y-125806922D01*
X114120513Y-125957809D01*
X114179387Y-126099942D01*
X114264858Y-126227859D01*
X114373641Y-126336642D01*
X114501558Y-126422113D01*
X114643691Y-126480987D01*
X114794578Y-126511000D01*
X114948422Y-126511000D01*
X115099309Y-126480987D01*
X115241442Y-126422113D01*
X115369359Y-126336642D01*
X115478142Y-126227859D01*
X115563613Y-126099942D01*
X115622487Y-125957809D01*
X115652500Y-125806922D01*
X115652500Y-125664591D01*
X116829220Y-124487872D01*
X116848527Y-124472027D01*
X116911759Y-124394979D01*
X116958745Y-124307075D01*
X116987106Y-124213578D01*
X116987678Y-124211694D01*
X116989918Y-124188948D01*
X116995000Y-124137354D01*
X116995000Y-124137347D01*
X116997447Y-124112501D01*
X116995000Y-124087655D01*
X116995000Y-122509792D01*
X117018893Y-122493827D01*
X117076908Y-122446216D01*
X117146216Y-122376908D01*
X117193827Y-122318893D01*
X117248283Y-122237394D01*
X117283663Y-122171204D01*
X117297943Y-122136729D01*
X117297943Y-153645657D01*
G04 #@! TA.AperFunction,Conductor*
D27*
G36*
X117297943Y-153645657D02*
G01*
X116663500Y-153645657D01*
X116588811Y-153653013D01*
X116516992Y-153674799D01*
X116450804Y-153710178D01*
X116392789Y-153757789D01*
X116345178Y-153815804D01*
X116309799Y-153881992D01*
X116288013Y-153953811D01*
X116280657Y-154028500D01*
X116280657Y-154515068D01*
X116084501Y-154318912D01*
X116084501Y-153131855D01*
X116086949Y-153107001D01*
X116077179Y-153007808D01*
X116048246Y-152912426D01*
X116001260Y-152824522D01*
X115938028Y-152747474D01*
X115918721Y-152731629D01*
X115291853Y-152104762D01*
X115298078Y-152106000D01*
X115451922Y-152106000D01*
X115602809Y-152075987D01*
X115744942Y-152017113D01*
X115872859Y-151931642D01*
X115981642Y-151822859D01*
X116067113Y-151694942D01*
X116125987Y-151552809D01*
X116156000Y-151401922D01*
X116156000Y-151248078D01*
X116125987Y-151097191D01*
X116067113Y-150955058D01*
X115981642Y-150827141D01*
X115872859Y-150718358D01*
X115744942Y-150632887D01*
X115602809Y-150574013D01*
X115451922Y-150544000D01*
X115298078Y-150544000D01*
X115147191Y-150574013D01*
X115005058Y-150632887D01*
X114877141Y-150718358D01*
X114768358Y-150827141D01*
X114682887Y-150955058D01*
X114624013Y-151097191D01*
X114594000Y-151248078D01*
X114594000Y-151401922D01*
X114595238Y-151408147D01*
X114425000Y-151237909D01*
X114425000Y-151030001D01*
X114525642Y-150929359D01*
X114611113Y-150801442D01*
X114669987Y-150659309D01*
X114700000Y-150508422D01*
X114700000Y-150354578D01*
X114669987Y-150203691D01*
X114611113Y-150061558D01*
X114525642Y-149933641D01*
X114416859Y-149824858D01*
X114288942Y-149739387D01*
X114146809Y-149680513D01*
X113995922Y-149650500D01*
X113842078Y-149650500D01*
X113691191Y-149680513D01*
X113549058Y-149739387D01*
X113421141Y-149824858D01*
X113312358Y-149933641D01*
X113226887Y-150061558D01*
X113168013Y-150203691D01*
X113145475Y-150317000D01*
X113097232Y-150317000D01*
X113075987Y-150210191D01*
X113017113Y-150068058D01*
X112931642Y-149940141D01*
X112822859Y-149831358D01*
X112694942Y-149745887D01*
X112552809Y-149687013D01*
X112488309Y-149674183D01*
X112558818Y-149616318D01*
X112636743Y-149521366D01*
X112694646Y-149413037D01*
X112730303Y-149295492D01*
X112742343Y-149173250D01*
X112742343Y-148260750D01*
X112730303Y-148138508D01*
X112694646Y-148020963D01*
X112636743Y-147912634D01*
X112558818Y-147817682D01*
X112463866Y-147739757D01*
X112378000Y-147693861D01*
X112378000Y-147568134D01*
X112407962Y-147565183D01*
X112526679Y-147529171D01*
X112636089Y-147470690D01*
X112731988Y-147391988D01*
X112810690Y-147296089D01*
X112869171Y-147186679D01*
X112905183Y-147067962D01*
X112917343Y-146944501D01*
X112917343Y-146351579D01*
X112929191Y-146356487D01*
X113080078Y-146386500D01*
X113233922Y-146386500D01*
X113384809Y-146356487D01*
X113526942Y-146297613D01*
X113654859Y-146212142D01*
X113749500Y-146117501D01*
X113749499Y-147560784D01*
X113627691Y-147585013D01*
X113485558Y-147643887D01*
X113357641Y-147729358D01*
X113248858Y-147838141D01*
X113163387Y-147966058D01*
X113104513Y-148108191D01*
X113074500Y-148259078D01*
X113074500Y-148412922D01*
X113104513Y-148563809D01*
X113163387Y-148705942D01*
X113248858Y-148833859D01*
X113357641Y-148942642D01*
X113485558Y-149028113D01*
X113627691Y-149086987D01*
X113778578Y-149117000D01*
X113932422Y-149117000D01*
X114083309Y-149086987D01*
X114225442Y-149028113D01*
X114353359Y-148942642D01*
X114462142Y-148833859D01*
X114547613Y-148705942D01*
X114606487Y-148563809D01*
X114636500Y-148412922D01*
X114636500Y-148269362D01*
X114678258Y-148218480D01*
X114725244Y-148130576D01*
X114754177Y-148035194D01*
X114761499Y-147960855D01*
X114761499Y-147960848D01*
X114763946Y-147936002D01*
X114761499Y-147911156D01*
X114761499Y-145655851D01*
X114763947Y-145630997D01*
X114754177Y-145531804D01*
X114725244Y-145436422D01*
X114718506Y-145423817D01*
X114678258Y-145348518D01*
X114615026Y-145271470D01*
X114595719Y-145255625D01*
X112954378Y-143614285D01*
X112938529Y-143594973D01*
X112861481Y-143531741D01*
X112773577Y-143484755D01*
X112678195Y-143455822D01*
X112603856Y-143448500D01*
X112603848Y-143448500D01*
X112579002Y-143446053D01*
X112554156Y-143448500D01*
X109580072Y-143448500D01*
X108562990Y-142431419D01*
X108562990Y-141263101D01*
X109206749Y-140619343D01*
X109925000Y-140619343D01*
X109999689Y-140611987D01*
X110071508Y-140590201D01*
X110137696Y-140554822D01*
X110195711Y-140507211D01*
X110243322Y-140449196D01*
X110278701Y-140383008D01*
X110300487Y-140311189D01*
X110307843Y-140236500D01*
X110307843Y-139036500D01*
X110300487Y-138961811D01*
X110278701Y-138889992D01*
X110243322Y-138823804D01*
X110195711Y-138765789D01*
X110137696Y-138718178D01*
X110071508Y-138682799D01*
X109999689Y-138661013D01*
X109925000Y-138653657D01*
X109025000Y-138653657D01*
X108950311Y-138661013D01*
X108878492Y-138682799D01*
X108812304Y-138718178D01*
X108754289Y-138765789D01*
X108706678Y-138823804D01*
X108671299Y-138889992D01*
X108649513Y-138961811D01*
X108642157Y-139036500D01*
X108642157Y-139752751D01*
X107716770Y-140678138D01*
X107697464Y-140693983D01*
X107634232Y-140771031D01*
X107609117Y-140818018D01*
X107587245Y-140858936D01*
X107558312Y-140954318D01*
X107548543Y-141053510D01*
X107550991Y-141078366D01*
X107550990Y-142616163D01*
X107548543Y-142641010D01*
X107550990Y-142665856D01*
X107550990Y-142665863D01*
X107558312Y-142740202D01*
X107587245Y-142835584D01*
X107634231Y-142923489D01*
X107697463Y-143000537D01*
X107716775Y-143016386D01*
X108995108Y-144294720D01*
X109010953Y-144314027D01*
X109088001Y-144377259D01*
X109175905Y-144424245D01*
X109249087Y-144446444D01*
X109271286Y-144453178D01*
X109281174Y-144454152D01*
X109345626Y-144460500D01*
X109345633Y-144460500D01*
X109370479Y-144462947D01*
X109395325Y-144460500D01*
X112369411Y-144460500D01*
X112811976Y-144903065D01*
X112787058Y-144913387D01*
X112659141Y-144998858D01*
X112550358Y-145107641D01*
X112464887Y-145235558D01*
X112406013Y-145377691D01*
X112397052Y-145422742D01*
X112284501Y-145411657D01*
X111584499Y-145411657D01*
X111461038Y-145423817D01*
X111342321Y-145459829D01*
X111232911Y-145518310D01*
X111137012Y-145597012D01*
X111058310Y-145692911D01*
X110999829Y-145802321D01*
X110963817Y-145921038D01*
X110951657Y-146044499D01*
X110951657Y-146944501D01*
X110963817Y-147067962D01*
X110999829Y-147186679D01*
X111058310Y-147296089D01*
X111137012Y-147391988D01*
X111232911Y-147470690D01*
X111342321Y-147529171D01*
X111366001Y-147536354D01*
X111366000Y-147693860D01*
X111280134Y-147739757D01*
X111185182Y-147817682D01*
X111107257Y-147912634D01*
X111049354Y-148020963D01*
X111013697Y-148138508D01*
X111001657Y-148260750D01*
X111001657Y-149173250D01*
X111013697Y-149295492D01*
X111049354Y-149413037D01*
X111107257Y-149521366D01*
X111185182Y-149616318D01*
X111280134Y-149694243D01*
X111388463Y-149752146D01*
X111506008Y-149787803D01*
X111628250Y-149799843D01*
X111874307Y-149799843D01*
X111827141Y-149831358D01*
X111718358Y-149940141D01*
X111632887Y-150068058D01*
X111574013Y-150210191D01*
X111550182Y-150330000D01*
X111448078Y-150330000D01*
X111297191Y-150360013D01*
X111155058Y-150418887D01*
X111027141Y-150504358D01*
X110918358Y-150613141D01*
X110832887Y-150741058D01*
X110774013Y-150883191D01*
X110744000Y-151034078D01*
X110744000Y-151187922D01*
X110774013Y-151338809D01*
X110832887Y-151480942D01*
X110918358Y-151608859D01*
X111027141Y-151717642D01*
X111155058Y-151803113D01*
X111297191Y-151861987D01*
X111448078Y-151892000D01*
X111601922Y-151892000D01*
X111752809Y-151861987D01*
X111894942Y-151803113D01*
X112022859Y-151717642D01*
X112131642Y-151608859D01*
X112217113Y-151480942D01*
X112275987Y-151338809D01*
X112299818Y-151219000D01*
X112352768Y-151219000D01*
X112374013Y-151325809D01*
X112432887Y-151467942D01*
X112518358Y-151595859D01*
X112619001Y-151696502D01*
X112619000Y-155778910D01*
X108239380Y-160158531D01*
X108220073Y-160174376D01*
X108156841Y-160251424D01*
X108134054Y-160294055D01*
X108109854Y-160339329D01*
X108080921Y-160434711D01*
X108071152Y-160533903D01*
X108073600Y-160558759D01*
X108073599Y-167260753D01*
X108071152Y-167285599D01*
X108073599Y-167310445D01*
X108073599Y-167310452D01*
X108080921Y-167384791D01*
X108109854Y-167480173D01*
X108156840Y-167568078D01*
X108220072Y-167645126D01*
X108239384Y-167660975D01*
X108279224Y-167700815D01*
X108295073Y-167720127D01*
X108372121Y-167783359D01*
X108460025Y-167830345D01*
X108521757Y-167849071D01*
X108521757Y-167860600D01*
X108529113Y-167935289D01*
X108550899Y-168007108D01*
X108586278Y-168073296D01*
X108633889Y-168131311D01*
X108691904Y-168178922D01*
X108758092Y-168214301D01*
X108829911Y-168236087D01*
X108904600Y-168243443D01*
X111873602Y-168243443D01*
X111873602Y-169017757D01*
X108904600Y-169017757D01*
X108829911Y-169025113D01*
X108758092Y-169046899D01*
X108691904Y-169082278D01*
X108633889Y-169129889D01*
X108586278Y-169187904D01*
X108550899Y-169254092D01*
X108529113Y-169325911D01*
X108521757Y-169400600D01*
X108521757Y-170219601D01*
X102437343Y-170219601D01*
X102437343Y-168182078D01*
X102708000Y-168182078D01*
X102708000Y-168335922D01*
X102738013Y-168486809D01*
X102796887Y-168628942D01*
X102882358Y-168756859D01*
X102991141Y-168865642D01*
X103119058Y-168951113D01*
X103261191Y-169009987D01*
X103412078Y-169040000D01*
X103565922Y-169040000D01*
X103716809Y-169009987D01*
X103858942Y-168951113D01*
X103986859Y-168865642D01*
X104095642Y-168756859D01*
X104181113Y-168628942D01*
X104227250Y-168517559D01*
X104273387Y-168628942D01*
X104358858Y-168756859D01*
X104467641Y-168865642D01*
X104595558Y-168951113D01*
X104737691Y-169009987D01*
X104888578Y-169040000D01*
X105042422Y-169040000D01*
X105193309Y-169009987D01*
X105335442Y-168951113D01*
X105463359Y-168865642D01*
X105572142Y-168756859D01*
X105657613Y-168628942D01*
X105716487Y-168486809D01*
X105746500Y-168335922D01*
X105746500Y-168182078D01*
X105716487Y-168031191D01*
X105657613Y-167889058D01*
X105572142Y-167761141D01*
X105463359Y-167652358D01*
X105335442Y-167566887D01*
X105193309Y-167508013D01*
X105042422Y-167478000D01*
X104888578Y-167478000D01*
X104737691Y-167508013D01*
X104595558Y-167566887D01*
X104467641Y-167652358D01*
X104358858Y-167761141D01*
X104273387Y-167889058D01*
X104227250Y-168000441D01*
X104181113Y-167889058D01*
X104095642Y-167761141D01*
X103986859Y-167652358D01*
X103858942Y-167566887D01*
X103716809Y-167508013D01*
X103565922Y-167478000D01*
X103412078Y-167478000D01*
X103261191Y-167508013D01*
X103119058Y-167566887D01*
X102991141Y-167652358D01*
X102882358Y-167761141D01*
X102796887Y-167889058D01*
X102738013Y-168031191D01*
X102708000Y-168182078D01*
X102437343Y-168182078D01*
X102437343Y-166206000D01*
X102429987Y-166131311D01*
X102408201Y-166059492D01*
X102372822Y-165993304D01*
X102325211Y-165935289D01*
X102267196Y-165887678D01*
X102201008Y-165852299D01*
X102129189Y-165830513D01*
X102054500Y-165823157D01*
X97897342Y-165823157D01*
X97844343Y-165770158D01*
X97650913Y-165640912D01*
X97435985Y-165551886D01*
X97207818Y-165506500D01*
X96975182Y-165506500D01*
X96747015Y-165551886D01*
X96532087Y-165640912D01*
X96338657Y-165770158D01*
X96174158Y-165934657D01*
X96044912Y-166128087D01*
X95955886Y-166343015D01*
X95910500Y-166571182D01*
X95910500Y-166803818D01*
X95955886Y-167031985D01*
X96044912Y-167246913D01*
X96174158Y-167440343D01*
X96338657Y-167604842D01*
X96532087Y-167734088D01*
X96571657Y-167750478D01*
X96571657Y-171245780D01*
X90270443Y-171245780D01*
X90207152Y-171242584D01*
X90156256Y-171234816D01*
X90107368Y-171222246D01*
X90060514Y-171205097D01*
X90015814Y-171183564D01*
X89973546Y-171157886D01*
X89933940Y-171128269D01*
X89897358Y-171095022D01*
X89864108Y-171058437D01*
X89834499Y-171018841D01*
X89808815Y-170976564D01*
X89787283Y-170931867D01*
X89770135Y-170885017D01*
X89757564Y-170836126D01*
X89749797Y-170785237D01*
X89746601Y-170721925D01*
X89746601Y-155041901D01*
X90223500Y-155041901D01*
X90223500Y-156870099D01*
X90580163Y-158663168D01*
X91279784Y-160352202D01*
X92295476Y-161872293D01*
X93588207Y-163165024D01*
X95108298Y-164180716D01*
X96797332Y-164880337D01*
X98590401Y-165237000D01*
X100418599Y-165237000D01*
X102211668Y-164880337D01*
X103900702Y-164180716D01*
X105420793Y-163165024D01*
X106713524Y-161872293D01*
X107729216Y-160352202D01*
X108428837Y-158663168D01*
X108785500Y-156870099D01*
X108785500Y-155041901D01*
X108428837Y-153248832D01*
X107729216Y-151559798D01*
X106713524Y-150039707D01*
X105420793Y-148746976D01*
X103900702Y-147731284D01*
X102211668Y-147031663D01*
X100418599Y-146675000D01*
X98590401Y-146675000D01*
X96797332Y-147031663D01*
X95108298Y-147731284D01*
X93588207Y-148746976D01*
X92295476Y-150039707D01*
X91279784Y-151559798D01*
X90580163Y-153248832D01*
X90223500Y-155041901D01*
X89746601Y-155041901D01*
X89746601Y-141525578D01*
X91654500Y-141525578D01*
X91654500Y-141679422D01*
X91684513Y-141830309D01*
X91743387Y-141972442D01*
X91828858Y-142100359D01*
X91937641Y-142209142D01*
X92065558Y-142294613D01*
X92207691Y-142353487D01*
X92358578Y-142383500D01*
X92512422Y-142383500D01*
X92663309Y-142353487D01*
X92805442Y-142294613D01*
X92933359Y-142209142D01*
X93042142Y-142100359D01*
X93127613Y-141972442D01*
X93186487Y-141830309D01*
X93216500Y-141679422D01*
X93216500Y-141525578D01*
X93186487Y-141374691D01*
X93127613Y-141232558D01*
X93042142Y-141104641D01*
X92933359Y-140995858D01*
X92805442Y-140910387D01*
X92663309Y-140851513D01*
X92512422Y-140821500D01*
X92358578Y-140821500D01*
X92207691Y-140851513D01*
X92065558Y-140910387D01*
X91937641Y-140995858D01*
X91828858Y-141104641D01*
X91743387Y-141232558D01*
X91684513Y-141374691D01*
X91654500Y-141525578D01*
X89746601Y-141525578D01*
X89746601Y-140606000D01*
X96571657Y-140606000D01*
X96571657Y-145706000D01*
X96579013Y-145780689D01*
X96600799Y-145852508D01*
X96636178Y-145918696D01*
X96683789Y-145976711D01*
X96741804Y-146024322D01*
X96807992Y-146059701D01*
X96879811Y-146081487D01*
X96954500Y-146088843D01*
X102054500Y-146088843D01*
X102129189Y-146081487D01*
X102201008Y-146059701D01*
X102267196Y-146024322D01*
X102325211Y-145976711D01*
X102372822Y-145918696D01*
X102408201Y-145852508D01*
X102429987Y-145780689D01*
X102437343Y-145706000D01*
X102437343Y-140606000D01*
X102429987Y-140531311D01*
X102408201Y-140459492D01*
X102372822Y-140393304D01*
X102325211Y-140335289D01*
X102267196Y-140287678D01*
X102201008Y-140252299D01*
X102129189Y-140230513D01*
X102054500Y-140223157D01*
X101145710Y-140223157D01*
X101056842Y-140090157D01*
X100892343Y-139925658D01*
X100698913Y-139796412D01*
X100483985Y-139707386D01*
X100255818Y-139662000D01*
X100023182Y-139662000D01*
X99795015Y-139707386D01*
X99580087Y-139796412D01*
X99386657Y-139925658D01*
X99222158Y-140090157D01*
X99133290Y-140223157D01*
X96954500Y-140223157D01*
X96879811Y-140230513D01*
X96807992Y-140252299D01*
X96741804Y-140287678D01*
X96683789Y-140335289D01*
X96636178Y-140393304D01*
X96600799Y-140459492D01*
X96579013Y-140531311D01*
X96571657Y-140606000D01*
X89746601Y-140606000D01*
X89746601Y-132638078D01*
X90341500Y-132638078D01*
X90341500Y-132791922D01*
X90371513Y-132942809D01*
X90430387Y-133084942D01*
X90515858Y-133212859D01*
X90624641Y-133321642D01*
X90752558Y-133407113D01*
X90894691Y-133465987D01*
X91045578Y-133496000D01*
X91199422Y-133496000D01*
X91350309Y-133465987D01*
X91492442Y-133407113D01*
X91620359Y-133321642D01*
X91729142Y-133212859D01*
X91814613Y-133084942D01*
X91873487Y-132942809D01*
X91903500Y-132791922D01*
X91903500Y-132638078D01*
X91873487Y-132487191D01*
X91814613Y-132345058D01*
X91729142Y-132217141D01*
X91620359Y-132108358D01*
X91492442Y-132022887D01*
X91350309Y-131964013D01*
X91199422Y-131934000D01*
X91045578Y-131934000D01*
X90894691Y-131964013D01*
X90752558Y-132022887D01*
X90624641Y-132108358D01*
X90515858Y-132217141D01*
X90430387Y-132345058D01*
X90371513Y-132487191D01*
X90341500Y-132638078D01*
X89746601Y-132638078D01*
X89746601Y-126587884D01*
X89749411Y-126590190D01*
X89858821Y-126648671D01*
X89977538Y-126684683D01*
X90100999Y-126696843D01*
X91001001Y-126696843D01*
X91124462Y-126684683D01*
X91243179Y-126648671D01*
X91352589Y-126590190D01*
X91448488Y-126511488D01*
X91527190Y-126415589D01*
X91585671Y-126306179D01*
X91587697Y-126299500D01*
X91920999Y-126299500D01*
X92021641Y-126400142D01*
X92149558Y-126485613D01*
X92291691Y-126544487D01*
X92382805Y-126562611D01*
X92416411Y-126590190D01*
X92525821Y-126648671D01*
X92644538Y-126684683D01*
X92767999Y-126696843D01*
X93668001Y-126696843D01*
X93791462Y-126684683D01*
X93910179Y-126648671D01*
X94019589Y-126590190D01*
X94115488Y-126511488D01*
X94194190Y-126415589D01*
X94252671Y-126306179D01*
X94288683Y-126187462D01*
X94300843Y-126064001D01*
X94300843Y-125363999D01*
X94294499Y-125299590D01*
X94364123Y-125369214D01*
X94379972Y-125388526D01*
X94457020Y-125451758D01*
X94544924Y-125498744D01*
X94577557Y-125508643D01*
X94577557Y-128454000D01*
X94584913Y-128528689D01*
X94606699Y-128600508D01*
X94642078Y-128666696D01*
X94689689Y-128724711D01*
X94747704Y-128772322D01*
X94813892Y-128807701D01*
X94885711Y-128829487D01*
X94960400Y-128836843D01*
X97247557Y-128836843D01*
X97247557Y-129154000D01*
X97254913Y-129228689D01*
X97276699Y-129300508D01*
X97312078Y-129366696D01*
X97359689Y-129424711D01*
X97417704Y-129472322D01*
X97483892Y-129507701D01*
X97555711Y-129529487D01*
X97630400Y-129536843D01*
X97774400Y-129536843D01*
X97774401Y-133313353D01*
X97665141Y-133386358D01*
X97556358Y-133495141D01*
X97470887Y-133623058D01*
X97412013Y-133765191D01*
X97382000Y-133916078D01*
X97382000Y-134069922D01*
X97412013Y-134220809D01*
X97470887Y-134362942D01*
X97556358Y-134490859D01*
X97665141Y-134599642D01*
X97793058Y-134685113D01*
X97935191Y-134743987D01*
X98086078Y-134774000D01*
X98239922Y-134774000D01*
X98390809Y-134743987D01*
X98532942Y-134685113D01*
X98660859Y-134599642D01*
X98769642Y-134490859D01*
X98855113Y-134362942D01*
X98913987Y-134220809D01*
X98944000Y-134069922D01*
X98944000Y-133916078D01*
X98913987Y-133765191D01*
X98855113Y-133623058D01*
X98786400Y-133520221D01*
X98786400Y-130235991D01*
X102152500Y-133602092D01*
X102152500Y-133744422D01*
X102182513Y-133895309D01*
X102241387Y-134037442D01*
X102326858Y-134165359D01*
X102435641Y-134274142D01*
X102563558Y-134359613D01*
X102705691Y-134418487D01*
X102856578Y-134448500D01*
X103010422Y-134448500D01*
X103161309Y-134418487D01*
X103303442Y-134359613D01*
X103431359Y-134274142D01*
X103540142Y-134165359D01*
X103625613Y-134037442D01*
X103684487Y-133895309D01*
X103690513Y-133865016D01*
X105230216Y-135404720D01*
X105246061Y-135424027D01*
X105323109Y-135487259D01*
X105411013Y-135534245D01*
X105506395Y-135563178D01*
X105605588Y-135572948D01*
X105630442Y-135570500D01*
X106025909Y-135570500D01*
X106891388Y-136435980D01*
X105995784Y-137331585D01*
X105976472Y-137347434D01*
X105913240Y-137424482D01*
X105866254Y-137512387D01*
X105837321Y-137607769D01*
X105829999Y-137682108D01*
X105829999Y-137682115D01*
X105827552Y-137706961D01*
X105829999Y-137731807D01*
X105830000Y-148411643D01*
X105827552Y-148436499D01*
X105837321Y-148535691D01*
X105866254Y-148631073D01*
X105888126Y-148671991D01*
X105913241Y-148718978D01*
X105976473Y-148796026D01*
X105995779Y-148811870D01*
X107266758Y-150082850D01*
X107266763Y-150082854D01*
X108248500Y-151064592D01*
X108248500Y-151206922D01*
X108278513Y-151357809D01*
X108337387Y-151499942D01*
X108422858Y-151627859D01*
X108531641Y-151736642D01*
X108659558Y-151822113D01*
X108801691Y-151880987D01*
X108952578Y-151911000D01*
X109106422Y-151911000D01*
X109257309Y-151880987D01*
X109399442Y-151822113D01*
X109527359Y-151736642D01*
X109636142Y-151627859D01*
X109721613Y-151499942D01*
X109780487Y-151357809D01*
X109810500Y-151206922D01*
X109810500Y-151053078D01*
X109780487Y-150902191D01*
X109721613Y-150760058D01*
X109636142Y-150632141D01*
X109527359Y-150523358D01*
X109399442Y-150437887D01*
X109257309Y-150379013D01*
X109106422Y-150349000D01*
X108964092Y-150349000D01*
X107982354Y-149367263D01*
X107982350Y-149367258D01*
X106875842Y-148260750D01*
X109126657Y-148260750D01*
X109126657Y-149173250D01*
X109138697Y-149295492D01*
X109174354Y-149413037D01*
X109232257Y-149521366D01*
X109310182Y-149616318D01*
X109405134Y-149694243D01*
X109513463Y-149752146D01*
X109631008Y-149787803D01*
X109753250Y-149799843D01*
X110240750Y-149799843D01*
X110362992Y-149787803D01*
X110480537Y-149752146D01*
X110588866Y-149694243D01*
X110683818Y-149616318D01*
X110761743Y-149521366D01*
X110819646Y-149413037D01*
X110855303Y-149295492D01*
X110867343Y-149173250D01*
X110867343Y-148260750D01*
X110855303Y-148138508D01*
X110819646Y-148020963D01*
X110761743Y-147912634D01*
X110683818Y-147817682D01*
X110588866Y-147739757D01*
X110480537Y-147681854D01*
X110362992Y-147646197D01*
X110240750Y-147634157D01*
X109753250Y-147634157D01*
X109631008Y-147646197D01*
X109513463Y-147681854D01*
X109405134Y-147739757D01*
X109310182Y-147817682D01*
X109232257Y-147912634D01*
X109174354Y-148020963D01*
X109138697Y-148138508D01*
X109126657Y-148260750D01*
X106875842Y-148260750D01*
X106841999Y-148226908D01*
X106841999Y-145465078D01*
X107931000Y-145465078D01*
X107931000Y-145618922D01*
X107961013Y-145769809D01*
X108019887Y-145911942D01*
X108105358Y-146039859D01*
X108214141Y-146148642D01*
X108342058Y-146234113D01*
X108484191Y-146292987D01*
X108635078Y-146323000D01*
X108788922Y-146323000D01*
X108939809Y-146292987D01*
X108951657Y-146288079D01*
X108951657Y-146944501D01*
X108963817Y-147067962D01*
X108999829Y-147186679D01*
X109058310Y-147296089D01*
X109137012Y-147391988D01*
X109232911Y-147470690D01*
X109342321Y-147529171D01*
X109461038Y-147565183D01*
X109584499Y-147577343D01*
X110284501Y-147577343D01*
X110407962Y-147565183D01*
X110526679Y-147529171D01*
X110636089Y-147470690D01*
X110731988Y-147391988D01*
X110810690Y-147296089D01*
X110869171Y-147186679D01*
X110905183Y-147067962D01*
X110917343Y-146944501D01*
X110917343Y-146044499D01*
X110905183Y-145921038D01*
X110869171Y-145802321D01*
X110810690Y-145692911D01*
X110731988Y-145597012D01*
X110636089Y-145518310D01*
X110526679Y-145459829D01*
X110407962Y-145423817D01*
X110284501Y-145411657D01*
X109584499Y-145411657D01*
X109484336Y-145421522D01*
X109462987Y-145314191D01*
X109404113Y-145172058D01*
X109318642Y-145044141D01*
X109209859Y-144935358D01*
X109081942Y-144849887D01*
X108939809Y-144791013D01*
X108788922Y-144761000D01*
X108635078Y-144761000D01*
X108484191Y-144791013D01*
X108342058Y-144849887D01*
X108214141Y-144935358D01*
X108105358Y-145044141D01*
X108019887Y-145172058D01*
X107961013Y-145314191D01*
X107931000Y-145465078D01*
X106841999Y-145465078D01*
X106841999Y-144834239D01*
X106984078Y-144862500D01*
X107137922Y-144862500D01*
X107288809Y-144832487D01*
X107430942Y-144773613D01*
X107558859Y-144688142D01*
X107667642Y-144579359D01*
X107753113Y-144451442D01*
X107811987Y-144309309D01*
X107842000Y-144158422D01*
X107842000Y-144004578D01*
X107811987Y-143853691D01*
X107753113Y-143711558D01*
X107667642Y-143583641D01*
X107558859Y-143474858D01*
X107430942Y-143389387D01*
X107288809Y-143330513D01*
X107137922Y-143300500D01*
X106984078Y-143300500D01*
X106841999Y-143328761D01*
X106841999Y-137987000D01*
X109394928Y-137987000D01*
X109407188Y-138111482D01*
X109443498Y-138231180D01*
X109502463Y-138341494D01*
X109581815Y-138438185D01*
X109678506Y-138517537D01*
X109788820Y-138576502D01*
X109908518Y-138612812D01*
X110033000Y-138625072D01*
X110347250Y-138622000D01*
X110506000Y-138463250D01*
X110506000Y-137414000D01*
X109556750Y-137414000D01*
X109398000Y-137572750D01*
X109394928Y-137987000D01*
X106841999Y-137987000D01*
X106841999Y-137916552D01*
X107947203Y-136811349D01*
X107966507Y-136795507D01*
X107982350Y-136776202D01*
X108029738Y-136718459D01*
X108076725Y-136630555D01*
X108105658Y-136535173D01*
X108115428Y-136435980D01*
X108105658Y-136336787D01*
X108097778Y-136310810D01*
X108076725Y-136241405D01*
X108029738Y-136153501D01*
X107982350Y-136095758D01*
X107982349Y-136095757D01*
X107966507Y-136076453D01*
X107947202Y-136060610D01*
X106610876Y-134724285D01*
X106595027Y-134704973D01*
X106517979Y-134641741D01*
X106430075Y-134594755D01*
X106334693Y-134565822D01*
X106260354Y-134558500D01*
X106260346Y-134558500D01*
X106235500Y-134556053D01*
X106210654Y-134558500D01*
X105815180Y-134558500D01*
X103488180Y-132231501D01*
X106475100Y-132231501D01*
X110194101Y-135950503D01*
X110033000Y-135948928D01*
X109908518Y-135961188D01*
X109788820Y-135997498D01*
X109678506Y-136056463D01*
X109581815Y-136135815D01*
X109502463Y-136232506D01*
X109443498Y-136342820D01*
X109407188Y-136462518D01*
X109394928Y-136587000D01*
X109398000Y-137001250D01*
X109556750Y-137160000D01*
X110506000Y-137160000D01*
X110506000Y-137140000D01*
X110760000Y-137140000D01*
X110760000Y-137160000D01*
X110780000Y-137160000D01*
X110780000Y-137414000D01*
X110760000Y-137414000D01*
X110760000Y-138463250D01*
X110918750Y-138622000D01*
X111233000Y-138625072D01*
X111357482Y-138612812D01*
X111477180Y-138576502D01*
X111587494Y-138517537D01*
X111684185Y-138438185D01*
X111763537Y-138341494D01*
X111822502Y-138231180D01*
X111836436Y-138185246D01*
X111931411Y-138263190D01*
X112040821Y-138321671D01*
X112159538Y-138357683D01*
X112269001Y-138368464D01*
X112269000Y-138659172D01*
X112250311Y-138661013D01*
X112178492Y-138682799D01*
X112112304Y-138718178D01*
X112054289Y-138765789D01*
X112006678Y-138823804D01*
X111971299Y-138889992D01*
X111949513Y-138961811D01*
X111942157Y-139036500D01*
X111942157Y-140236500D01*
X111949513Y-140311189D01*
X111971299Y-140383008D01*
X112006678Y-140449196D01*
X112054289Y-140507211D01*
X112112304Y-140554822D01*
X112178492Y-140590201D01*
X112250311Y-140611987D01*
X112325000Y-140619343D01*
X113225000Y-140619343D01*
X113299689Y-140611987D01*
X113371508Y-140590201D01*
X113437696Y-140554822D01*
X113495711Y-140507211D01*
X113543322Y-140449196D01*
X113578701Y-140383008D01*
X113600487Y-140311189D01*
X113607843Y-140236500D01*
X113607843Y-139036500D01*
X113600487Y-138961811D01*
X113578701Y-138889992D01*
X113543322Y-138823804D01*
X113495711Y-138765789D01*
X113437696Y-138718178D01*
X113371508Y-138682799D01*
X113299689Y-138661013D01*
X113281000Y-138659172D01*
X113281000Y-138291834D01*
X113334589Y-138263190D01*
X113430488Y-138184488D01*
X113509190Y-138088589D01*
X113567671Y-137979179D01*
X113603683Y-137860462D01*
X113615843Y-137737001D01*
X113615843Y-136836999D01*
X113603683Y-136713538D01*
X113567671Y-136594821D01*
X113509190Y-136485411D01*
X113430488Y-136389512D01*
X113334589Y-136310810D01*
X113225179Y-136252329D01*
X113106462Y-136216317D01*
X112983001Y-136204157D01*
X112282999Y-136204157D01*
X112159538Y-136216317D01*
X112040821Y-136252329D01*
X111966719Y-136291937D01*
X111059659Y-135384877D01*
X111233000Y-135386572D01*
X111357482Y-135374312D01*
X111477180Y-135338002D01*
X111587494Y-135279037D01*
X111684185Y-135199685D01*
X111763537Y-135102994D01*
X111822502Y-134992680D01*
X111836436Y-134946746D01*
X111931411Y-135024690D01*
X112040821Y-135083171D01*
X112159538Y-135119183D01*
X112282999Y-135131343D01*
X112983001Y-135131343D01*
X113106462Y-135119183D01*
X113225179Y-135083171D01*
X113334589Y-135024690D01*
X113430488Y-134945988D01*
X113509190Y-134850089D01*
X113567671Y-134740679D01*
X113603683Y-134621962D01*
X113615843Y-134498501D01*
X113615843Y-134098578D01*
X114344500Y-134098578D01*
X114344500Y-134252422D01*
X114374513Y-134403309D01*
X114433387Y-134545442D01*
X114518858Y-134673359D01*
X114627641Y-134782142D01*
X114755558Y-134867613D01*
X114897691Y-134926487D01*
X115048578Y-134956500D01*
X115202422Y-134956500D01*
X115353309Y-134926487D01*
X115495442Y-134867613D01*
X115623359Y-134782142D01*
X115732142Y-134673359D01*
X115817613Y-134545442D01*
X115876487Y-134403309D01*
X115906500Y-134252422D01*
X115906500Y-134098578D01*
X115876487Y-133947691D01*
X115817613Y-133805558D01*
X115732142Y-133677641D01*
X115623359Y-133568858D01*
X115495442Y-133483387D01*
X115353309Y-133424513D01*
X115202422Y-133394500D01*
X115048578Y-133394500D01*
X114897691Y-133424513D01*
X114755558Y-133483387D01*
X114627641Y-133568858D01*
X114518858Y-133677641D01*
X114433387Y-133805558D01*
X114374513Y-133947691D01*
X114344500Y-134098578D01*
X113615843Y-134098578D01*
X113615843Y-133598499D01*
X113603683Y-133475038D01*
X113567671Y-133356321D01*
X113509190Y-133246911D01*
X113430488Y-133151012D01*
X113334589Y-133072310D01*
X113225179Y-133013829D01*
X113182063Y-133000750D01*
X113225179Y-132987671D01*
X113334589Y-132929190D01*
X113430488Y-132850488D01*
X113509190Y-132754589D01*
X113567671Y-132645179D01*
X113603683Y-132526462D01*
X113615843Y-132403001D01*
X113615843Y-131502999D01*
X113603683Y-131379538D01*
X113567671Y-131260821D01*
X113509190Y-131151411D01*
X113430488Y-131055512D01*
X113334589Y-130976810D01*
X113225179Y-130918329D01*
X113106462Y-130882317D01*
X112983001Y-130870157D01*
X112282999Y-130870157D01*
X112159538Y-130882317D01*
X112040821Y-130918329D01*
X111931411Y-130976810D01*
X111836436Y-131054754D01*
X111822502Y-131008820D01*
X111763537Y-130898506D01*
X111684185Y-130801815D01*
X111587494Y-130722463D01*
X111477180Y-130663498D01*
X111357482Y-130627188D01*
X111233000Y-130614928D01*
X110918750Y-130618000D01*
X110760000Y-130776750D01*
X110760000Y-131826000D01*
X110780000Y-131826000D01*
X110780000Y-132080000D01*
X110760000Y-132080000D01*
X110760000Y-133921500D01*
X110780000Y-133921500D01*
X110780000Y-134175500D01*
X110760000Y-134175500D01*
X110760000Y-134195500D01*
X110506000Y-134195500D01*
X110506000Y-134175500D01*
X110486000Y-134175500D01*
X110486000Y-133921500D01*
X110506000Y-133921500D01*
X110506000Y-132080000D01*
X109556750Y-132080000D01*
X109398000Y-132238750D01*
X109394928Y-132653000D01*
X109407188Y-132777482D01*
X109443498Y-132897180D01*
X109498858Y-133000750D01*
X109443498Y-133104320D01*
X109407188Y-133224018D01*
X109394928Y-133348500D01*
X109397705Y-133722923D01*
X107060067Y-131385286D01*
X107044218Y-131365974D01*
X106967170Y-131302742D01*
X106879266Y-131255756D01*
X106870181Y-131253000D01*
X109394928Y-131253000D01*
X109398000Y-131667250D01*
X109556750Y-131826000D01*
X110506000Y-131826000D01*
X110506000Y-130776750D01*
X110347250Y-130618000D01*
X110033000Y-130614928D01*
X109908518Y-130627188D01*
X109788820Y-130663498D01*
X109678506Y-130722463D01*
X109581815Y-130801815D01*
X109502463Y-130898506D01*
X109443498Y-131008820D01*
X109407188Y-131128518D01*
X109394928Y-131253000D01*
X106870181Y-131253000D01*
X106783884Y-131226823D01*
X106709545Y-131219501D01*
X106709537Y-131219501D01*
X106684691Y-131217054D01*
X106666109Y-131218884D01*
X107997747Y-129887247D01*
X108024513Y-130021809D01*
X108083387Y-130163942D01*
X108168858Y-130291859D01*
X108277641Y-130400642D01*
X108405558Y-130486113D01*
X108547691Y-130544987D01*
X108698578Y-130575000D01*
X108852422Y-130575000D01*
X109003309Y-130544987D01*
X109145442Y-130486113D01*
X109273359Y-130400642D01*
X109382142Y-130291859D01*
X109467613Y-130163942D01*
X109526487Y-130021809D01*
X109556500Y-129870922D01*
X109556500Y-129717078D01*
X109526487Y-129566191D01*
X109510592Y-129527818D01*
X109576908Y-129507701D01*
X109643096Y-129472322D01*
X109701111Y-129424711D01*
X109748722Y-129366696D01*
X109784101Y-129300508D01*
X109805887Y-129228689D01*
X109813243Y-129154000D01*
X109813243Y-128836843D01*
X112100400Y-128836843D01*
X112175089Y-128829487D01*
X112246908Y-128807701D01*
X112313096Y-128772322D01*
X112371111Y-128724711D01*
X112418722Y-128666696D01*
X112454101Y-128600508D01*
X112475887Y-128528689D01*
X112483243Y-128454000D01*
X112483243Y-125534999D01*
X113515655Y-125534999D01*
X113540501Y-125537446D01*
X113565347Y-125534999D01*
X113565355Y-125534999D01*
X113639694Y-125527677D01*
X113735076Y-125498744D01*
X113822980Y-125451758D01*
X113900028Y-125388526D01*
X113915877Y-125369214D01*
X114806092Y-124479000D01*
X114948422Y-124479000D01*
X115099309Y-124448987D01*
X115241442Y-124390113D01*
X115369359Y-124304642D01*
X115478142Y-124195859D01*
X115563613Y-124067942D01*
X115622487Y-123925809D01*
X115652500Y-123774922D01*
X115652500Y-123621078D01*
X115622487Y-123470191D01*
X115563613Y-123328058D01*
X115478142Y-123200141D01*
X115369359Y-123091358D01*
X115359093Y-123084499D01*
X115529220Y-122914372D01*
X115548527Y-122898527D01*
X115611759Y-122821479D01*
X115658745Y-122733575D01*
X115677471Y-122671843D01*
X115689000Y-122671843D01*
X115763689Y-122664487D01*
X115814000Y-122649225D01*
X115864311Y-122664487D01*
X115939000Y-122671843D01*
X115983001Y-122671843D01*
X115983000Y-123902908D01*
X114936909Y-124949000D01*
X114794578Y-124949000D01*
X114643691Y-124979013D01*
X114501558Y-125037887D01*
X114373641Y-125123358D01*
X114264858Y-125232141D01*
X114179387Y-125360058D01*
X114120513Y-125502191D01*
X114090500Y-125653078D01*
X114090500Y-125806922D01*
X114120513Y-125957809D01*
X114179387Y-126099942D01*
X114264858Y-126227859D01*
X114373641Y-126336642D01*
X114501558Y-126422113D01*
X114643691Y-126480987D01*
X114794578Y-126511000D01*
X114948422Y-126511000D01*
X115099309Y-126480987D01*
X115241442Y-126422113D01*
X115369359Y-126336642D01*
X115478142Y-126227859D01*
X115563613Y-126099942D01*
X115622487Y-125957809D01*
X115652500Y-125806922D01*
X115652500Y-125664591D01*
X116829220Y-124487872D01*
X116848527Y-124472027D01*
X116911759Y-124394979D01*
X116958745Y-124307075D01*
X116987106Y-124213578D01*
X116987678Y-124211694D01*
X116989918Y-124188948D01*
X116995000Y-124137354D01*
X116995000Y-124137347D01*
X116997447Y-124112501D01*
X116995000Y-124087655D01*
X116995000Y-122509792D01*
X117018893Y-122493827D01*
X117076908Y-122446216D01*
X117146216Y-122376908D01*
X117193827Y-122318893D01*
X117248283Y-122237394D01*
X117283663Y-122171204D01*
X117297943Y-122136729D01*
X117297943Y-153645657D01*
G37*
G04 #@! TD.AperFunction*
D26*
X105379780Y-127501370D02*
X105325092Y-127556058D01*
X105294542Y-127530037D01*
X105185325Y-127469065D01*
X105131213Y-127451563D01*
X105098650Y-127419000D01*
X105030400Y-127426582D01*
X104962150Y-127419000D01*
X104929587Y-127451563D01*
X104875475Y-127469065D01*
X104766258Y-127530037D01*
X104735708Y-127556058D01*
X104598650Y-127419000D01*
X104533675Y-127426218D01*
X104540000Y-127394422D01*
X104540000Y-127240578D01*
X104509987Y-127089691D01*
X104451113Y-126947558D01*
X104365642Y-126819641D01*
X104256859Y-126710858D01*
X104128942Y-126625387D01*
X103986809Y-126566513D01*
X103835922Y-126536500D01*
X103682078Y-126536500D01*
X103531191Y-126566513D01*
X103389058Y-126625387D01*
X103261141Y-126710858D01*
X103251000Y-126720999D01*
X103240859Y-126710858D01*
X103112942Y-126625387D01*
X102970809Y-126566513D01*
X102819922Y-126536500D01*
X102666078Y-126536500D01*
X102515191Y-126566513D01*
X102373058Y-126625387D01*
X102245141Y-126710858D01*
X102136358Y-126819641D01*
X102050887Y-126947558D01*
X101992013Y-127089691D01*
X101962000Y-127240578D01*
X101962000Y-127394422D01*
X101992013Y-127545309D01*
X102048140Y-127680810D01*
X102030400Y-127686191D01*
X102005089Y-127678513D01*
X101930400Y-127671157D01*
X101764321Y-127671157D01*
X101750145Y-127624423D01*
X101737079Y-127599978D01*
X101703159Y-127536519D01*
X101639927Y-127459471D01*
X101620620Y-127443626D01*
X100936499Y-126759506D01*
X100936499Y-124450739D01*
X101078578Y-124479000D01*
X101232422Y-124479000D01*
X101383309Y-124448987D01*
X101525442Y-124390113D01*
X101653359Y-124304642D01*
X101754001Y-124204000D01*
X102082411Y-124204000D01*
X105379780Y-127501370D01*
G04 #@! TA.AperFunction,Conductor*
D27*
G36*
X105379780Y-127501370D02*
G01*
X105325092Y-127556058D01*
X105294542Y-127530037D01*
X105185325Y-127469065D01*
X105131213Y-127451563D01*
X105098650Y-127419000D01*
X105030400Y-127426582D01*
X104962150Y-127419000D01*
X104929587Y-127451563D01*
X104875475Y-127469065D01*
X104766258Y-127530037D01*
X104735708Y-127556058D01*
X104598650Y-127419000D01*
X104533675Y-127426218D01*
X104540000Y-127394422D01*
X104540000Y-127240578D01*
X104509987Y-127089691D01*
X104451113Y-126947558D01*
X104365642Y-126819641D01*
X104256859Y-126710858D01*
X104128942Y-126625387D01*
X103986809Y-126566513D01*
X103835922Y-126536500D01*
X103682078Y-126536500D01*
X103531191Y-126566513D01*
X103389058Y-126625387D01*
X103261141Y-126710858D01*
X103251000Y-126720999D01*
X103240859Y-126710858D01*
X103112942Y-126625387D01*
X102970809Y-126566513D01*
X102819922Y-126536500D01*
X102666078Y-126536500D01*
X102515191Y-126566513D01*
X102373058Y-126625387D01*
X102245141Y-126710858D01*
X102136358Y-126819641D01*
X102050887Y-126947558D01*
X101992013Y-127089691D01*
X101962000Y-127240578D01*
X101962000Y-127394422D01*
X101992013Y-127545309D01*
X102048140Y-127680810D01*
X102030400Y-127686191D01*
X102005089Y-127678513D01*
X101930400Y-127671157D01*
X101764321Y-127671157D01*
X101750145Y-127624423D01*
X101737079Y-127599978D01*
X101703159Y-127536519D01*
X101639927Y-127459471D01*
X101620620Y-127443626D01*
X100936499Y-126759506D01*
X100936499Y-124450739D01*
X101078578Y-124479000D01*
X101232422Y-124479000D01*
X101383309Y-124448987D01*
X101525442Y-124390113D01*
X101653359Y-124304642D01*
X101754001Y-124204000D01*
X102082411Y-124204000D01*
X105379780Y-127501370D01*
G37*
G04 #@! TD.AperFunction*
D26*
X103580754Y-33394772D02*
X103694580Y-33404325D01*
X103807296Y-33422187D01*
X103918164Y-33448280D01*
X104026463Y-33482491D01*
X104131509Y-33524698D01*
X104232641Y-33574756D01*
X104329313Y-33632558D01*
X104420959Y-33697985D01*
X104507126Y-33770996D01*
X104587424Y-33851650D01*
X104661423Y-33940041D01*
X104728745Y-34036414D01*
X104788953Y-34141108D01*
X104841539Y-34254546D01*
X104885897Y-34377225D01*
X104923337Y-34517264D01*
X104989580Y-34818802D01*
X105056035Y-35129510D01*
X105121667Y-35442350D01*
X105187071Y-35757661D01*
X105252783Y-36075493D01*
X105252788Y-36075510D01*
X105252860Y-36075868D01*
X105319494Y-36396636D01*
X105319513Y-36396698D01*
X105319702Y-36397627D01*
X105387823Y-36721494D01*
X105387845Y-36721565D01*
X105388158Y-36723074D01*
X105458380Y-37050458D01*
X105458410Y-37050552D01*
X105458846Y-37052601D01*
X105531787Y-37383922D01*
X105531818Y-37384018D01*
X105532384Y-37386592D01*
X105608659Y-37722271D01*
X105608692Y-37722369D01*
X105609390Y-37725430D01*
X105689616Y-38065888D01*
X105689649Y-38065985D01*
X105690484Y-38069495D01*
X105775276Y-38415148D01*
X105775302Y-38415221D01*
X105776282Y-38419163D01*
X105866258Y-38770434D01*
X105866284Y-38770506D01*
X105867405Y-38774809D01*
X105963181Y-39132117D01*
X105963200Y-39132168D01*
X105964468Y-39136805D01*
X106066659Y-39500570D01*
X106066670Y-39500599D01*
X106068086Y-39505528D01*
X106177309Y-39876170D01*
X106177317Y-39876191D01*
X106178873Y-39881352D01*
X106295744Y-40259290D01*
X106295748Y-40259299D01*
X106297442Y-40264650D01*
X106422578Y-40650306D01*
X106422602Y-40650362D01*
X106422616Y-40650424D01*
X106424405Y-40655803D01*
X106558421Y-41049596D01*
X106558475Y-41049716D01*
X106558504Y-41049838D01*
X106560371Y-41055191D01*
X106703884Y-41457538D01*
X106703960Y-41457699D01*
X106704002Y-41457867D01*
X106705948Y-41463192D01*
X106859574Y-41874516D01*
X106859665Y-41874703D01*
X106859718Y-41874900D01*
X106861744Y-41880195D01*
X107026099Y-42300915D01*
X107026198Y-42301110D01*
X107026259Y-42301325D01*
X107028364Y-42306589D01*
X107204066Y-42737124D01*
X107204169Y-42737319D01*
X107204232Y-42737530D01*
X107206416Y-42742761D01*
X107394079Y-43183534D01*
X107394179Y-43183717D01*
X107394241Y-43183913D01*
X107396503Y-43189112D01*
X107596744Y-43640539D01*
X107596834Y-43640699D01*
X107596892Y-43640872D01*
X107599231Y-43646037D01*
X107812666Y-44108539D01*
X107812744Y-44108672D01*
X107812791Y-44108807D01*
X107815205Y-44113936D01*
X108042452Y-44587935D01*
X108042506Y-44588024D01*
X108042542Y-44588123D01*
X108045031Y-44593217D01*
X108286703Y-45079130D01*
X108286734Y-45079179D01*
X108286752Y-45079227D01*
X108289313Y-45084284D01*
X108546028Y-45582532D01*
X108546031Y-45582537D01*
X108548657Y-45587549D01*
X108821031Y-46098552D01*
X108821040Y-46098566D01*
X108823670Y-46103423D01*
X109112320Y-46627601D01*
X109112333Y-46627620D01*
X109114961Y-46632321D01*
X109420065Y-47169324D01*
X109453071Y-47227980D01*
X109483975Y-47286151D01*
X109514839Y-47347504D01*
X109545563Y-47411856D01*
X109575977Y-47478845D01*
X109606080Y-47548457D01*
X109635722Y-47620334D01*
X109664815Y-47694242D01*
X109693342Y-47770111D01*
X109721203Y-47847662D01*
X109748303Y-47926599D01*
X109774637Y-48006882D01*
X109800104Y-48088190D01*
X109824678Y-48170414D01*
X109848287Y-48253298D01*
X109870877Y-48336638D01*
X109892419Y-48420315D01*
X109912840Y-48504044D01*
X109932131Y-48587784D01*
X109950185Y-48671075D01*
X109967030Y-48754051D01*
X109982557Y-48836194D01*
X109996761Y-48917495D01*
X110009590Y-48997689D01*
X110021010Y-49076576D01*
X110030983Y-49153945D01*
X110039477Y-49229577D01*
X110046458Y-49303195D01*
X110051902Y-49374569D01*
X110055800Y-49443556D01*
X110058130Y-49509697D01*
X110058936Y-49575543D01*
X110058422Y-59403040D01*
X110059129Y-59410255D01*
X110058679Y-59417483D01*
X110058919Y-59423147D01*
X110060429Y-59453631D01*
X110064047Y-59478028D01*
X110065851Y-59502618D01*
X110066854Y-59508198D01*
X110076581Y-59560197D01*
X110085480Y-59590836D01*
X110093193Y-59621764D01*
X110095132Y-59627092D01*
X110113486Y-59676433D01*
X110127440Y-59705038D01*
X110140277Y-59734153D01*
X110143094Y-59739073D01*
X110169621Y-59784663D01*
X110188379Y-59810678D01*
X110206130Y-59837346D01*
X110209747Y-59841712D01*
X110243993Y-59882455D01*
X110261699Y-59899765D01*
X110278084Y-59918326D01*
X110282260Y-59922161D01*
X110304884Y-59942649D01*
X110324692Y-59957340D01*
X110343352Y-59973450D01*
X110348007Y-59976686D01*
X110391654Y-60006577D01*
X110419597Y-60021942D01*
X110446940Y-60038368D01*
X110452078Y-60040764D01*
X110499945Y-60062674D01*
X110530041Y-60073035D01*
X110559696Y-60084541D01*
X110565166Y-60086028D01*
X110616160Y-60099508D01*
X110647801Y-60104637D01*
X110679225Y-60110946D01*
X110684870Y-60111475D01*
X110737897Y-60116070D01*
X110752076Y-60115910D01*
X110766163Y-60117529D01*
X110771832Y-60117584D01*
X110860155Y-60117827D01*
X110881780Y-60119261D01*
X110888292Y-60120574D01*
X110893934Y-60122515D01*
X110898710Y-60124906D01*
X110902625Y-60127573D01*
X110905763Y-60130399D01*
X110908328Y-60133438D01*
X110918701Y-60149905D01*
X115614099Y-68808052D01*
X115643711Y-68863775D01*
X115671783Y-68918643D01*
X115698979Y-68973909D01*
X115725262Y-69029483D01*
X115750686Y-69085483D01*
X115775159Y-69141693D01*
X115798793Y-69198367D01*
X115821518Y-69255339D01*
X115843320Y-69312565D01*
X115864243Y-69370156D01*
X115884245Y-69427994D01*
X115903340Y-69486111D01*
X115921542Y-69544557D01*
X115938826Y-69603241D01*
X115955199Y-69662197D01*
X115970634Y-69721307D01*
X115985193Y-69780824D01*
X115998794Y-69840405D01*
X116011492Y-69900293D01*
X116023260Y-69960373D01*
X116034096Y-70020614D01*
X116044010Y-70081094D01*
X116052980Y-70141673D01*
X116061030Y-70202523D01*
X116068135Y-70263470D01*
X116074300Y-70324552D01*
X116079526Y-70385811D01*
X116083807Y-70447216D01*
X116087143Y-70508738D01*
X116089525Y-70570292D01*
X116090958Y-70632040D01*
X116091449Y-70695430D01*
X116091449Y-71936684D01*
X116092174Y-71944075D01*
X116091719Y-71951486D01*
X116091965Y-71957149D01*
X116093780Y-71993111D01*
X116097139Y-72015614D01*
X116098608Y-72038296D01*
X116099563Y-72043884D01*
X116108820Y-72095822D01*
X116116274Y-72122331D01*
X116122128Y-72149226D01*
X116123905Y-72154609D01*
X116140472Y-72203614D01*
X116151589Y-72228261D01*
X116161147Y-72253540D01*
X116163695Y-72258604D01*
X116186975Y-72304077D01*
X116201334Y-72326434D01*
X116214216Y-72349665D01*
X116217469Y-72354309D01*
X116246863Y-72395656D01*
X116264127Y-72415509D01*
X116280032Y-72436437D01*
X116283915Y-72440567D01*
X116318831Y-72477189D01*
X116338705Y-72494324D01*
X116357407Y-72512739D01*
X116361840Y-72516272D01*
X116401678Y-72547574D01*
X116423976Y-72561811D01*
X116445298Y-72577468D01*
X116450193Y-72580328D01*
X116494358Y-72605713D01*
X116518857Y-72616770D01*
X116542594Y-72629340D01*
X116547854Y-72631456D01*
X116595748Y-72650326D01*
X116622072Y-72657826D01*
X116647881Y-72666904D01*
X116653396Y-72668216D01*
X116704423Y-72679976D01*
X116732005Y-72683548D01*
X116759319Y-72688722D01*
X116764968Y-72689190D01*
X116818531Y-72693243D01*
X116831056Y-72692965D01*
X116843496Y-72694360D01*
X116849165Y-72694400D01*
X117485455Y-72694400D01*
X117532151Y-72696778D01*
X117566966Y-72702130D01*
X117600526Y-72710813D01*
X117632831Y-72722696D01*
X117663798Y-72737671D01*
X117693253Y-72755614D01*
X117720925Y-72776341D01*
X117746556Y-72799650D01*
X117769868Y-72825285D01*
X117790594Y-72852957D01*
X117808531Y-72882401D01*
X117823511Y-72913378D01*
X117835394Y-72945682D01*
X117844075Y-72979238D01*
X117849430Y-73014071D01*
X117851807Y-73060740D01*
X117851807Y-73713615D01*
X117851956Y-73715134D01*
X117851819Y-73716647D01*
X117851900Y-73722315D01*
X117853795Y-73810727D01*
X117854496Y-73816581D01*
X117854217Y-73822466D01*
X117854542Y-73828126D01*
X117860204Y-73916022D01*
X117861155Y-73921841D01*
X117861129Y-73927731D01*
X117861696Y-73933372D01*
X117871090Y-74020648D01*
X117872288Y-74026412D01*
X117872514Y-74032291D01*
X117873322Y-74037902D01*
X117886410Y-74124454D01*
X117887853Y-74130157D01*
X117888330Y-74136019D01*
X117889378Y-74141591D01*
X117906124Y-74227315D01*
X117907811Y-74232953D01*
X117908538Y-74238787D01*
X117909823Y-74244309D01*
X117930193Y-74329104D01*
X117932117Y-74334658D01*
X117933092Y-74340446D01*
X117934612Y-74345907D01*
X117958567Y-74429668D01*
X117960728Y-74435136D01*
X117961950Y-74440880D01*
X117963702Y-74446271D01*
X117991208Y-74528895D01*
X117993599Y-74534262D01*
X117995065Y-74539945D01*
X117997047Y-74545257D01*
X118028067Y-74626640D01*
X118030684Y-74631897D01*
X118032393Y-74637516D01*
X118034600Y-74642738D01*
X118069098Y-74722778D01*
X118071937Y-74727918D01*
X118073883Y-74733453D01*
X118076312Y-74738576D01*
X118114251Y-74817170D01*
X118117311Y-74822189D01*
X118119494Y-74827642D01*
X118122139Y-74832656D01*
X118163485Y-74909700D01*
X118166755Y-74914581D01*
X118169170Y-74919936D01*
X118172028Y-74924832D01*
X118216743Y-75000222D01*
X118220223Y-75004964D01*
X118222865Y-75010211D01*
X118225929Y-75014981D01*
X118273978Y-75088613D01*
X118277656Y-75093200D01*
X118280522Y-75098332D01*
X118283788Y-75102966D01*
X118335135Y-75174740D01*
X118339008Y-75179167D01*
X118342089Y-75184169D01*
X118345551Y-75188659D01*
X118400159Y-75258470D01*
X118401578Y-75259958D01*
X118402699Y-75261684D01*
X118406268Y-75266089D01*
X119069194Y-76072815D01*
X119106027Y-76119672D01*
X119138122Y-76164349D01*
X119168191Y-76210265D01*
X119196174Y-76257293D01*
X119222088Y-76305432D01*
X119245870Y-76354551D01*
X119267507Y-76404591D01*
X119286983Y-76455510D01*
X119304257Y-76507197D01*
X119319316Y-76559615D01*
X119332127Y-76612672D01*
X119342666Y-76666297D01*
X119350903Y-76720395D01*
X119356822Y-76774956D01*
X119360392Y-76829868D01*
X119361684Y-76889493D01*
X119361684Y-108012337D01*
X119359730Y-108085786D01*
X119354343Y-108153216D01*
X119345436Y-108219974D01*
X119333073Y-108285895D01*
X119317302Y-108350920D01*
X119298183Y-108414920D01*
X119275774Y-108477758D01*
X119250116Y-108539357D01*
X119221283Y-108599551D01*
X119189326Y-108658231D01*
X119154300Y-108715276D01*
X119116244Y-108770591D01*
X119075243Y-108824006D01*
X119031316Y-108875447D01*
X118984532Y-108924772D01*
X118931734Y-108974905D01*
X118114424Y-109704520D01*
X118114388Y-109704559D01*
X118114351Y-109704586D01*
X118110149Y-109708392D01*
X118070019Y-109745254D01*
X118068297Y-109747178D01*
X118066256Y-109748755D01*
X118062157Y-109752671D01*
X118023134Y-109790480D01*
X118021474Y-109792437D01*
X118019490Y-109794056D01*
X118015496Y-109798079D01*
X117977591Y-109836807D01*
X117975992Y-109838797D01*
X117974063Y-109840458D01*
X117970177Y-109844586D01*
X117933400Y-109884207D01*
X117931860Y-109886231D01*
X117929977Y-109887941D01*
X117926202Y-109892170D01*
X117890564Y-109932660D01*
X117889082Y-109934719D01*
X117887255Y-109936468D01*
X117883592Y-109940795D01*
X117849105Y-109982127D01*
X117847685Y-109984214D01*
X117845911Y-109986004D01*
X117842364Y-109990426D01*
X117809038Y-110032575D01*
X117807681Y-110034687D01*
X117805963Y-110036514D01*
X117802533Y-110041028D01*
X117770379Y-110083967D01*
X117769080Y-110086110D01*
X117767415Y-110087977D01*
X117764104Y-110092580D01*
X117733134Y-110136283D01*
X117731895Y-110138453D01*
X117730284Y-110140358D01*
X117727096Y-110145045D01*
X117697320Y-110189488D01*
X117696145Y-110191678D01*
X117694590Y-110193617D01*
X117691525Y-110198386D01*
X117662954Y-110243541D01*
X117661835Y-110245764D01*
X117660333Y-110247741D01*
X117657394Y-110252589D01*
X117630040Y-110298432D01*
X117628984Y-110300673D01*
X117627540Y-110302681D01*
X117624728Y-110307604D01*
X117598601Y-110354108D01*
X117597605Y-110356375D01*
X117596215Y-110358417D01*
X117593533Y-110363411D01*
X117568644Y-110410551D01*
X117567707Y-110412843D01*
X117566371Y-110414921D01*
X117563820Y-110419983D01*
X117540181Y-110467733D01*
X117539307Y-110470042D01*
X117538029Y-110472148D01*
X117535611Y-110477275D01*
X117513232Y-110525608D01*
X117512418Y-110527939D01*
X117511195Y-110530079D01*
X117508912Y-110535268D01*
X117487804Y-110584159D01*
X117487051Y-110586511D01*
X117485883Y-110588684D01*
X117483735Y-110593931D01*
X117463909Y-110643355D01*
X117463218Y-110645726D01*
X117462107Y-110647928D01*
X117460097Y-110653229D01*
X117441563Y-110703160D01*
X117440931Y-110705557D01*
X117439876Y-110707793D01*
X117438005Y-110713144D01*
X117420777Y-110763556D01*
X117420209Y-110765965D01*
X117419213Y-110768226D01*
X117417482Y-110773624D01*
X117401568Y-110824490D01*
X117401061Y-110826923D01*
X117400120Y-110829220D01*
X117398531Y-110834662D01*
X117383944Y-110885956D01*
X117383500Y-110888407D01*
X117382618Y-110890731D01*
X117381172Y-110896213D01*
X117367922Y-110947911D01*
X117367541Y-110950376D01*
X117366718Y-110952731D01*
X117365416Y-110958248D01*
X117353514Y-111010323D01*
X117353197Y-111012810D01*
X117352434Y-111015189D01*
X117351277Y-111020739D01*
X117340734Y-111073165D01*
X117340481Y-111075665D01*
X117339778Y-111078076D01*
X117338767Y-111083654D01*
X117329594Y-111136407D01*
X117329406Y-111138931D01*
X117328764Y-111141368D01*
X117327900Y-111146971D01*
X117320109Y-111200023D01*
X117319987Y-111202552D01*
X117319409Y-111205009D01*
X117318694Y-111210633D01*
X117312294Y-111263959D01*
X117312239Y-111266504D01*
X117311722Y-111268993D01*
X117311156Y-111274633D01*
X117306159Y-111328208D01*
X117306171Y-111330770D01*
X117305718Y-111333286D01*
X117305301Y-111338939D01*
X117301719Y-111392735D01*
X117301799Y-111395299D01*
X117301412Y-111397832D01*
X117301146Y-111403495D01*
X117298988Y-111457488D01*
X117299137Y-111460066D01*
X117298815Y-111462630D01*
X117298700Y-111468298D01*
X117297979Y-111522462D01*
X117297981Y-111522485D01*
X117297943Y-111527866D01*
X117297943Y-120941271D01*
X117283663Y-120906796D01*
X117248283Y-120840606D01*
X117193827Y-120759107D01*
X117146216Y-120701092D01*
X117076908Y-120631784D01*
X117018893Y-120584173D01*
X116937394Y-120529717D01*
X116871204Y-120494337D01*
X116780648Y-120456828D01*
X116708831Y-120435043D01*
X116612698Y-120415921D01*
X116538009Y-120408565D01*
X116513450Y-120408565D01*
X116489000Y-120406157D01*
X115939000Y-120406157D01*
X115864311Y-120413513D01*
X115814000Y-120428775D01*
X115763689Y-120413513D01*
X115689000Y-120406157D01*
X114689000Y-120406157D01*
X114614311Y-120413513D01*
X114542492Y-120435299D01*
X114476304Y-120470678D01*
X114418289Y-120518289D01*
X114370678Y-120576304D01*
X114335299Y-120642492D01*
X114313513Y-120714311D01*
X114306157Y-120789000D01*
X114306157Y-122289000D01*
X114313513Y-122363689D01*
X114335299Y-122435508D01*
X114352132Y-122466999D01*
X100832353Y-122466999D01*
X100807499Y-122464551D01*
X100782645Y-122466999D01*
X100708306Y-122474321D01*
X100612924Y-122503254D01*
X100525020Y-122550240D01*
X100447972Y-122613472D01*
X100432128Y-122632778D01*
X100090284Y-122974623D01*
X100070972Y-122990472D01*
X100007740Y-123067520D01*
X99960754Y-123155425D01*
X99931821Y-123250807D01*
X99924499Y-123325146D01*
X99924499Y-123325153D01*
X99922052Y-123349999D01*
X99924499Y-123374845D01*
X99924500Y-125444686D01*
X97837598Y-123357785D01*
X97821749Y-123338473D01*
X97744701Y-123275241D01*
X97656797Y-123228255D01*
X97561415Y-123199322D01*
X97487076Y-123192000D01*
X97487068Y-123192000D01*
X97462222Y-123189553D01*
X97437376Y-123192000D01*
X97182001Y-123192000D01*
X97081359Y-123091358D01*
X96953442Y-123005887D01*
X96811309Y-122947013D01*
X96660422Y-122917000D01*
X96506578Y-122917000D01*
X96355691Y-122947013D01*
X96213558Y-123005887D01*
X96085641Y-123091358D01*
X95976858Y-123200141D01*
X95891387Y-123328058D01*
X95832513Y-123470191D01*
X95802500Y-123621078D01*
X95802500Y-123774922D01*
X95830761Y-123917001D01*
X95676593Y-123917001D01*
X95523000Y-123763408D01*
X95523000Y-123621078D01*
X95492987Y-123470191D01*
X95434113Y-123328058D01*
X95348642Y-123200141D01*
X95239859Y-123091358D01*
X95111942Y-123005887D01*
X94969809Y-122947013D01*
X94818922Y-122917000D01*
X94665078Y-122917000D01*
X94514191Y-122947013D01*
X94372058Y-123005887D01*
X94244141Y-123091358D01*
X94239089Y-123096410D01*
X94194190Y-123012411D01*
X94115488Y-122916512D01*
X94019589Y-122837810D01*
X93910179Y-122779329D01*
X93791462Y-122743317D01*
X93724000Y-122736672D01*
X93724000Y-122485943D01*
X93772408Y-122446216D01*
X93841716Y-122376908D01*
X93889327Y-122318893D01*
X93943783Y-122237394D01*
X93979163Y-122171204D01*
X94016672Y-122080648D01*
X94038457Y-122008831D01*
X94057579Y-121912698D01*
X94064935Y-121838009D01*
X94064935Y-121813450D01*
X94067343Y-121789000D01*
X94067343Y-121289000D01*
X94064935Y-121264550D01*
X94064935Y-121239991D01*
X94057579Y-121165302D01*
X94038457Y-121069169D01*
X94016672Y-120997352D01*
X93979163Y-120906796D01*
X93943783Y-120840606D01*
X93889327Y-120759107D01*
X93841716Y-120701092D01*
X93772408Y-120631784D01*
X93714393Y-120584173D01*
X93632894Y-120529717D01*
X93566704Y-120494337D01*
X93476148Y-120456828D01*
X93404331Y-120435043D01*
X93308198Y-120415921D01*
X93233509Y-120408565D01*
X93208950Y-120408565D01*
X93184500Y-120406157D01*
X92634500Y-120406157D01*
X92559811Y-120413513D01*
X92509500Y-120428775D01*
X92459189Y-120413513D01*
X92384500Y-120406157D01*
X91384500Y-120406157D01*
X91309811Y-120413513D01*
X91259500Y-120428775D01*
X91209189Y-120413513D01*
X91134500Y-120406157D01*
X90584500Y-120406157D01*
X90560050Y-120408565D01*
X90535491Y-120408565D01*
X90460802Y-120415921D01*
X90364669Y-120435043D01*
X90292852Y-120456828D01*
X90202296Y-120494337D01*
X90136106Y-120529717D01*
X90054607Y-120584173D01*
X89996592Y-120631784D01*
X89927284Y-120701092D01*
X89879673Y-120759107D01*
X89825217Y-120840606D01*
X89789837Y-120906796D01*
X89752328Y-120997352D01*
X89746601Y-121016232D01*
X89746601Y-111527866D01*
X89746599Y-111527848D01*
X89746565Y-111522455D01*
X89745843Y-111468291D01*
X89745557Y-111465727D01*
X89745742Y-111463154D01*
X89745555Y-111457488D01*
X89743397Y-111403495D01*
X89743045Y-111400955D01*
X89743161Y-111398394D01*
X89742824Y-111392735D01*
X89739242Y-111338939D01*
X89738824Y-111336418D01*
X89738872Y-111333863D01*
X89738385Y-111328215D01*
X89733389Y-111274641D01*
X89732907Y-111272143D01*
X89732887Y-111269600D01*
X89732251Y-111263966D01*
X89725852Y-111210641D01*
X89725306Y-111208164D01*
X89725219Y-111205630D01*
X89724434Y-111200016D01*
X89716642Y-111146964D01*
X89716034Y-111144517D01*
X89715882Y-111142006D01*
X89714951Y-111136414D01*
X89705779Y-111083662D01*
X89705108Y-111081238D01*
X89704891Y-111078737D01*
X89703813Y-111073172D01*
X89693271Y-111020746D01*
X89692540Y-111018350D01*
X89692258Y-111015866D01*
X89691034Y-111010331D01*
X89679133Y-110958256D01*
X89678340Y-110955883D01*
X89677994Y-110953412D01*
X89676625Y-110947911D01*
X89663375Y-110896213D01*
X89662526Y-110893877D01*
X89662117Y-110891427D01*
X89660605Y-110885963D01*
X89646019Y-110834669D01*
X89645110Y-110832358D01*
X89644637Y-110829919D01*
X89642982Y-110824497D01*
X89627069Y-110773631D01*
X89626103Y-110771352D01*
X89625568Y-110768933D01*
X89623772Y-110763556D01*
X89606544Y-110713145D01*
X89605519Y-110710893D01*
X89604923Y-110708495D01*
X89602988Y-110703166D01*
X89584456Y-110653236D01*
X89583374Y-110651014D01*
X89582717Y-110648638D01*
X89580644Y-110643361D01*
X89560819Y-110593937D01*
X89559680Y-110591745D01*
X89558961Y-110589386D01*
X89556750Y-110584166D01*
X89535643Y-110535274D01*
X89534447Y-110533112D01*
X89533666Y-110530770D01*
X89531320Y-110525609D01*
X89508941Y-110477275D01*
X89507689Y-110475145D01*
X89506850Y-110472832D01*
X89504371Y-110467733D01*
X89480732Y-110419983D01*
X89479423Y-110417883D01*
X89478520Y-110415583D01*
X89475908Y-110410551D01*
X89451019Y-110363411D01*
X89449656Y-110361346D01*
X89448693Y-110359070D01*
X89445951Y-110354108D01*
X89419824Y-110307604D01*
X89418406Y-110305573D01*
X89417383Y-110303321D01*
X89414513Y-110298432D01*
X89387158Y-110252589D01*
X89385681Y-110250588D01*
X89384595Y-110248353D01*
X89381598Y-110243541D01*
X89353027Y-110198386D01*
X89351499Y-110196424D01*
X89350355Y-110194220D01*
X89347233Y-110189488D01*
X89317456Y-110145045D01*
X89315870Y-110143116D01*
X89314663Y-110140931D01*
X89311418Y-110136283D01*
X89280448Y-110092580D01*
X89278807Y-110090687D01*
X89277540Y-110088530D01*
X89274174Y-110083968D01*
X89242019Y-110041028D01*
X89240322Y-110039172D01*
X89238995Y-110037042D01*
X89235510Y-110032570D01*
X89202183Y-109990421D01*
X89200431Y-109988602D01*
X89199043Y-109986501D01*
X89195442Y-109982123D01*
X89160954Y-109940790D01*
X89159147Y-109939010D01*
X89157698Y-109936938D01*
X89153983Y-109932656D01*
X89118344Y-109892166D01*
X89116483Y-109890427D01*
X89114973Y-109888385D01*
X89111146Y-109884203D01*
X89074368Y-109844582D01*
X89072454Y-109842886D01*
X89070886Y-109840879D01*
X89066949Y-109836799D01*
X89029042Y-109798072D01*
X89027079Y-109796424D01*
X89025448Y-109794446D01*
X89021405Y-109790473D01*
X88982379Y-109752664D01*
X88980361Y-109751059D01*
X88978669Y-109749115D01*
X88974521Y-109745251D01*
X88934391Y-109708389D01*
X88934349Y-109708358D01*
X88930766Y-109705099D01*
X88116647Y-108975197D01*
X88063535Y-108924766D01*
X88016738Y-108875432D01*
X87972794Y-108823984D01*
X87931752Y-108770540D01*
X87893696Y-108715267D01*
X87858643Y-108658236D01*
X87826658Y-108599588D01*
X87797833Y-108539521D01*
X87772176Y-108478066D01*
X87749772Y-108415421D01*
X87730677Y-108351718D01*
X87714929Y-108287045D01*
X87702588Y-108221548D01*
X87693709Y-108155358D01*
X87688338Y-108088544D01*
X87686391Y-108015835D01*
X87686391Y-91793634D01*
X90419561Y-91793634D01*
X90419561Y-93265596D01*
X90584368Y-94728302D01*
X90911910Y-96163358D01*
X91398068Y-97552718D01*
X92036728Y-98878909D01*
X92819859Y-100125254D01*
X93737612Y-101276080D01*
X94778446Y-102316914D01*
X95929272Y-103234667D01*
X97175617Y-104017798D01*
X98501808Y-104656458D01*
X99891168Y-105142616D01*
X101326224Y-105470158D01*
X102788930Y-105634965D01*
X104260892Y-105634965D01*
X105723598Y-105470158D01*
X107158654Y-105142616D01*
X108548014Y-104656458D01*
X109874205Y-104017798D01*
X111120550Y-103234667D01*
X112271376Y-102316914D01*
X113312210Y-101276080D01*
X114229963Y-100125254D01*
X115013094Y-98878909D01*
X115651754Y-97552718D01*
X116137912Y-96163358D01*
X116465454Y-94728302D01*
X116630261Y-93265596D01*
X116630261Y-91793634D01*
X116465454Y-90330928D01*
X116137912Y-88895872D01*
X115651754Y-87506512D01*
X115013094Y-86180321D01*
X114229963Y-84933976D01*
X113312210Y-83783150D01*
X112271376Y-82742316D01*
X111120550Y-81824563D01*
X109874205Y-81041432D01*
X108548014Y-80402772D01*
X107158654Y-79916614D01*
X105723598Y-79589072D01*
X104260892Y-79424265D01*
X102788930Y-79424265D01*
X101326224Y-79589072D01*
X99891168Y-79916614D01*
X98501808Y-80402772D01*
X97175617Y-81041432D01*
X95929272Y-81824563D01*
X94778446Y-82742316D01*
X93737612Y-83783150D01*
X92819859Y-84933976D01*
X92036728Y-86180321D01*
X91398068Y-87506512D01*
X90911910Y-88895872D01*
X90584368Y-90330928D01*
X90419561Y-91793634D01*
X87686391Y-91793634D01*
X87686391Y-76889470D01*
X87687673Y-76829962D01*
X87691224Y-76775103D01*
X87697109Y-76720605D01*
X87705308Y-76666509D01*
X87715794Y-76612920D01*
X87728546Y-76559892D01*
X87743540Y-76507498D01*
X87760745Y-76455837D01*
X87780124Y-76405010D01*
X87801683Y-76355014D01*
X87825352Y-76306024D01*
X87851149Y-76258023D01*
X87879008Y-76211163D01*
X87908934Y-76165458D01*
X87940875Y-76121023D01*
X87978345Y-76073435D01*
X88639492Y-75261071D01*
X88639609Y-75260895D01*
X88639753Y-75260749D01*
X88643297Y-75256323D01*
X88697904Y-75187135D01*
X88701161Y-75182059D01*
X88705207Y-75177594D01*
X88708554Y-75173019D01*
X88759901Y-75101789D01*
X88762927Y-75096586D01*
X88766765Y-75091963D01*
X88769911Y-75087247D01*
X88817960Y-75014085D01*
X88820749Y-75008771D01*
X88824371Y-75004001D01*
X88827309Y-74999153D01*
X88872024Y-74924168D01*
X88874571Y-74918758D01*
X88877976Y-74913845D01*
X88880701Y-74908874D01*
X88922047Y-74832172D01*
X88924352Y-74826670D01*
X88927532Y-74821629D01*
X88930040Y-74816544D01*
X88967979Y-74738237D01*
X88970039Y-74732653D01*
X88972988Y-74727499D01*
X88975274Y-74722311D01*
X89009772Y-74642504D01*
X89011584Y-74636854D01*
X89014304Y-74631585D01*
X89016365Y-74626304D01*
X89047385Y-74545107D01*
X89048949Y-74539394D01*
X89051436Y-74534022D01*
X89053267Y-74528657D01*
X89080773Y-74446178D01*
X89082087Y-74440413D01*
X89084338Y-74434947D01*
X89085937Y-74429508D01*
X89109892Y-74345857D01*
X89110955Y-74340052D01*
X89112966Y-74334504D01*
X89114330Y-74329002D01*
X89134700Y-74244285D01*
X89135513Y-74238439D01*
X89137284Y-74232809D01*
X89138411Y-74227253D01*
X89155156Y-74141580D01*
X89155717Y-74135710D01*
X89157242Y-74130020D01*
X89158130Y-74124421D01*
X89171218Y-74037902D01*
X89171527Y-74032014D01*
X89172806Y-74026265D01*
X89173453Y-74020633D01*
X89182847Y-73933373D01*
X89182903Y-73927474D01*
X89183935Y-73921672D01*
X89184339Y-73916017D01*
X89190001Y-73828128D01*
X89189804Y-73822237D01*
X89190586Y-73816399D01*
X89190748Y-73810732D01*
X89192644Y-73722320D01*
X89192527Y-73720796D01*
X89192697Y-73719284D01*
X89192737Y-73713615D01*
X89192737Y-73057060D01*
X89195104Y-73009986D01*
X89200437Y-72974926D01*
X89209036Y-72941406D01*
X89220733Y-72909406D01*
X89235414Y-72878919D01*
X89252942Y-72850086D01*
X89273178Y-72823070D01*
X89295946Y-72798087D01*
X89321043Y-72775362D01*
X89348259Y-72755109D01*
X89377404Y-72737510D01*
X89408310Y-72722728D01*
X89440867Y-72710912D01*
X89475056Y-72702206D01*
X89510941Y-72696789D01*
X89558857Y-72694400D01*
X90195400Y-72694400D01*
X90202800Y-72693674D01*
X90210213Y-72694129D01*
X90215877Y-72693883D01*
X90251838Y-72692067D01*
X90274331Y-72688709D01*
X90297012Y-72687240D01*
X90302600Y-72686285D01*
X90354538Y-72677028D01*
X90381047Y-72669574D01*
X90407942Y-72663720D01*
X90413325Y-72661943D01*
X90462330Y-72645376D01*
X90486976Y-72634259D01*
X90512249Y-72624704D01*
X90517314Y-72622156D01*
X90562786Y-72598878D01*
X90585151Y-72584515D01*
X90608387Y-72571629D01*
X90613030Y-72568377D01*
X90654377Y-72538981D01*
X90674219Y-72521725D01*
X90695149Y-72505820D01*
X90699279Y-72501937D01*
X90735901Y-72467022D01*
X90753038Y-72447145D01*
X90771455Y-72428442D01*
X90774988Y-72424009D01*
X90806290Y-72384171D01*
X90820532Y-72361866D01*
X90836186Y-72340547D01*
X90839046Y-72335652D01*
X90864431Y-72291487D01*
X90875487Y-72266989D01*
X90888056Y-72243254D01*
X90890172Y-72237994D01*
X90909042Y-72190100D01*
X90916541Y-72163782D01*
X90925620Y-72137969D01*
X90926932Y-72132454D01*
X90938692Y-72081427D01*
X90942264Y-72053842D01*
X90947438Y-72026530D01*
X90947906Y-72020881D01*
X90951959Y-71967318D01*
X90951681Y-71954793D01*
X90953076Y-71942353D01*
X90953116Y-71936684D01*
X90953116Y-70695421D01*
X90953606Y-70632042D01*
X90955039Y-70570276D01*
X90957420Y-70508754D01*
X90960758Y-70447175D01*
X90965035Y-70385843D01*
X90970259Y-70324624D01*
X90976429Y-70263486D01*
X90983531Y-70202573D01*
X90991573Y-70141803D01*
X91000549Y-70081202D01*
X91010461Y-70020766D01*
X91021286Y-69960617D01*
X91033059Y-69900562D01*
X91045745Y-69840775D01*
X91059346Y-69781253D01*
X91073884Y-69721888D01*
X91089331Y-69662807D01*
X91105689Y-69604000D01*
X91122948Y-69545496D01*
X91141127Y-69487233D01*
X91160220Y-69429241D01*
X91180203Y-69371592D01*
X91201105Y-69314203D01*
X91222879Y-69257211D01*
X91245570Y-69200498D01*
X91269150Y-69144140D01*
X91293634Y-69088107D01*
X91319023Y-69032408D01*
X91345249Y-68977188D01*
X91372412Y-68922248D01*
X91400433Y-68867748D01*
X91430311Y-68811829D01*
X93345419Y-65279000D01*
X93472157Y-65279000D01*
X93472157Y-68579000D01*
X93479513Y-68653689D01*
X93501299Y-68725508D01*
X93536678Y-68791696D01*
X93584289Y-68849711D01*
X93642304Y-68897322D01*
X93708492Y-68932701D01*
X93780311Y-68954487D01*
X93855000Y-68961843D01*
X97355000Y-68961843D01*
X97429689Y-68954487D01*
X97501508Y-68932701D01*
X97567696Y-68897322D01*
X97625711Y-68849711D01*
X97673322Y-68791696D01*
X97708701Y-68725508D01*
X97730487Y-68653689D01*
X97737843Y-68579000D01*
X97737843Y-66389169D01*
X98024000Y-66389169D01*
X98024000Y-67468831D01*
X98234632Y-68527749D01*
X98647801Y-69525227D01*
X99247629Y-70422934D01*
X100011066Y-71186371D01*
X100908773Y-71786199D01*
X101906251Y-72199368D01*
X102965169Y-72410000D01*
X104044831Y-72410000D01*
X105103749Y-72199368D01*
X106101227Y-71786199D01*
X106998934Y-71186371D01*
X107762371Y-70422934D01*
X108362199Y-69525227D01*
X108775368Y-68527749D01*
X108986000Y-67468831D01*
X108986000Y-66389169D01*
X108775368Y-65330251D01*
X108754140Y-65279000D01*
X109272157Y-65279000D01*
X109272157Y-68579000D01*
X109279513Y-68653689D01*
X109301299Y-68725508D01*
X109336678Y-68791696D01*
X109384289Y-68849711D01*
X109442304Y-68897322D01*
X109508492Y-68932701D01*
X109580311Y-68954487D01*
X109655000Y-68961843D01*
X113155000Y-68961843D01*
X113229689Y-68954487D01*
X113301508Y-68932701D01*
X113367696Y-68897322D01*
X113425711Y-68849711D01*
X113473322Y-68791696D01*
X113508701Y-68725508D01*
X113530487Y-68653689D01*
X113537843Y-68579000D01*
X113537843Y-65279000D01*
X113530487Y-65204311D01*
X113508701Y-65132492D01*
X113473322Y-65066304D01*
X113425711Y-65008289D01*
X113367696Y-64960678D01*
X113301508Y-64925299D01*
X113229689Y-64903513D01*
X113155000Y-64896157D01*
X109655000Y-64896157D01*
X109580311Y-64903513D01*
X109508492Y-64925299D01*
X109442304Y-64960678D01*
X109384289Y-65008289D01*
X109336678Y-65066304D01*
X109301299Y-65132492D01*
X109279513Y-65204311D01*
X109272157Y-65279000D01*
X108754140Y-65279000D01*
X108362199Y-64332773D01*
X107762371Y-63435066D01*
X106998934Y-62671629D01*
X106101227Y-62071801D01*
X105103749Y-61658632D01*
X104044831Y-61448000D01*
X102965169Y-61448000D01*
X101906251Y-61658632D01*
X100908773Y-62071801D01*
X100011066Y-62671629D01*
X99247629Y-63435066D01*
X98647801Y-64332773D01*
X98234632Y-65330251D01*
X98024000Y-66389169D01*
X97737843Y-66389169D01*
X97737843Y-65279000D01*
X97730487Y-65204311D01*
X97708701Y-65132492D01*
X97673322Y-65066304D01*
X97625711Y-65008289D01*
X97567696Y-64960678D01*
X97501508Y-64925299D01*
X97429689Y-64903513D01*
X97355000Y-64896157D01*
X93855000Y-64896157D01*
X93780311Y-64903513D01*
X93708492Y-64925299D01*
X93642304Y-64960678D01*
X93584289Y-65008289D01*
X93536678Y-65066304D01*
X93501299Y-65132492D01*
X93479513Y-65204311D01*
X93472157Y-65279000D01*
X93345419Y-65279000D01*
X96125867Y-60149866D01*
X96136219Y-60133432D01*
X96138776Y-60130402D01*
X96141915Y-60127576D01*
X96145830Y-60124909D01*
X96150606Y-60122518D01*
X96156253Y-60120575D01*
X96162770Y-60119261D01*
X96182103Y-60117979D01*
X96269370Y-60118727D01*
X96278319Y-60117927D01*
X96287284Y-60118485D01*
X96292948Y-60118244D01*
X96323432Y-60116733D01*
X96347821Y-60113115D01*
X96372405Y-60111312D01*
X96377985Y-60110309D01*
X96429985Y-60100582D01*
X96460620Y-60091684D01*
X96491549Y-60083971D01*
X96496876Y-60082032D01*
X96546217Y-60063679D01*
X96574814Y-60049729D01*
X96603941Y-60036887D01*
X96608861Y-60034070D01*
X96654451Y-60007543D01*
X96680466Y-59988785D01*
X96707134Y-59971034D01*
X96711500Y-59967417D01*
X96752243Y-59933171D01*
X96769559Y-59915459D01*
X96788120Y-59899073D01*
X96791955Y-59894898D01*
X96812443Y-59872273D01*
X96827132Y-59852467D01*
X96843238Y-59833811D01*
X96846474Y-59829156D01*
X96876365Y-59785509D01*
X96891734Y-59757558D01*
X96908153Y-59730229D01*
X96910549Y-59725092D01*
X96932461Y-59677223D01*
X96942824Y-59647122D01*
X96954330Y-59617467D01*
X96955817Y-59611997D01*
X96969297Y-59561003D01*
X96974426Y-59529362D01*
X96980736Y-59497931D01*
X96981265Y-59492286D01*
X96985859Y-59439260D01*
X96985692Y-59424488D01*
X96987335Y-59409814D01*
X96987374Y-59404145D01*
X96985608Y-49469710D01*
X96986376Y-49408536D01*
X96988598Y-49347083D01*
X96992309Y-49283007D01*
X96997503Y-49216512D01*
X97004156Y-49147951D01*
X97012250Y-49077448D01*
X97021747Y-49005299D01*
X97032631Y-48931574D01*
X97044843Y-48856644D01*
X97058349Y-48780659D01*
X97073116Y-48703758D01*
X97089088Y-48626209D01*
X97106249Y-48548056D01*
X97124502Y-48469719D01*
X97143844Y-48391188D01*
X97164231Y-48312631D01*
X97185580Y-48234362D01*
X97207852Y-48156515D01*
X97230983Y-48079310D01*
X97254962Y-48002783D01*
X97279694Y-47927250D01*
X97305118Y-47852897D01*
X97331235Y-47779737D01*
X97357908Y-47708168D01*
X97385074Y-47638360D01*
X97412727Y-47570342D01*
X97440729Y-47504465D01*
X97469034Y-47440844D01*
X97497520Y-47379756D01*
X97526129Y-47321320D01*
X97554709Y-47265837D01*
X97584911Y-47210256D01*
X97887139Y-46661300D01*
X97887195Y-46661169D01*
X97887274Y-46661054D01*
X97889970Y-46656067D01*
X98174958Y-46119978D01*
X98175031Y-46119801D01*
X98175131Y-46119650D01*
X98177753Y-46114624D01*
X98445716Y-45591942D01*
X98445799Y-45591733D01*
X98445919Y-45591545D01*
X98448465Y-45586480D01*
X98700141Y-45076802D01*
X98700231Y-45076564D01*
X98700363Y-45076351D01*
X98702831Y-45071247D01*
X98938957Y-44574166D01*
X98939049Y-44573910D01*
X98939187Y-44573680D01*
X98941577Y-44568539D01*
X99162892Y-44083647D01*
X99162982Y-44083384D01*
X99163120Y-44083146D01*
X99165431Y-44077970D01*
X99372671Y-43604861D01*
X99372754Y-43604605D01*
X99372884Y-43604373D01*
X99375116Y-43599161D01*
X99569021Y-43137430D01*
X99569094Y-43137195D01*
X99569210Y-43136979D01*
X99571363Y-43131734D01*
X99752668Y-42680973D01*
X99752727Y-42680773D01*
X99752820Y-42680593D01*
X99754894Y-42675317D01*
X99924338Y-42235121D01*
X99924378Y-42234975D01*
X99924443Y-42234846D01*
X99926439Y-42229539D01*
X100084760Y-41799501D01*
X100084778Y-41799430D01*
X100084808Y-41799369D01*
X100086728Y-41794035D01*
X100234664Y-41373748D01*
X100234664Y-41373747D01*
X100236493Y-41368437D01*
X100374780Y-40957496D01*
X100374787Y-40957466D01*
X100376461Y-40952388D01*
X100505838Y-40550387D01*
X100505847Y-40550344D01*
X100507368Y-40545528D01*
X100628572Y-40152060D01*
X100628583Y-40152005D01*
X100629947Y-40147501D01*
X100743717Y-39762161D01*
X100743731Y-39762088D01*
X100744936Y-39757950D01*
X100852008Y-39380329D01*
X100852024Y-39380238D01*
X100853068Y-39376520D01*
X100954181Y-39006213D01*
X100954199Y-39006109D01*
X100955082Y-39002855D01*
X101050972Y-38639456D01*
X101050989Y-38639353D01*
X101051714Y-38636601D01*
X101143121Y-38279704D01*
X101143135Y-38279610D01*
X101143705Y-38277399D01*
X101231365Y-37926596D01*
X101231378Y-37926506D01*
X101231787Y-37924889D01*
X101316438Y-37579776D01*
X101316446Y-37579719D01*
X101316699Y-37578707D01*
X101399079Y-37238876D01*
X101399083Y-37238848D01*
X101399173Y-37238486D01*
X101479943Y-36903851D01*
X101559800Y-36574166D01*
X101639522Y-36248851D01*
X101719617Y-35928395D01*
X101730401Y-35886419D01*
X102051140Y-35886419D01*
X102051140Y-36168301D01*
X102106133Y-36444767D01*
X102214004Y-36705193D01*
X102370610Y-36939569D01*
X102569931Y-37138890D01*
X102804307Y-37295496D01*
X103064733Y-37403367D01*
X103341199Y-37458360D01*
X103623081Y-37458360D01*
X103899547Y-37403367D01*
X104159973Y-37295496D01*
X104394349Y-37138890D01*
X104593670Y-36939569D01*
X104750276Y-36705193D01*
X104858147Y-36444767D01*
X104913140Y-36168301D01*
X104913140Y-35886419D01*
X104858147Y-35609953D01*
X104750276Y-35349527D01*
X104593670Y-35115151D01*
X104394349Y-34915830D01*
X104159973Y-34759224D01*
X103899547Y-34651353D01*
X103623081Y-34596360D01*
X103341199Y-34596360D01*
X103064733Y-34651353D01*
X102804307Y-34759224D01*
X102569931Y-34915830D01*
X102370610Y-35115151D01*
X102214004Y-35349527D01*
X102106133Y-35609953D01*
X102051140Y-35886419D01*
X101730401Y-35886419D01*
X101800960Y-35611790D01*
X101884201Y-35298893D01*
X101970105Y-34989110D01*
X102059352Y-34682145D01*
X102150639Y-34384139D01*
X102199585Y-34249070D01*
X102254241Y-34131064D01*
X102316244Y-34023112D01*
X102385021Y-33924658D01*
X102460123Y-33835184D01*
X102541138Y-33754309D01*
X102627727Y-33681730D01*
X102719508Y-33617281D01*
X102816086Y-33560882D01*
X102917015Y-33512525D01*
X103021769Y-33472262D01*
X103129767Y-33440165D01*
X103240368Y-33416310D01*
X103352902Y-33400765D01*
X103466612Y-33393580D01*
X103580754Y-33394772D01*
G04 #@! TA.AperFunction,Conductor*
D27*
G36*
X103580754Y-33394772D02*
G01*
X103694580Y-33404325D01*
X103807296Y-33422187D01*
X103918164Y-33448280D01*
X104026463Y-33482491D01*
X104131509Y-33524698D01*
X104232641Y-33574756D01*
X104329313Y-33632558D01*
X104420959Y-33697985D01*
X104507126Y-33770996D01*
X104587424Y-33851650D01*
X104661423Y-33940041D01*
X104728745Y-34036414D01*
X104788953Y-34141108D01*
X104841539Y-34254546D01*
X104885897Y-34377225D01*
X104923337Y-34517264D01*
X104989580Y-34818802D01*
X105056035Y-35129510D01*
X105121667Y-35442350D01*
X105187071Y-35757661D01*
X105252783Y-36075493D01*
X105252788Y-36075510D01*
X105252860Y-36075868D01*
X105319494Y-36396636D01*
X105319513Y-36396698D01*
X105319702Y-36397627D01*
X105387823Y-36721494D01*
X105387845Y-36721565D01*
X105388158Y-36723074D01*
X105458380Y-37050458D01*
X105458410Y-37050552D01*
X105458846Y-37052601D01*
X105531787Y-37383922D01*
X105531818Y-37384018D01*
X105532384Y-37386592D01*
X105608659Y-37722271D01*
X105608692Y-37722369D01*
X105609390Y-37725430D01*
X105689616Y-38065888D01*
X105689649Y-38065985D01*
X105690484Y-38069495D01*
X105775276Y-38415148D01*
X105775302Y-38415221D01*
X105776282Y-38419163D01*
X105866258Y-38770434D01*
X105866284Y-38770506D01*
X105867405Y-38774809D01*
X105963181Y-39132117D01*
X105963200Y-39132168D01*
X105964468Y-39136805D01*
X106066659Y-39500570D01*
X106066670Y-39500599D01*
X106068086Y-39505528D01*
X106177309Y-39876170D01*
X106177317Y-39876191D01*
X106178873Y-39881352D01*
X106295744Y-40259290D01*
X106295748Y-40259299D01*
X106297442Y-40264650D01*
X106422578Y-40650306D01*
X106422602Y-40650362D01*
X106422616Y-40650424D01*
X106424405Y-40655803D01*
X106558421Y-41049596D01*
X106558475Y-41049716D01*
X106558504Y-41049838D01*
X106560371Y-41055191D01*
X106703884Y-41457538D01*
X106703960Y-41457699D01*
X106704002Y-41457867D01*
X106705948Y-41463192D01*
X106859574Y-41874516D01*
X106859665Y-41874703D01*
X106859718Y-41874900D01*
X106861744Y-41880195D01*
X107026099Y-42300915D01*
X107026198Y-42301110D01*
X107026259Y-42301325D01*
X107028364Y-42306589D01*
X107204066Y-42737124D01*
X107204169Y-42737319D01*
X107204232Y-42737530D01*
X107206416Y-42742761D01*
X107394079Y-43183534D01*
X107394179Y-43183717D01*
X107394241Y-43183913D01*
X107396503Y-43189112D01*
X107596744Y-43640539D01*
X107596834Y-43640699D01*
X107596892Y-43640872D01*
X107599231Y-43646037D01*
X107812666Y-44108539D01*
X107812744Y-44108672D01*
X107812791Y-44108807D01*
X107815205Y-44113936D01*
X108042452Y-44587935D01*
X108042506Y-44588024D01*
X108042542Y-44588123D01*
X108045031Y-44593217D01*
X108286703Y-45079130D01*
X108286734Y-45079179D01*
X108286752Y-45079227D01*
X108289313Y-45084284D01*
X108546028Y-45582532D01*
X108546031Y-45582537D01*
X108548657Y-45587549D01*
X108821031Y-46098552D01*
X108821040Y-46098566D01*
X108823670Y-46103423D01*
X109112320Y-46627601D01*
X109112333Y-46627620D01*
X109114961Y-46632321D01*
X109420065Y-47169324D01*
X109453071Y-47227980D01*
X109483975Y-47286151D01*
X109514839Y-47347504D01*
X109545563Y-47411856D01*
X109575977Y-47478845D01*
X109606080Y-47548457D01*
X109635722Y-47620334D01*
X109664815Y-47694242D01*
X109693342Y-47770111D01*
X109721203Y-47847662D01*
X109748303Y-47926599D01*
X109774637Y-48006882D01*
X109800104Y-48088190D01*
X109824678Y-48170414D01*
X109848287Y-48253298D01*
X109870877Y-48336638D01*
X109892419Y-48420315D01*
X109912840Y-48504044D01*
X109932131Y-48587784D01*
X109950185Y-48671075D01*
X109967030Y-48754051D01*
X109982557Y-48836194D01*
X109996761Y-48917495D01*
X110009590Y-48997689D01*
X110021010Y-49076576D01*
X110030983Y-49153945D01*
X110039477Y-49229577D01*
X110046458Y-49303195D01*
X110051902Y-49374569D01*
X110055800Y-49443556D01*
X110058130Y-49509697D01*
X110058936Y-49575543D01*
X110058422Y-59403040D01*
X110059129Y-59410255D01*
X110058679Y-59417483D01*
X110058919Y-59423147D01*
X110060429Y-59453631D01*
X110064047Y-59478028D01*
X110065851Y-59502618D01*
X110066854Y-59508198D01*
X110076581Y-59560197D01*
X110085480Y-59590836D01*
X110093193Y-59621764D01*
X110095132Y-59627092D01*
X110113486Y-59676433D01*
X110127440Y-59705038D01*
X110140277Y-59734153D01*
X110143094Y-59739073D01*
X110169621Y-59784663D01*
X110188379Y-59810678D01*
X110206130Y-59837346D01*
X110209747Y-59841712D01*
X110243993Y-59882455D01*
X110261699Y-59899765D01*
X110278084Y-59918326D01*
X110282260Y-59922161D01*
X110304884Y-59942649D01*
X110324692Y-59957340D01*
X110343352Y-59973450D01*
X110348007Y-59976686D01*
X110391654Y-60006577D01*
X110419597Y-60021942D01*
X110446940Y-60038368D01*
X110452078Y-60040764D01*
X110499945Y-60062674D01*
X110530041Y-60073035D01*
X110559696Y-60084541D01*
X110565166Y-60086028D01*
X110616160Y-60099508D01*
X110647801Y-60104637D01*
X110679225Y-60110946D01*
X110684870Y-60111475D01*
X110737897Y-60116070D01*
X110752076Y-60115910D01*
X110766163Y-60117529D01*
X110771832Y-60117584D01*
X110860155Y-60117827D01*
X110881780Y-60119261D01*
X110888292Y-60120574D01*
X110893934Y-60122515D01*
X110898710Y-60124906D01*
X110902625Y-60127573D01*
X110905763Y-60130399D01*
X110908328Y-60133438D01*
X110918701Y-60149905D01*
X115614099Y-68808052D01*
X115643711Y-68863775D01*
X115671783Y-68918643D01*
X115698979Y-68973909D01*
X115725262Y-69029483D01*
X115750686Y-69085483D01*
X115775159Y-69141693D01*
X115798793Y-69198367D01*
X115821518Y-69255339D01*
X115843320Y-69312565D01*
X115864243Y-69370156D01*
X115884245Y-69427994D01*
X115903340Y-69486111D01*
X115921542Y-69544557D01*
X115938826Y-69603241D01*
X115955199Y-69662197D01*
X115970634Y-69721307D01*
X115985193Y-69780824D01*
X115998794Y-69840405D01*
X116011492Y-69900293D01*
X116023260Y-69960373D01*
X116034096Y-70020614D01*
X116044010Y-70081094D01*
X116052980Y-70141673D01*
X116061030Y-70202523D01*
X116068135Y-70263470D01*
X116074300Y-70324552D01*
X116079526Y-70385811D01*
X116083807Y-70447216D01*
X116087143Y-70508738D01*
X116089525Y-70570292D01*
X116090958Y-70632040D01*
X116091449Y-70695430D01*
X116091449Y-71936684D01*
X116092174Y-71944075D01*
X116091719Y-71951486D01*
X116091965Y-71957149D01*
X116093780Y-71993111D01*
X116097139Y-72015614D01*
X116098608Y-72038296D01*
X116099563Y-72043884D01*
X116108820Y-72095822D01*
X116116274Y-72122331D01*
X116122128Y-72149226D01*
X116123905Y-72154609D01*
X116140472Y-72203614D01*
X116151589Y-72228261D01*
X116161147Y-72253540D01*
X116163695Y-72258604D01*
X116186975Y-72304077D01*
X116201334Y-72326434D01*
X116214216Y-72349665D01*
X116217469Y-72354309D01*
X116246863Y-72395656D01*
X116264127Y-72415509D01*
X116280032Y-72436437D01*
X116283915Y-72440567D01*
X116318831Y-72477189D01*
X116338705Y-72494324D01*
X116357407Y-72512739D01*
X116361840Y-72516272D01*
X116401678Y-72547574D01*
X116423976Y-72561811D01*
X116445298Y-72577468D01*
X116450193Y-72580328D01*
X116494358Y-72605713D01*
X116518857Y-72616770D01*
X116542594Y-72629340D01*
X116547854Y-72631456D01*
X116595748Y-72650326D01*
X116622072Y-72657826D01*
X116647881Y-72666904D01*
X116653396Y-72668216D01*
X116704423Y-72679976D01*
X116732005Y-72683548D01*
X116759319Y-72688722D01*
X116764968Y-72689190D01*
X116818531Y-72693243D01*
X116831056Y-72692965D01*
X116843496Y-72694360D01*
X116849165Y-72694400D01*
X117485455Y-72694400D01*
X117532151Y-72696778D01*
X117566966Y-72702130D01*
X117600526Y-72710813D01*
X117632831Y-72722696D01*
X117663798Y-72737671D01*
X117693253Y-72755614D01*
X117720925Y-72776341D01*
X117746556Y-72799650D01*
X117769868Y-72825285D01*
X117790594Y-72852957D01*
X117808531Y-72882401D01*
X117823511Y-72913378D01*
X117835394Y-72945682D01*
X117844075Y-72979238D01*
X117849430Y-73014071D01*
X117851807Y-73060740D01*
X117851807Y-73713615D01*
X117851956Y-73715134D01*
X117851819Y-73716647D01*
X117851900Y-73722315D01*
X117853795Y-73810727D01*
X117854496Y-73816581D01*
X117854217Y-73822466D01*
X117854542Y-73828126D01*
X117860204Y-73916022D01*
X117861155Y-73921841D01*
X117861129Y-73927731D01*
X117861696Y-73933372D01*
X117871090Y-74020648D01*
X117872288Y-74026412D01*
X117872514Y-74032291D01*
X117873322Y-74037902D01*
X117886410Y-74124454D01*
X117887853Y-74130157D01*
X117888330Y-74136019D01*
X117889378Y-74141591D01*
X117906124Y-74227315D01*
X117907811Y-74232953D01*
X117908538Y-74238787D01*
X117909823Y-74244309D01*
X117930193Y-74329104D01*
X117932117Y-74334658D01*
X117933092Y-74340446D01*
X117934612Y-74345907D01*
X117958567Y-74429668D01*
X117960728Y-74435136D01*
X117961950Y-74440880D01*
X117963702Y-74446271D01*
X117991208Y-74528895D01*
X117993599Y-74534262D01*
X117995065Y-74539945D01*
X117997047Y-74545257D01*
X118028067Y-74626640D01*
X118030684Y-74631897D01*
X118032393Y-74637516D01*
X118034600Y-74642738D01*
X118069098Y-74722778D01*
X118071937Y-74727918D01*
X118073883Y-74733453D01*
X118076312Y-74738576D01*
X118114251Y-74817170D01*
X118117311Y-74822189D01*
X118119494Y-74827642D01*
X118122139Y-74832656D01*
X118163485Y-74909700D01*
X118166755Y-74914581D01*
X118169170Y-74919936D01*
X118172028Y-74924832D01*
X118216743Y-75000222D01*
X118220223Y-75004964D01*
X118222865Y-75010211D01*
X118225929Y-75014981D01*
X118273978Y-75088613D01*
X118277656Y-75093200D01*
X118280522Y-75098332D01*
X118283788Y-75102966D01*
X118335135Y-75174740D01*
X118339008Y-75179167D01*
X118342089Y-75184169D01*
X118345551Y-75188659D01*
X118400159Y-75258470D01*
X118401578Y-75259958D01*
X118402699Y-75261684D01*
X118406268Y-75266089D01*
X119069194Y-76072815D01*
X119106027Y-76119672D01*
X119138122Y-76164349D01*
X119168191Y-76210265D01*
X119196174Y-76257293D01*
X119222088Y-76305432D01*
X119245870Y-76354551D01*
X119267507Y-76404591D01*
X119286983Y-76455510D01*
X119304257Y-76507197D01*
X119319316Y-76559615D01*
X119332127Y-76612672D01*
X119342666Y-76666297D01*
X119350903Y-76720395D01*
X119356822Y-76774956D01*
X119360392Y-76829868D01*
X119361684Y-76889493D01*
X119361684Y-108012337D01*
X119359730Y-108085786D01*
X119354343Y-108153216D01*
X119345436Y-108219974D01*
X119333073Y-108285895D01*
X119317302Y-108350920D01*
X119298183Y-108414920D01*
X119275774Y-108477758D01*
X119250116Y-108539357D01*
X119221283Y-108599551D01*
X119189326Y-108658231D01*
X119154300Y-108715276D01*
X119116244Y-108770591D01*
X119075243Y-108824006D01*
X119031316Y-108875447D01*
X118984532Y-108924772D01*
X118931734Y-108974905D01*
X118114424Y-109704520D01*
X118114388Y-109704559D01*
X118114351Y-109704586D01*
X118110149Y-109708392D01*
X118070019Y-109745254D01*
X118068297Y-109747178D01*
X118066256Y-109748755D01*
X118062157Y-109752671D01*
X118023134Y-109790480D01*
X118021474Y-109792437D01*
X118019490Y-109794056D01*
X118015496Y-109798079D01*
X117977591Y-109836807D01*
X117975992Y-109838797D01*
X117974063Y-109840458D01*
X117970177Y-109844586D01*
X117933400Y-109884207D01*
X117931860Y-109886231D01*
X117929977Y-109887941D01*
X117926202Y-109892170D01*
X117890564Y-109932660D01*
X117889082Y-109934719D01*
X117887255Y-109936468D01*
X117883592Y-109940795D01*
X117849105Y-109982127D01*
X117847685Y-109984214D01*
X117845911Y-109986004D01*
X117842364Y-109990426D01*
X117809038Y-110032575D01*
X117807681Y-110034687D01*
X117805963Y-110036514D01*
X117802533Y-110041028D01*
X117770379Y-110083967D01*
X117769080Y-110086110D01*
X117767415Y-110087977D01*
X117764104Y-110092580D01*
X117733134Y-110136283D01*
X117731895Y-110138453D01*
X117730284Y-110140358D01*
X117727096Y-110145045D01*
X117697320Y-110189488D01*
X117696145Y-110191678D01*
X117694590Y-110193617D01*
X117691525Y-110198386D01*
X117662954Y-110243541D01*
X117661835Y-110245764D01*
X117660333Y-110247741D01*
X117657394Y-110252589D01*
X117630040Y-110298432D01*
X117628984Y-110300673D01*
X117627540Y-110302681D01*
X117624728Y-110307604D01*
X117598601Y-110354108D01*
X117597605Y-110356375D01*
X117596215Y-110358417D01*
X117593533Y-110363411D01*
X117568644Y-110410551D01*
X117567707Y-110412843D01*
X117566371Y-110414921D01*
X117563820Y-110419983D01*
X117540181Y-110467733D01*
X117539307Y-110470042D01*
X117538029Y-110472148D01*
X117535611Y-110477275D01*
X117513232Y-110525608D01*
X117512418Y-110527939D01*
X117511195Y-110530079D01*
X117508912Y-110535268D01*
X117487804Y-110584159D01*
X117487051Y-110586511D01*
X117485883Y-110588684D01*
X117483735Y-110593931D01*
X117463909Y-110643355D01*
X117463218Y-110645726D01*
X117462107Y-110647928D01*
X117460097Y-110653229D01*
X117441563Y-110703160D01*
X117440931Y-110705557D01*
X117439876Y-110707793D01*
X117438005Y-110713144D01*
X117420777Y-110763556D01*
X117420209Y-110765965D01*
X117419213Y-110768226D01*
X117417482Y-110773624D01*
X117401568Y-110824490D01*
X117401061Y-110826923D01*
X117400120Y-110829220D01*
X117398531Y-110834662D01*
X117383944Y-110885956D01*
X117383500Y-110888407D01*
X117382618Y-110890731D01*
X117381172Y-110896213D01*
X117367922Y-110947911D01*
X117367541Y-110950376D01*
X117366718Y-110952731D01*
X117365416Y-110958248D01*
X117353514Y-111010323D01*
X117353197Y-111012810D01*
X117352434Y-111015189D01*
X117351277Y-111020739D01*
X117340734Y-111073165D01*
X117340481Y-111075665D01*
X117339778Y-111078076D01*
X117338767Y-111083654D01*
X117329594Y-111136407D01*
X117329406Y-111138931D01*
X117328764Y-111141368D01*
X117327900Y-111146971D01*
X117320109Y-111200023D01*
X117319987Y-111202552D01*
X117319409Y-111205009D01*
X117318694Y-111210633D01*
X117312294Y-111263959D01*
X117312239Y-111266504D01*
X117311722Y-111268993D01*
X117311156Y-111274633D01*
X117306159Y-111328208D01*
X117306171Y-111330770D01*
X117305718Y-111333286D01*
X117305301Y-111338939D01*
X117301719Y-111392735D01*
X117301799Y-111395299D01*
X117301412Y-111397832D01*
X117301146Y-111403495D01*
X117298988Y-111457488D01*
X117299137Y-111460066D01*
X117298815Y-111462630D01*
X117298700Y-111468298D01*
X117297979Y-111522462D01*
X117297981Y-111522485D01*
X117297943Y-111527866D01*
X117297943Y-120941271D01*
X117283663Y-120906796D01*
X117248283Y-120840606D01*
X117193827Y-120759107D01*
X117146216Y-120701092D01*
X117076908Y-120631784D01*
X117018893Y-120584173D01*
X116937394Y-120529717D01*
X116871204Y-120494337D01*
X116780648Y-120456828D01*
X116708831Y-120435043D01*
X116612698Y-120415921D01*
X116538009Y-120408565D01*
X116513450Y-120408565D01*
X116489000Y-120406157D01*
X115939000Y-120406157D01*
X115864311Y-120413513D01*
X115814000Y-120428775D01*
X115763689Y-120413513D01*
X115689000Y-120406157D01*
X114689000Y-120406157D01*
X114614311Y-120413513D01*
X114542492Y-120435299D01*
X114476304Y-120470678D01*
X114418289Y-120518289D01*
X114370678Y-120576304D01*
X114335299Y-120642492D01*
X114313513Y-120714311D01*
X114306157Y-120789000D01*
X114306157Y-122289000D01*
X114313513Y-122363689D01*
X114335299Y-122435508D01*
X114352132Y-122466999D01*
X100832353Y-122466999D01*
X100807499Y-122464551D01*
X100782645Y-122466999D01*
X100708306Y-122474321D01*
X100612924Y-122503254D01*
X100525020Y-122550240D01*
X100447972Y-122613472D01*
X100432128Y-122632778D01*
X100090284Y-122974623D01*
X100070972Y-122990472D01*
X100007740Y-123067520D01*
X99960754Y-123155425D01*
X99931821Y-123250807D01*
X99924499Y-123325146D01*
X99924499Y-123325153D01*
X99922052Y-123349999D01*
X99924499Y-123374845D01*
X99924500Y-125444686D01*
X97837598Y-123357785D01*
X97821749Y-123338473D01*
X97744701Y-123275241D01*
X97656797Y-123228255D01*
X97561415Y-123199322D01*
X97487076Y-123192000D01*
X97487068Y-123192000D01*
X97462222Y-123189553D01*
X97437376Y-123192000D01*
X97182001Y-123192000D01*
X97081359Y-123091358D01*
X96953442Y-123005887D01*
X96811309Y-122947013D01*
X96660422Y-122917000D01*
X96506578Y-122917000D01*
X96355691Y-122947013D01*
X96213558Y-123005887D01*
X96085641Y-123091358D01*
X95976858Y-123200141D01*
X95891387Y-123328058D01*
X95832513Y-123470191D01*
X95802500Y-123621078D01*
X95802500Y-123774922D01*
X95830761Y-123917001D01*
X95676593Y-123917001D01*
X95523000Y-123763408D01*
X95523000Y-123621078D01*
X95492987Y-123470191D01*
X95434113Y-123328058D01*
X95348642Y-123200141D01*
X95239859Y-123091358D01*
X95111942Y-123005887D01*
X94969809Y-122947013D01*
X94818922Y-122917000D01*
X94665078Y-122917000D01*
X94514191Y-122947013D01*
X94372058Y-123005887D01*
X94244141Y-123091358D01*
X94239089Y-123096410D01*
X94194190Y-123012411D01*
X94115488Y-122916512D01*
X94019589Y-122837810D01*
X93910179Y-122779329D01*
X93791462Y-122743317D01*
X93724000Y-122736672D01*
X93724000Y-122485943D01*
X93772408Y-122446216D01*
X93841716Y-122376908D01*
X93889327Y-122318893D01*
X93943783Y-122237394D01*
X93979163Y-122171204D01*
X94016672Y-122080648D01*
X94038457Y-122008831D01*
X94057579Y-121912698D01*
X94064935Y-121838009D01*
X94064935Y-121813450D01*
X94067343Y-121789000D01*
X94067343Y-121289000D01*
X94064935Y-121264550D01*
X94064935Y-121239991D01*
X94057579Y-121165302D01*
X94038457Y-121069169D01*
X94016672Y-120997352D01*
X93979163Y-120906796D01*
X93943783Y-120840606D01*
X93889327Y-120759107D01*
X93841716Y-120701092D01*
X93772408Y-120631784D01*
X93714393Y-120584173D01*
X93632894Y-120529717D01*
X93566704Y-120494337D01*
X93476148Y-120456828D01*
X93404331Y-120435043D01*
X93308198Y-120415921D01*
X93233509Y-120408565D01*
X93208950Y-120408565D01*
X93184500Y-120406157D01*
X92634500Y-120406157D01*
X92559811Y-120413513D01*
X92509500Y-120428775D01*
X92459189Y-120413513D01*
X92384500Y-120406157D01*
X91384500Y-120406157D01*
X91309811Y-120413513D01*
X91259500Y-120428775D01*
X91209189Y-120413513D01*
X91134500Y-120406157D01*
X90584500Y-120406157D01*
X90560050Y-120408565D01*
X90535491Y-120408565D01*
X90460802Y-120415921D01*
X90364669Y-120435043D01*
X90292852Y-120456828D01*
X90202296Y-120494337D01*
X90136106Y-120529717D01*
X90054607Y-120584173D01*
X89996592Y-120631784D01*
X89927284Y-120701092D01*
X89879673Y-120759107D01*
X89825217Y-120840606D01*
X89789837Y-120906796D01*
X89752328Y-120997352D01*
X89746601Y-121016232D01*
X89746601Y-111527866D01*
X89746599Y-111527848D01*
X89746565Y-111522455D01*
X89745843Y-111468291D01*
X89745557Y-111465727D01*
X89745742Y-111463154D01*
X89745555Y-111457488D01*
X89743397Y-111403495D01*
X89743045Y-111400955D01*
X89743161Y-111398394D01*
X89742824Y-111392735D01*
X89739242Y-111338939D01*
X89738824Y-111336418D01*
X89738872Y-111333863D01*
X89738385Y-111328215D01*
X89733389Y-111274641D01*
X89732907Y-111272143D01*
X89732887Y-111269600D01*
X89732251Y-111263966D01*
X89725852Y-111210641D01*
X89725306Y-111208164D01*
X89725219Y-111205630D01*
X89724434Y-111200016D01*
X89716642Y-111146964D01*
X89716034Y-111144517D01*
X89715882Y-111142006D01*
X89714951Y-111136414D01*
X89705779Y-111083662D01*
X89705108Y-111081238D01*
X89704891Y-111078737D01*
X89703813Y-111073172D01*
X89693271Y-111020746D01*
X89692540Y-111018350D01*
X89692258Y-111015866D01*
X89691034Y-111010331D01*
X89679133Y-110958256D01*
X89678340Y-110955883D01*
X89677994Y-110953412D01*
X89676625Y-110947911D01*
X89663375Y-110896213D01*
X89662526Y-110893877D01*
X89662117Y-110891427D01*
X89660605Y-110885963D01*
X89646019Y-110834669D01*
X89645110Y-110832358D01*
X89644637Y-110829919D01*
X89642982Y-110824497D01*
X89627069Y-110773631D01*
X89626103Y-110771352D01*
X89625568Y-110768933D01*
X89623772Y-110763556D01*
X89606544Y-110713145D01*
X89605519Y-110710893D01*
X89604923Y-110708495D01*
X89602988Y-110703166D01*
X89584456Y-110653236D01*
X89583374Y-110651014D01*
X89582717Y-110648638D01*
X89580644Y-110643361D01*
X89560819Y-110593937D01*
X89559680Y-110591745D01*
X89558961Y-110589386D01*
X89556750Y-110584166D01*
X89535643Y-110535274D01*
X89534447Y-110533112D01*
X89533666Y-110530770D01*
X89531320Y-110525609D01*
X89508941Y-110477275D01*
X89507689Y-110475145D01*
X89506850Y-110472832D01*
X89504371Y-110467733D01*
X89480732Y-110419983D01*
X89479423Y-110417883D01*
X89478520Y-110415583D01*
X89475908Y-110410551D01*
X89451019Y-110363411D01*
X89449656Y-110361346D01*
X89448693Y-110359070D01*
X89445951Y-110354108D01*
X89419824Y-110307604D01*
X89418406Y-110305573D01*
X89417383Y-110303321D01*
X89414513Y-110298432D01*
X89387158Y-110252589D01*
X89385681Y-110250588D01*
X89384595Y-110248353D01*
X89381598Y-110243541D01*
X89353027Y-110198386D01*
X89351499Y-110196424D01*
X89350355Y-110194220D01*
X89347233Y-110189488D01*
X89317456Y-110145045D01*
X89315870Y-110143116D01*
X89314663Y-110140931D01*
X89311418Y-110136283D01*
X89280448Y-110092580D01*
X89278807Y-110090687D01*
X89277540Y-110088530D01*
X89274174Y-110083968D01*
X89242019Y-110041028D01*
X89240322Y-110039172D01*
X89238995Y-110037042D01*
X89235510Y-110032570D01*
X89202183Y-109990421D01*
X89200431Y-109988602D01*
X89199043Y-109986501D01*
X89195442Y-109982123D01*
X89160954Y-109940790D01*
X89159147Y-109939010D01*
X89157698Y-109936938D01*
X89153983Y-109932656D01*
X89118344Y-109892166D01*
X89116483Y-109890427D01*
X89114973Y-109888385D01*
X89111146Y-109884203D01*
X89074368Y-109844582D01*
X89072454Y-109842886D01*
X89070886Y-109840879D01*
X89066949Y-109836799D01*
X89029042Y-109798072D01*
X89027079Y-109796424D01*
X89025448Y-109794446D01*
X89021405Y-109790473D01*
X88982379Y-109752664D01*
X88980361Y-109751059D01*
X88978669Y-109749115D01*
X88974521Y-109745251D01*
X88934391Y-109708389D01*
X88934349Y-109708358D01*
X88930766Y-109705099D01*
X88116647Y-108975197D01*
X88063535Y-108924766D01*
X88016738Y-108875432D01*
X87972794Y-108823984D01*
X87931752Y-108770540D01*
X87893696Y-108715267D01*
X87858643Y-108658236D01*
X87826658Y-108599588D01*
X87797833Y-108539521D01*
X87772176Y-108478066D01*
X87749772Y-108415421D01*
X87730677Y-108351718D01*
X87714929Y-108287045D01*
X87702588Y-108221548D01*
X87693709Y-108155358D01*
X87688338Y-108088544D01*
X87686391Y-108015835D01*
X87686391Y-91793634D01*
X90419561Y-91793634D01*
X90419561Y-93265596D01*
X90584368Y-94728302D01*
X90911910Y-96163358D01*
X91398068Y-97552718D01*
X92036728Y-98878909D01*
X92819859Y-100125254D01*
X93737612Y-101276080D01*
X94778446Y-102316914D01*
X95929272Y-103234667D01*
X97175617Y-104017798D01*
X98501808Y-104656458D01*
X99891168Y-105142616D01*
X101326224Y-105470158D01*
X102788930Y-105634965D01*
X104260892Y-105634965D01*
X105723598Y-105470158D01*
X107158654Y-105142616D01*
X108548014Y-104656458D01*
X109874205Y-104017798D01*
X111120550Y-103234667D01*
X112271376Y-102316914D01*
X113312210Y-101276080D01*
X114229963Y-100125254D01*
X115013094Y-98878909D01*
X115651754Y-97552718D01*
X116137912Y-96163358D01*
X116465454Y-94728302D01*
X116630261Y-93265596D01*
X116630261Y-91793634D01*
X116465454Y-90330928D01*
X116137912Y-88895872D01*
X115651754Y-87506512D01*
X115013094Y-86180321D01*
X114229963Y-84933976D01*
X113312210Y-83783150D01*
X112271376Y-82742316D01*
X111120550Y-81824563D01*
X109874205Y-81041432D01*
X108548014Y-80402772D01*
X107158654Y-79916614D01*
X105723598Y-79589072D01*
X104260892Y-79424265D01*
X102788930Y-79424265D01*
X101326224Y-79589072D01*
X99891168Y-79916614D01*
X98501808Y-80402772D01*
X97175617Y-81041432D01*
X95929272Y-81824563D01*
X94778446Y-82742316D01*
X93737612Y-83783150D01*
X92819859Y-84933976D01*
X92036728Y-86180321D01*
X91398068Y-87506512D01*
X90911910Y-88895872D01*
X90584368Y-90330928D01*
X90419561Y-91793634D01*
X87686391Y-91793634D01*
X87686391Y-76889470D01*
X87687673Y-76829962D01*
X87691224Y-76775103D01*
X87697109Y-76720605D01*
X87705308Y-76666509D01*
X87715794Y-76612920D01*
X87728546Y-76559892D01*
X87743540Y-76507498D01*
X87760745Y-76455837D01*
X87780124Y-76405010D01*
X87801683Y-76355014D01*
X87825352Y-76306024D01*
X87851149Y-76258023D01*
X87879008Y-76211163D01*
X87908934Y-76165458D01*
X87940875Y-76121023D01*
X87978345Y-76073435D01*
X88639492Y-75261071D01*
X88639609Y-75260895D01*
X88639753Y-75260749D01*
X88643297Y-75256323D01*
X88697904Y-75187135D01*
X88701161Y-75182059D01*
X88705207Y-75177594D01*
X88708554Y-75173019D01*
X88759901Y-75101789D01*
X88762927Y-75096586D01*
X88766765Y-75091963D01*
X88769911Y-75087247D01*
X88817960Y-75014085D01*
X88820749Y-75008771D01*
X88824371Y-75004001D01*
X88827309Y-74999153D01*
X88872024Y-74924168D01*
X88874571Y-74918758D01*
X88877976Y-74913845D01*
X88880701Y-74908874D01*
X88922047Y-74832172D01*
X88924352Y-74826670D01*
X88927532Y-74821629D01*
X88930040Y-74816544D01*
X88967979Y-74738237D01*
X88970039Y-74732653D01*
X88972988Y-74727499D01*
X88975274Y-74722311D01*
X89009772Y-74642504D01*
X89011584Y-74636854D01*
X89014304Y-74631585D01*
X89016365Y-74626304D01*
X89047385Y-74545107D01*
X89048949Y-74539394D01*
X89051436Y-74534022D01*
X89053267Y-74528657D01*
X89080773Y-74446178D01*
X89082087Y-74440413D01*
X89084338Y-74434947D01*
X89085937Y-74429508D01*
X89109892Y-74345857D01*
X89110955Y-74340052D01*
X89112966Y-74334504D01*
X89114330Y-74329002D01*
X89134700Y-74244285D01*
X89135513Y-74238439D01*
X89137284Y-74232809D01*
X89138411Y-74227253D01*
X89155156Y-74141580D01*
X89155717Y-74135710D01*
X89157242Y-74130020D01*
X89158130Y-74124421D01*
X89171218Y-74037902D01*
X89171527Y-74032014D01*
X89172806Y-74026265D01*
X89173453Y-74020633D01*
X89182847Y-73933373D01*
X89182903Y-73927474D01*
X89183935Y-73921672D01*
X89184339Y-73916017D01*
X89190001Y-73828128D01*
X89189804Y-73822237D01*
X89190586Y-73816399D01*
X89190748Y-73810732D01*
X89192644Y-73722320D01*
X89192527Y-73720796D01*
X89192697Y-73719284D01*
X89192737Y-73713615D01*
X89192737Y-73057060D01*
X89195104Y-73009986D01*
X89200437Y-72974926D01*
X89209036Y-72941406D01*
X89220733Y-72909406D01*
X89235414Y-72878919D01*
X89252942Y-72850086D01*
X89273178Y-72823070D01*
X89295946Y-72798087D01*
X89321043Y-72775362D01*
X89348259Y-72755109D01*
X89377404Y-72737510D01*
X89408310Y-72722728D01*
X89440867Y-72710912D01*
X89475056Y-72702206D01*
X89510941Y-72696789D01*
X89558857Y-72694400D01*
X90195400Y-72694400D01*
X90202800Y-72693674D01*
X90210213Y-72694129D01*
X90215877Y-72693883D01*
X90251838Y-72692067D01*
X90274331Y-72688709D01*
X90297012Y-72687240D01*
X90302600Y-72686285D01*
X90354538Y-72677028D01*
X90381047Y-72669574D01*
X90407942Y-72663720D01*
X90413325Y-72661943D01*
X90462330Y-72645376D01*
X90486976Y-72634259D01*
X90512249Y-72624704D01*
X90517314Y-72622156D01*
X90562786Y-72598878D01*
X90585151Y-72584515D01*
X90608387Y-72571629D01*
X90613030Y-72568377D01*
X90654377Y-72538981D01*
X90674219Y-72521725D01*
X90695149Y-72505820D01*
X90699279Y-72501937D01*
X90735901Y-72467022D01*
X90753038Y-72447145D01*
X90771455Y-72428442D01*
X90774988Y-72424009D01*
X90806290Y-72384171D01*
X90820532Y-72361866D01*
X90836186Y-72340547D01*
X90839046Y-72335652D01*
X90864431Y-72291487D01*
X90875487Y-72266989D01*
X90888056Y-72243254D01*
X90890172Y-72237994D01*
X90909042Y-72190100D01*
X90916541Y-72163782D01*
X90925620Y-72137969D01*
X90926932Y-72132454D01*
X90938692Y-72081427D01*
X90942264Y-72053842D01*
X90947438Y-72026530D01*
X90947906Y-72020881D01*
X90951959Y-71967318D01*
X90951681Y-71954793D01*
X90953076Y-71942353D01*
X90953116Y-71936684D01*
X90953116Y-70695421D01*
X90953606Y-70632042D01*
X90955039Y-70570276D01*
X90957420Y-70508754D01*
X90960758Y-70447175D01*
X90965035Y-70385843D01*
X90970259Y-70324624D01*
X90976429Y-70263486D01*
X90983531Y-70202573D01*
X90991573Y-70141803D01*
X91000549Y-70081202D01*
X91010461Y-70020766D01*
X91021286Y-69960617D01*
X91033059Y-69900562D01*
X91045745Y-69840775D01*
X91059346Y-69781253D01*
X91073884Y-69721888D01*
X91089331Y-69662807D01*
X91105689Y-69604000D01*
X91122948Y-69545496D01*
X91141127Y-69487233D01*
X91160220Y-69429241D01*
X91180203Y-69371592D01*
X91201105Y-69314203D01*
X91222879Y-69257211D01*
X91245570Y-69200498D01*
X91269150Y-69144140D01*
X91293634Y-69088107D01*
X91319023Y-69032408D01*
X91345249Y-68977188D01*
X91372412Y-68922248D01*
X91400433Y-68867748D01*
X91430311Y-68811829D01*
X93345419Y-65279000D01*
X93472157Y-65279000D01*
X93472157Y-68579000D01*
X93479513Y-68653689D01*
X93501299Y-68725508D01*
X93536678Y-68791696D01*
X93584289Y-68849711D01*
X93642304Y-68897322D01*
X93708492Y-68932701D01*
X93780311Y-68954487D01*
X93855000Y-68961843D01*
X97355000Y-68961843D01*
X97429689Y-68954487D01*
X97501508Y-68932701D01*
X97567696Y-68897322D01*
X97625711Y-68849711D01*
X97673322Y-68791696D01*
X97708701Y-68725508D01*
X97730487Y-68653689D01*
X97737843Y-68579000D01*
X97737843Y-66389169D01*
X98024000Y-66389169D01*
X98024000Y-67468831D01*
X98234632Y-68527749D01*
X98647801Y-69525227D01*
X99247629Y-70422934D01*
X100011066Y-71186371D01*
X100908773Y-71786199D01*
X101906251Y-72199368D01*
X102965169Y-72410000D01*
X104044831Y-72410000D01*
X105103749Y-72199368D01*
X106101227Y-71786199D01*
X106998934Y-71186371D01*
X107762371Y-70422934D01*
X108362199Y-69525227D01*
X108775368Y-68527749D01*
X108986000Y-67468831D01*
X108986000Y-66389169D01*
X108775368Y-65330251D01*
X108754140Y-65279000D01*
X109272157Y-65279000D01*
X109272157Y-68579000D01*
X109279513Y-68653689D01*
X109301299Y-68725508D01*
X109336678Y-68791696D01*
X109384289Y-68849711D01*
X109442304Y-68897322D01*
X109508492Y-68932701D01*
X109580311Y-68954487D01*
X109655000Y-68961843D01*
X113155000Y-68961843D01*
X113229689Y-68954487D01*
X113301508Y-68932701D01*
X113367696Y-68897322D01*
X113425711Y-68849711D01*
X113473322Y-68791696D01*
X113508701Y-68725508D01*
X113530487Y-68653689D01*
X113537843Y-68579000D01*
X113537843Y-65279000D01*
X113530487Y-65204311D01*
X113508701Y-65132492D01*
X113473322Y-65066304D01*
X113425711Y-65008289D01*
X113367696Y-64960678D01*
X113301508Y-64925299D01*
X113229689Y-64903513D01*
X113155000Y-64896157D01*
X109655000Y-64896157D01*
X109580311Y-64903513D01*
X109508492Y-64925299D01*
X109442304Y-64960678D01*
X109384289Y-65008289D01*
X109336678Y-65066304D01*
X109301299Y-65132492D01*
X109279513Y-65204311D01*
X109272157Y-65279000D01*
X108754140Y-65279000D01*
X108362199Y-64332773D01*
X107762371Y-63435066D01*
X106998934Y-62671629D01*
X106101227Y-62071801D01*
X105103749Y-61658632D01*
X104044831Y-61448000D01*
X102965169Y-61448000D01*
X101906251Y-61658632D01*
X100908773Y-62071801D01*
X100011066Y-62671629D01*
X99247629Y-63435066D01*
X98647801Y-64332773D01*
X98234632Y-65330251D01*
X98024000Y-66389169D01*
X97737843Y-66389169D01*
X97737843Y-65279000D01*
X97730487Y-65204311D01*
X97708701Y-65132492D01*
X97673322Y-65066304D01*
X97625711Y-65008289D01*
X97567696Y-64960678D01*
X97501508Y-64925299D01*
X97429689Y-64903513D01*
X97355000Y-64896157D01*
X93855000Y-64896157D01*
X93780311Y-64903513D01*
X93708492Y-64925299D01*
X93642304Y-64960678D01*
X93584289Y-65008289D01*
X93536678Y-65066304D01*
X93501299Y-65132492D01*
X93479513Y-65204311D01*
X93472157Y-65279000D01*
X93345419Y-65279000D01*
X96125867Y-60149866D01*
X96136219Y-60133432D01*
X96138776Y-60130402D01*
X96141915Y-60127576D01*
X96145830Y-60124909D01*
X96150606Y-60122518D01*
X96156253Y-60120575D01*
X96162770Y-60119261D01*
X96182103Y-60117979D01*
X96269370Y-60118727D01*
X96278319Y-60117927D01*
X96287284Y-60118485D01*
X96292948Y-60118244D01*
X96323432Y-60116733D01*
X96347821Y-60113115D01*
X96372405Y-60111312D01*
X96377985Y-60110309D01*
X96429985Y-60100582D01*
X96460620Y-60091684D01*
X96491549Y-60083971D01*
X96496876Y-60082032D01*
X96546217Y-60063679D01*
X96574814Y-60049729D01*
X96603941Y-60036887D01*
X96608861Y-60034070D01*
X96654451Y-60007543D01*
X96680466Y-59988785D01*
X96707134Y-59971034D01*
X96711500Y-59967417D01*
X96752243Y-59933171D01*
X96769559Y-59915459D01*
X96788120Y-59899073D01*
X96791955Y-59894898D01*
X96812443Y-59872273D01*
X96827132Y-59852467D01*
X96843238Y-59833811D01*
X96846474Y-59829156D01*
X96876365Y-59785509D01*
X96891734Y-59757558D01*
X96908153Y-59730229D01*
X96910549Y-59725092D01*
X96932461Y-59677223D01*
X96942824Y-59647122D01*
X96954330Y-59617467D01*
X96955817Y-59611997D01*
X96969297Y-59561003D01*
X96974426Y-59529362D01*
X96980736Y-59497931D01*
X96981265Y-59492286D01*
X96985859Y-59439260D01*
X96985692Y-59424488D01*
X96987335Y-59409814D01*
X96987374Y-59404145D01*
X96985608Y-49469710D01*
X96986376Y-49408536D01*
X96988598Y-49347083D01*
X96992309Y-49283007D01*
X96997503Y-49216512D01*
X97004156Y-49147951D01*
X97012250Y-49077448D01*
X97021747Y-49005299D01*
X97032631Y-48931574D01*
X97044843Y-48856644D01*
X97058349Y-48780659D01*
X97073116Y-48703758D01*
X97089088Y-48626209D01*
X97106249Y-48548056D01*
X97124502Y-48469719D01*
X97143844Y-48391188D01*
X97164231Y-48312631D01*
X97185580Y-48234362D01*
X97207852Y-48156515D01*
X97230983Y-48079310D01*
X97254962Y-48002783D01*
X97279694Y-47927250D01*
X97305118Y-47852897D01*
X97331235Y-47779737D01*
X97357908Y-47708168D01*
X97385074Y-47638360D01*
X97412727Y-47570342D01*
X97440729Y-47504465D01*
X97469034Y-47440844D01*
X97497520Y-47379756D01*
X97526129Y-47321320D01*
X97554709Y-47265837D01*
X97584911Y-47210256D01*
X97887139Y-46661300D01*
X97887195Y-46661169D01*
X97887274Y-46661054D01*
X97889970Y-46656067D01*
X98174958Y-46119978D01*
X98175031Y-46119801D01*
X98175131Y-46119650D01*
X98177753Y-46114624D01*
X98445716Y-45591942D01*
X98445799Y-45591733D01*
X98445919Y-45591545D01*
X98448465Y-45586480D01*
X98700141Y-45076802D01*
X98700231Y-45076564D01*
X98700363Y-45076351D01*
X98702831Y-45071247D01*
X98938957Y-44574166D01*
X98939049Y-44573910D01*
X98939187Y-44573680D01*
X98941577Y-44568539D01*
X99162892Y-44083647D01*
X99162982Y-44083384D01*
X99163120Y-44083146D01*
X99165431Y-44077970D01*
X99372671Y-43604861D01*
X99372754Y-43604605D01*
X99372884Y-43604373D01*
X99375116Y-43599161D01*
X99569021Y-43137430D01*
X99569094Y-43137195D01*
X99569210Y-43136979D01*
X99571363Y-43131734D01*
X99752668Y-42680973D01*
X99752727Y-42680773D01*
X99752820Y-42680593D01*
X99754894Y-42675317D01*
X99924338Y-42235121D01*
X99924378Y-42234975D01*
X99924443Y-42234846D01*
X99926439Y-42229539D01*
X100084760Y-41799501D01*
X100084778Y-41799430D01*
X100084808Y-41799369D01*
X100086728Y-41794035D01*
X100234664Y-41373748D01*
X100234664Y-41373747D01*
X100236493Y-41368437D01*
X100374780Y-40957496D01*
X100374787Y-40957466D01*
X100376461Y-40952388D01*
X100505838Y-40550387D01*
X100505847Y-40550344D01*
X100507368Y-40545528D01*
X100628572Y-40152060D01*
X100628583Y-40152005D01*
X100629947Y-40147501D01*
X100743717Y-39762161D01*
X100743731Y-39762088D01*
X100744936Y-39757950D01*
X100852008Y-39380329D01*
X100852024Y-39380238D01*
X100853068Y-39376520D01*
X100954181Y-39006213D01*
X100954199Y-39006109D01*
X100955082Y-39002855D01*
X101050972Y-38639456D01*
X101050989Y-38639353D01*
X101051714Y-38636601D01*
X101143121Y-38279704D01*
X101143135Y-38279610D01*
X101143705Y-38277399D01*
X101231365Y-37926596D01*
X101231378Y-37926506D01*
X101231787Y-37924889D01*
X101316438Y-37579776D01*
X101316446Y-37579719D01*
X101316699Y-37578707D01*
X101399079Y-37238876D01*
X101399083Y-37238848D01*
X101399173Y-37238486D01*
X101479943Y-36903851D01*
X101559800Y-36574166D01*
X101639522Y-36248851D01*
X101719617Y-35928395D01*
X101730401Y-35886419D01*
X102051140Y-35886419D01*
X102051140Y-36168301D01*
X102106133Y-36444767D01*
X102214004Y-36705193D01*
X102370610Y-36939569D01*
X102569931Y-37138890D01*
X102804307Y-37295496D01*
X103064733Y-37403367D01*
X103341199Y-37458360D01*
X103623081Y-37458360D01*
X103899547Y-37403367D01*
X104159973Y-37295496D01*
X104394349Y-37138890D01*
X104593670Y-36939569D01*
X104750276Y-36705193D01*
X104858147Y-36444767D01*
X104913140Y-36168301D01*
X104913140Y-35886419D01*
X104858147Y-35609953D01*
X104750276Y-35349527D01*
X104593670Y-35115151D01*
X104394349Y-34915830D01*
X104159973Y-34759224D01*
X103899547Y-34651353D01*
X103623081Y-34596360D01*
X103341199Y-34596360D01*
X103064733Y-34651353D01*
X102804307Y-34759224D01*
X102569931Y-34915830D01*
X102370610Y-35115151D01*
X102214004Y-35349527D01*
X102106133Y-35609953D01*
X102051140Y-35886419D01*
X101730401Y-35886419D01*
X101800960Y-35611790D01*
X101884201Y-35298893D01*
X101970105Y-34989110D01*
X102059352Y-34682145D01*
X102150639Y-34384139D01*
X102199585Y-34249070D01*
X102254241Y-34131064D01*
X102316244Y-34023112D01*
X102385021Y-33924658D01*
X102460123Y-33835184D01*
X102541138Y-33754309D01*
X102627727Y-33681730D01*
X102719508Y-33617281D01*
X102816086Y-33560882D01*
X102917015Y-33512525D01*
X103021769Y-33472262D01*
X103129767Y-33440165D01*
X103240368Y-33416310D01*
X103352902Y-33400765D01*
X103466612Y-33393580D01*
X103580754Y-33394772D01*
G37*
G04 #@! TD.AperFunction*
M02*
