G04 #@! TF.GenerationSoftware,KiCad,Pcbnew,(5.1.10)-1*
G04 #@! TF.CreationDate,2021-11-22T20:28:52+00:00*
G04 #@! TF.ProjectId,Big Ben Ornament,42696720-4265-46e2-904f-726e616d656e,rev?*
G04 #@! TF.SameCoordinates,Original*
G04 #@! TF.FileFunction,Soldermask,Bot*
G04 #@! TF.FilePolarity,Negative*
%FSLAX46Y46*%
G04 Gerber Fmt 4.6, Leading zero omitted, Abs format (unit mm)*
G04 Created by KiCad (PCBNEW (5.1.10)-1) date 2021-11-22 20:28:52*
%MOMM*%
%LPD*%
G01*
G04 APERTURE LIST*
%ADD10C,2.100000*%
%ADD11C,0.100000*%
%ADD12R,1.000000X1.500000*%
%ADD13R,0.800000X1.000000*%
%ADD14R,1.500000X0.700000*%
%ADD15C,0.900000*%
%ADD16R,0.300000X1.100000*%
%ADD17R,2.300000X3.100000*%
%ADD18R,3.150000X1.000000*%
%ADD19R,0.900000X1.200000*%
%ADD20C,10.200000*%
%ADD21R,3.500000X3.300000*%
%ADD22R,5.100000X5.100000*%
%ADD23C,17.800000*%
G04 APERTURE END LIST*
D10*
X103482140Y-36027360D03*
D11*
G36*
X91134500Y-122289000D02*
G01*
X90584500Y-122289000D01*
X90584500Y-122288398D01*
X90559966Y-122288398D01*
X90511135Y-122283588D01*
X90463010Y-122274016D01*
X90416055Y-122259772D01*
X90370722Y-122240995D01*
X90327449Y-122217864D01*
X90286650Y-122190604D01*
X90248721Y-122159476D01*
X90214024Y-122124779D01*
X90182896Y-122086850D01*
X90155636Y-122046051D01*
X90132505Y-122002778D01*
X90113728Y-121957445D01*
X90099484Y-121910490D01*
X90089912Y-121862365D01*
X90085102Y-121813534D01*
X90085102Y-121789000D01*
X90084500Y-121789000D01*
X90084500Y-121289000D01*
X90085102Y-121289000D01*
X90085102Y-121264466D01*
X90089912Y-121215635D01*
X90099484Y-121167510D01*
X90113728Y-121120555D01*
X90132505Y-121075222D01*
X90155636Y-121031949D01*
X90182896Y-120991150D01*
X90214024Y-120953221D01*
X90248721Y-120918524D01*
X90286650Y-120887396D01*
X90327449Y-120860136D01*
X90370722Y-120837005D01*
X90416055Y-120818228D01*
X90463010Y-120803984D01*
X90511135Y-120794412D01*
X90559966Y-120789602D01*
X90584500Y-120789602D01*
X90584500Y-120789000D01*
X91134500Y-120789000D01*
X91134500Y-122289000D01*
G37*
G36*
X93184500Y-120789602D02*
G01*
X93209034Y-120789602D01*
X93257865Y-120794412D01*
X93305990Y-120803984D01*
X93352945Y-120818228D01*
X93398278Y-120837005D01*
X93441551Y-120860136D01*
X93482350Y-120887396D01*
X93520279Y-120918524D01*
X93554976Y-120953221D01*
X93586104Y-120991150D01*
X93613364Y-121031949D01*
X93636495Y-121075222D01*
X93655272Y-121120555D01*
X93669516Y-121167510D01*
X93679088Y-121215635D01*
X93683898Y-121264466D01*
X93683898Y-121289000D01*
X93684500Y-121289000D01*
X93684500Y-121789000D01*
X93683898Y-121789000D01*
X93683898Y-121813534D01*
X93679088Y-121862365D01*
X93669516Y-121910490D01*
X93655272Y-121957445D01*
X93636495Y-122002778D01*
X93613364Y-122046051D01*
X93586104Y-122086850D01*
X93554976Y-122124779D01*
X93520279Y-122159476D01*
X93482350Y-122190604D01*
X93441551Y-122217864D01*
X93398278Y-122240995D01*
X93352945Y-122259772D01*
X93305990Y-122274016D01*
X93257865Y-122283588D01*
X93209034Y-122288398D01*
X93184500Y-122288398D01*
X93184500Y-122289000D01*
X92634500Y-122289000D01*
X92634500Y-120789000D01*
X93184500Y-120789000D01*
X93184500Y-120789602D01*
G37*
D12*
X91884500Y-121539000D03*
X115189000Y-121539000D03*
D11*
G36*
X116489000Y-120789602D02*
G01*
X116513534Y-120789602D01*
X116562365Y-120794412D01*
X116610490Y-120803984D01*
X116657445Y-120818228D01*
X116702778Y-120837005D01*
X116746051Y-120860136D01*
X116786850Y-120887396D01*
X116824779Y-120918524D01*
X116859476Y-120953221D01*
X116890604Y-120991150D01*
X116917864Y-121031949D01*
X116940995Y-121075222D01*
X116959772Y-121120555D01*
X116974016Y-121167510D01*
X116983588Y-121215635D01*
X116988398Y-121264466D01*
X116988398Y-121289000D01*
X116989000Y-121289000D01*
X116989000Y-121789000D01*
X116988398Y-121789000D01*
X116988398Y-121813534D01*
X116983588Y-121862365D01*
X116974016Y-121910490D01*
X116959772Y-121957445D01*
X116940995Y-122002778D01*
X116917864Y-122046051D01*
X116890604Y-122086850D01*
X116859476Y-122124779D01*
X116824779Y-122159476D01*
X116786850Y-122190604D01*
X116746051Y-122217864D01*
X116702778Y-122240995D01*
X116657445Y-122259772D01*
X116610490Y-122274016D01*
X116562365Y-122283588D01*
X116513534Y-122288398D01*
X116489000Y-122288398D01*
X116489000Y-122289000D01*
X115939000Y-122289000D01*
X115939000Y-120789000D01*
X116489000Y-120789000D01*
X116489000Y-120789602D01*
G37*
G36*
X114439000Y-122289000D02*
G01*
X113889000Y-122289000D01*
X113889000Y-122288398D01*
X113864466Y-122288398D01*
X113815635Y-122283588D01*
X113767510Y-122274016D01*
X113720555Y-122259772D01*
X113675222Y-122240995D01*
X113631949Y-122217864D01*
X113591150Y-122190604D01*
X113553221Y-122159476D01*
X113518524Y-122124779D01*
X113487396Y-122086850D01*
X113460136Y-122046051D01*
X113437005Y-122002778D01*
X113418228Y-121957445D01*
X113403984Y-121910490D01*
X113394412Y-121862365D01*
X113389602Y-121813534D01*
X113389602Y-121789000D01*
X113389000Y-121789000D01*
X113389000Y-121289000D01*
X113389602Y-121289000D01*
X113389602Y-121264466D01*
X113394412Y-121215635D01*
X113403984Y-121167510D01*
X113418228Y-121120555D01*
X113437005Y-121075222D01*
X113460136Y-121031949D01*
X113487396Y-120991150D01*
X113518524Y-120953221D01*
X113553221Y-120918524D01*
X113591150Y-120887396D01*
X113631949Y-120860136D01*
X113675222Y-120837005D01*
X113720555Y-120818228D01*
X113767510Y-120803984D01*
X113815635Y-120794412D01*
X113864466Y-120789602D01*
X113889000Y-120789602D01*
X113889000Y-120789000D01*
X114439000Y-120789000D01*
X114439000Y-122289000D01*
G37*
D13*
X114853500Y-154528500D03*
X114853500Y-161828500D03*
X117063500Y-161828500D03*
X117063500Y-154528500D03*
D14*
X114203500Y-160428500D03*
X114203500Y-158928500D03*
X114203500Y-155928500D03*
D15*
X115963500Y-159678500D03*
X115963500Y-156678500D03*
G36*
G01*
X93668001Y-126314000D02*
X92767999Y-126314000D01*
G75*
G02*
X92518000Y-126064001I0J249999D01*
G01*
X92518000Y-125363999D01*
G75*
G02*
X92767999Y-125114000I249999J0D01*
G01*
X93668001Y-125114000D01*
G75*
G02*
X93918000Y-125363999I0J-249999D01*
G01*
X93918000Y-126064001D01*
G75*
G02*
X93668001Y-126314000I-249999J0D01*
G01*
G37*
G36*
G01*
X93668001Y-124314000D02*
X92767999Y-124314000D01*
G75*
G02*
X92518000Y-124064001I0J249999D01*
G01*
X92518000Y-123363999D01*
G75*
G02*
X92767999Y-123114000I249999J0D01*
G01*
X93668001Y-123114000D01*
G75*
G02*
X93918000Y-123363999I0J-249999D01*
G01*
X93918000Y-124064001D01*
G75*
G02*
X93668001Y-124314000I-249999J0D01*
G01*
G37*
G36*
G01*
X110534500Y-146044499D02*
X110534500Y-146944501D01*
G75*
G02*
X110284501Y-147194500I-249999J0D01*
G01*
X109584499Y-147194500D01*
G75*
G02*
X109334500Y-146944501I0J249999D01*
G01*
X109334500Y-146044499D01*
G75*
G02*
X109584499Y-145794500I249999J0D01*
G01*
X110284501Y-145794500D01*
G75*
G02*
X110534500Y-146044499I0J-249999D01*
G01*
G37*
G36*
G01*
X112534500Y-146044499D02*
X112534500Y-146944501D01*
G75*
G02*
X112284501Y-147194500I-249999J0D01*
G01*
X111584499Y-147194500D01*
G75*
G02*
X111334500Y-146944501I0J249999D01*
G01*
X111334500Y-146044499D01*
G75*
G02*
X111584499Y-145794500I249999J0D01*
G01*
X112284501Y-145794500D01*
G75*
G02*
X112534500Y-146044499I0J-249999D01*
G01*
G37*
G36*
G01*
X110033000Y-134498501D02*
X110033000Y-133598499D01*
G75*
G02*
X110282999Y-133348500I249999J0D01*
G01*
X110983001Y-133348500D01*
G75*
G02*
X111233000Y-133598499I0J-249999D01*
G01*
X111233000Y-134498501D01*
G75*
G02*
X110983001Y-134748500I-249999J0D01*
G01*
X110282999Y-134748500D01*
G75*
G02*
X110033000Y-134498501I0J249999D01*
G01*
G37*
G36*
G01*
X112033000Y-134498501D02*
X112033000Y-133598499D01*
G75*
G02*
X112282999Y-133348500I249999J0D01*
G01*
X112983001Y-133348500D01*
G75*
G02*
X113233000Y-133598499I0J-249999D01*
G01*
X113233000Y-134498501D01*
G75*
G02*
X112983001Y-134748500I-249999J0D01*
G01*
X112282999Y-134748500D01*
G75*
G02*
X112033000Y-134498501I0J249999D01*
G01*
G37*
G36*
G01*
X110033000Y-132403001D02*
X110033000Y-131502999D01*
G75*
G02*
X110282999Y-131253000I249999J0D01*
G01*
X110983001Y-131253000D01*
G75*
G02*
X111233000Y-131502999I0J-249999D01*
G01*
X111233000Y-132403001D01*
G75*
G02*
X110983001Y-132653000I-249999J0D01*
G01*
X110282999Y-132653000D01*
G75*
G02*
X110033000Y-132403001I0J249999D01*
G01*
G37*
G36*
G01*
X112033000Y-132403001D02*
X112033000Y-131502999D01*
G75*
G02*
X112282999Y-131253000I249999J0D01*
G01*
X112983001Y-131253000D01*
G75*
G02*
X113233000Y-131502999I0J-249999D01*
G01*
X113233000Y-132403001D01*
G75*
G02*
X112983001Y-132653000I-249999J0D01*
G01*
X112282999Y-132653000D01*
G75*
G02*
X112033000Y-132403001I0J249999D01*
G01*
G37*
G36*
G01*
X112033000Y-137737001D02*
X112033000Y-136836999D01*
G75*
G02*
X112282999Y-136587000I249999J0D01*
G01*
X112983001Y-136587000D01*
G75*
G02*
X113233000Y-136836999I0J-249999D01*
G01*
X113233000Y-137737001D01*
G75*
G02*
X112983001Y-137987000I-249999J0D01*
G01*
X112282999Y-137987000D01*
G75*
G02*
X112033000Y-137737001I0J249999D01*
G01*
G37*
G36*
G01*
X110033000Y-137737001D02*
X110033000Y-136836999D01*
G75*
G02*
X110282999Y-136587000I249999J0D01*
G01*
X110983001Y-136587000D01*
G75*
G02*
X111233000Y-136836999I0J-249999D01*
G01*
X111233000Y-137737001D01*
G75*
G02*
X110983001Y-137987000I-249999J0D01*
G01*
X110282999Y-137987000D01*
G75*
G02*
X110033000Y-137737001I0J249999D01*
G01*
G37*
G36*
G01*
X90100999Y-123114000D02*
X91001001Y-123114000D01*
G75*
G02*
X91251000Y-123363999I0J-249999D01*
G01*
X91251000Y-124064001D01*
G75*
G02*
X91001001Y-124314000I-249999J0D01*
G01*
X90100999Y-124314000D01*
G75*
G02*
X89851000Y-124064001I0J249999D01*
G01*
X89851000Y-123363999D01*
G75*
G02*
X90100999Y-123114000I249999J0D01*
G01*
G37*
G36*
G01*
X90100999Y-125114000D02*
X91001001Y-125114000D01*
G75*
G02*
X91251000Y-125363999I0J-249999D01*
G01*
X91251000Y-126064001D01*
G75*
G02*
X91001001Y-126314000I-249999J0D01*
G01*
X90100999Y-126314000D01*
G75*
G02*
X89851000Y-126064001I0J249999D01*
G01*
X89851000Y-125363999D01*
G75*
G02*
X90100999Y-125114000I249999J0D01*
G01*
G37*
D16*
X97780400Y-128604000D03*
X98280400Y-128604000D03*
X98780400Y-128604000D03*
X99280400Y-128604000D03*
X99780400Y-128604000D03*
X100280400Y-128604000D03*
X100780400Y-128604000D03*
X101280400Y-128604000D03*
X101780400Y-128604000D03*
X102280400Y-128604000D03*
X102780400Y-128604000D03*
X103280400Y-128604000D03*
X103780400Y-128604000D03*
X104280400Y-128604000D03*
X104780400Y-128604000D03*
X105280400Y-128604000D03*
X105780400Y-128604000D03*
X106280400Y-128604000D03*
X106780400Y-128604000D03*
X107280400Y-128604000D03*
X107780400Y-128604000D03*
X108280400Y-128604000D03*
X108780400Y-128604000D03*
X109280400Y-128604000D03*
D17*
X96110400Y-126904000D03*
X110950400Y-126904000D03*
D18*
X115529600Y-164820600D03*
X110479600Y-164820600D03*
X115529600Y-167360600D03*
X110479600Y-167360600D03*
X115529600Y-169900600D03*
X110479600Y-169900600D03*
G36*
G01*
X111384500Y-149173250D02*
X111384500Y-148260750D01*
G75*
G02*
X111628250Y-148017000I243750J0D01*
G01*
X112115750Y-148017000D01*
G75*
G02*
X112359500Y-148260750I0J-243750D01*
G01*
X112359500Y-149173250D01*
G75*
G02*
X112115750Y-149417000I-243750J0D01*
G01*
X111628250Y-149417000D01*
G75*
G02*
X111384500Y-149173250I0J243750D01*
G01*
G37*
G36*
G01*
X109509500Y-149173250D02*
X109509500Y-148260750D01*
G75*
G02*
X109753250Y-148017000I243750J0D01*
G01*
X110240750Y-148017000D01*
G75*
G02*
X110484500Y-148260750I0J-243750D01*
G01*
X110484500Y-149173250D01*
G75*
G02*
X110240750Y-149417000I-243750J0D01*
G01*
X109753250Y-149417000D01*
G75*
G02*
X109509500Y-149173250I0J243750D01*
G01*
G37*
D19*
X112775000Y-139636500D03*
X109475000Y-139636500D03*
D20*
X103505000Y-66929000D03*
D21*
X111405000Y-66929000D03*
X95605000Y-66929000D03*
D22*
X99504500Y-168756000D03*
X99504500Y-143156000D03*
D23*
X99504500Y-155956000D03*
M02*
