G04 #@! TF.GenerationSoftware,KiCad,Pcbnew,(5.1.10)-1*
G04 #@! TF.CreationDate,2021-11-22T20:28:52+00:00*
G04 #@! TF.ProjectId,Big Ben Ornament,42696720-4265-46e2-904f-726e616d656e,rev?*
G04 #@! TF.SameCoordinates,Original*
G04 #@! TF.FileFunction,Paste,Top*
G04 #@! TF.FilePolarity,Positive*
%FSLAX46Y46*%
G04 Gerber Fmt 4.6, Leading zero omitted, Abs format (unit mm)*
G04 Created by KiCad (PCBNEW (5.1.10)-1) date 2021-11-22 20:28:52*
%MOMM*%
%LPD*%
G01*
G04 APERTURE LIST*
%ADD10R,0.980000X3.400000*%
%ADD11R,1.060000X0.650000*%
%ADD12R,0.550000X1.600000*%
%ADD13R,1.600000X0.550000*%
%ADD14R,2.800000X1.000000*%
%ADD15R,1.500000X0.450000*%
%ADD16R,5.500000X1.430000*%
%ADD17R,0.900000X1.200000*%
G04 APERTURE END LIST*
D10*
X94085500Y-129095500D03*
X91715500Y-129095500D03*
G36*
G01*
X100941000Y-146530200D02*
X100941000Y-146230200D01*
G75*
G02*
X101091000Y-146080200I150000J0D01*
G01*
X102741000Y-146080200D01*
G75*
G02*
X102891000Y-146230200I0J-150000D01*
G01*
X102891000Y-146530200D01*
G75*
G02*
X102741000Y-146680200I-150000J0D01*
G01*
X101091000Y-146680200D01*
G75*
G02*
X100941000Y-146530200I0J150000D01*
G01*
G37*
G36*
G01*
X100941000Y-147800200D02*
X100941000Y-147500200D01*
G75*
G02*
X101091000Y-147350200I150000J0D01*
G01*
X102741000Y-147350200D01*
G75*
G02*
X102891000Y-147500200I0J-150000D01*
G01*
X102891000Y-147800200D01*
G75*
G02*
X102741000Y-147950200I-150000J0D01*
G01*
X101091000Y-147950200D01*
G75*
G02*
X100941000Y-147800200I0J150000D01*
G01*
G37*
G36*
G01*
X100941000Y-149070200D02*
X100941000Y-148770200D01*
G75*
G02*
X101091000Y-148620200I150000J0D01*
G01*
X102741000Y-148620200D01*
G75*
G02*
X102891000Y-148770200I0J-150000D01*
G01*
X102891000Y-149070200D01*
G75*
G02*
X102741000Y-149220200I-150000J0D01*
G01*
X101091000Y-149220200D01*
G75*
G02*
X100941000Y-149070200I0J150000D01*
G01*
G37*
G36*
G01*
X100941000Y-150340200D02*
X100941000Y-150040200D01*
G75*
G02*
X101091000Y-149890200I150000J0D01*
G01*
X102741000Y-149890200D01*
G75*
G02*
X102891000Y-150040200I0J-150000D01*
G01*
X102891000Y-150340200D01*
G75*
G02*
X102741000Y-150490200I-150000J0D01*
G01*
X101091000Y-150490200D01*
G75*
G02*
X100941000Y-150340200I0J150000D01*
G01*
G37*
G36*
G01*
X95991000Y-150340200D02*
X95991000Y-150040200D01*
G75*
G02*
X96141000Y-149890200I150000J0D01*
G01*
X97791000Y-149890200D01*
G75*
G02*
X97941000Y-150040200I0J-150000D01*
G01*
X97941000Y-150340200D01*
G75*
G02*
X97791000Y-150490200I-150000J0D01*
G01*
X96141000Y-150490200D01*
G75*
G02*
X95991000Y-150340200I0J150000D01*
G01*
G37*
G36*
G01*
X95991000Y-149070200D02*
X95991000Y-148770200D01*
G75*
G02*
X96141000Y-148620200I150000J0D01*
G01*
X97791000Y-148620200D01*
G75*
G02*
X97941000Y-148770200I0J-150000D01*
G01*
X97941000Y-149070200D01*
G75*
G02*
X97791000Y-149220200I-150000J0D01*
G01*
X96141000Y-149220200D01*
G75*
G02*
X95991000Y-149070200I0J150000D01*
G01*
G37*
G36*
G01*
X95991000Y-147800200D02*
X95991000Y-147500200D01*
G75*
G02*
X96141000Y-147350200I150000J0D01*
G01*
X97791000Y-147350200D01*
G75*
G02*
X97941000Y-147500200I0J-150000D01*
G01*
X97941000Y-147800200D01*
G75*
G02*
X97791000Y-147950200I-150000J0D01*
G01*
X96141000Y-147950200D01*
G75*
G02*
X95991000Y-147800200I0J150000D01*
G01*
G37*
G36*
G01*
X95991000Y-146530200D02*
X95991000Y-146230200D01*
G75*
G02*
X96141000Y-146080200I150000J0D01*
G01*
X97791000Y-146080200D01*
G75*
G02*
X97941000Y-146230200I0J-150000D01*
G01*
X97941000Y-146530200D01*
G75*
G02*
X97791000Y-146680200I-150000J0D01*
G01*
X96141000Y-146680200D01*
G75*
G02*
X95991000Y-146530200I0J150000D01*
G01*
G37*
G36*
G01*
X104815000Y-131722000D02*
X104815000Y-131422000D01*
G75*
G02*
X104965000Y-131272000I150000J0D01*
G01*
X106715000Y-131272000D01*
G75*
G02*
X106865000Y-131422000I0J-150000D01*
G01*
X106865000Y-131722000D01*
G75*
G02*
X106715000Y-131872000I-150000J0D01*
G01*
X104965000Y-131872000D01*
G75*
G02*
X104815000Y-131722000I0J150000D01*
G01*
G37*
G36*
G01*
X104815000Y-132992000D02*
X104815000Y-132692000D01*
G75*
G02*
X104965000Y-132542000I150000J0D01*
G01*
X106715000Y-132542000D01*
G75*
G02*
X106865000Y-132692000I0J-150000D01*
G01*
X106865000Y-132992000D01*
G75*
G02*
X106715000Y-133142000I-150000J0D01*
G01*
X104965000Y-133142000D01*
G75*
G02*
X104815000Y-132992000I0J150000D01*
G01*
G37*
G36*
G01*
X104815000Y-134262000D02*
X104815000Y-133962000D01*
G75*
G02*
X104965000Y-133812000I150000J0D01*
G01*
X106715000Y-133812000D01*
G75*
G02*
X106865000Y-133962000I0J-150000D01*
G01*
X106865000Y-134262000D01*
G75*
G02*
X106715000Y-134412000I-150000J0D01*
G01*
X104965000Y-134412000D01*
G75*
G02*
X104815000Y-134262000I0J150000D01*
G01*
G37*
G36*
G01*
X104815000Y-135532000D02*
X104815000Y-135232000D01*
G75*
G02*
X104965000Y-135082000I150000J0D01*
G01*
X106715000Y-135082000D01*
G75*
G02*
X106865000Y-135232000I0J-150000D01*
G01*
X106865000Y-135532000D01*
G75*
G02*
X106715000Y-135682000I-150000J0D01*
G01*
X104965000Y-135682000D01*
G75*
G02*
X104815000Y-135532000I0J150000D01*
G01*
G37*
G36*
G01*
X104815000Y-136802000D02*
X104815000Y-136502000D01*
G75*
G02*
X104965000Y-136352000I150000J0D01*
G01*
X106715000Y-136352000D01*
G75*
G02*
X106865000Y-136502000I0J-150000D01*
G01*
X106865000Y-136802000D01*
G75*
G02*
X106715000Y-136952000I-150000J0D01*
G01*
X104965000Y-136952000D01*
G75*
G02*
X104815000Y-136802000I0J150000D01*
G01*
G37*
G36*
G01*
X104815000Y-138072000D02*
X104815000Y-137772000D01*
G75*
G02*
X104965000Y-137622000I150000J0D01*
G01*
X106715000Y-137622000D01*
G75*
G02*
X106865000Y-137772000I0J-150000D01*
G01*
X106865000Y-138072000D01*
G75*
G02*
X106715000Y-138222000I-150000J0D01*
G01*
X104965000Y-138222000D01*
G75*
G02*
X104815000Y-138072000I0J150000D01*
G01*
G37*
G36*
G01*
X104815000Y-139342000D02*
X104815000Y-139042000D01*
G75*
G02*
X104965000Y-138892000I150000J0D01*
G01*
X106715000Y-138892000D01*
G75*
G02*
X106865000Y-139042000I0J-150000D01*
G01*
X106865000Y-139342000D01*
G75*
G02*
X106715000Y-139492000I-150000J0D01*
G01*
X104965000Y-139492000D01*
G75*
G02*
X104815000Y-139342000I0J150000D01*
G01*
G37*
G36*
G01*
X104815000Y-140612000D02*
X104815000Y-140312000D01*
G75*
G02*
X104965000Y-140162000I150000J0D01*
G01*
X106715000Y-140162000D01*
G75*
G02*
X106865000Y-140312000I0J-150000D01*
G01*
X106865000Y-140612000D01*
G75*
G02*
X106715000Y-140762000I-150000J0D01*
G01*
X104965000Y-140762000D01*
G75*
G02*
X104815000Y-140612000I0J150000D01*
G01*
G37*
G36*
G01*
X114115000Y-140612000D02*
X114115000Y-140312000D01*
G75*
G02*
X114265000Y-140162000I150000J0D01*
G01*
X116015000Y-140162000D01*
G75*
G02*
X116165000Y-140312000I0J-150000D01*
G01*
X116165000Y-140612000D01*
G75*
G02*
X116015000Y-140762000I-150000J0D01*
G01*
X114265000Y-140762000D01*
G75*
G02*
X114115000Y-140612000I0J150000D01*
G01*
G37*
G36*
G01*
X114115000Y-139342000D02*
X114115000Y-139042000D01*
G75*
G02*
X114265000Y-138892000I150000J0D01*
G01*
X116015000Y-138892000D01*
G75*
G02*
X116165000Y-139042000I0J-150000D01*
G01*
X116165000Y-139342000D01*
G75*
G02*
X116015000Y-139492000I-150000J0D01*
G01*
X114265000Y-139492000D01*
G75*
G02*
X114115000Y-139342000I0J150000D01*
G01*
G37*
G36*
G01*
X114115000Y-138072000D02*
X114115000Y-137772000D01*
G75*
G02*
X114265000Y-137622000I150000J0D01*
G01*
X116015000Y-137622000D01*
G75*
G02*
X116165000Y-137772000I0J-150000D01*
G01*
X116165000Y-138072000D01*
G75*
G02*
X116015000Y-138222000I-150000J0D01*
G01*
X114265000Y-138222000D01*
G75*
G02*
X114115000Y-138072000I0J150000D01*
G01*
G37*
G36*
G01*
X114115000Y-136802000D02*
X114115000Y-136502000D01*
G75*
G02*
X114265000Y-136352000I150000J0D01*
G01*
X116015000Y-136352000D01*
G75*
G02*
X116165000Y-136502000I0J-150000D01*
G01*
X116165000Y-136802000D01*
G75*
G02*
X116015000Y-136952000I-150000J0D01*
G01*
X114265000Y-136952000D01*
G75*
G02*
X114115000Y-136802000I0J150000D01*
G01*
G37*
G36*
G01*
X114115000Y-135532000D02*
X114115000Y-135232000D01*
G75*
G02*
X114265000Y-135082000I150000J0D01*
G01*
X116015000Y-135082000D01*
G75*
G02*
X116165000Y-135232000I0J-150000D01*
G01*
X116165000Y-135532000D01*
G75*
G02*
X116015000Y-135682000I-150000J0D01*
G01*
X114265000Y-135682000D01*
G75*
G02*
X114115000Y-135532000I0J150000D01*
G01*
G37*
G36*
G01*
X114115000Y-134262000D02*
X114115000Y-133962000D01*
G75*
G02*
X114265000Y-133812000I150000J0D01*
G01*
X116015000Y-133812000D01*
G75*
G02*
X116165000Y-133962000I0J-150000D01*
G01*
X116165000Y-134262000D01*
G75*
G02*
X116015000Y-134412000I-150000J0D01*
G01*
X114265000Y-134412000D01*
G75*
G02*
X114115000Y-134262000I0J150000D01*
G01*
G37*
G36*
G01*
X114115000Y-132992000D02*
X114115000Y-132692000D01*
G75*
G02*
X114265000Y-132542000I150000J0D01*
G01*
X116015000Y-132542000D01*
G75*
G02*
X116165000Y-132692000I0J-150000D01*
G01*
X116165000Y-132992000D01*
G75*
G02*
X116015000Y-133142000I-150000J0D01*
G01*
X114265000Y-133142000D01*
G75*
G02*
X114115000Y-132992000I0J150000D01*
G01*
G37*
G36*
G01*
X114115000Y-131722000D02*
X114115000Y-131422000D01*
G75*
G02*
X114265000Y-131272000I150000J0D01*
G01*
X116015000Y-131272000D01*
G75*
G02*
X116165000Y-131422000I0J-150000D01*
G01*
X116165000Y-131722000D01*
G75*
G02*
X116015000Y-131872000I-150000J0D01*
G01*
X114265000Y-131872000D01*
G75*
G02*
X114115000Y-131722000I0J150000D01*
G01*
G37*
D11*
X94635500Y-139702500D03*
X94635500Y-141602500D03*
X92435500Y-141602500D03*
X92435500Y-140652500D03*
X92435500Y-139702500D03*
D12*
X108325000Y-144060600D03*
X109125000Y-144060600D03*
X109925000Y-144060600D03*
X110725000Y-144060600D03*
X111525000Y-144060600D03*
X112325000Y-144060600D03*
X113125000Y-144060600D03*
X113925000Y-144060600D03*
D13*
X115375000Y-145510600D03*
X115375000Y-146310600D03*
X115375000Y-147110600D03*
X115375000Y-147910600D03*
X115375000Y-148710600D03*
X115375000Y-149510600D03*
X115375000Y-150310600D03*
X115375000Y-151110600D03*
D12*
X113925000Y-152560600D03*
X113125000Y-152560600D03*
X112325000Y-152560600D03*
X111525000Y-152560600D03*
X110725000Y-152560600D03*
X109925000Y-152560600D03*
X109125000Y-152560600D03*
X108325000Y-152560600D03*
D13*
X106875000Y-151110600D03*
X106875000Y-150310600D03*
X106875000Y-149510600D03*
X106875000Y-148710600D03*
X106875000Y-147910600D03*
X106875000Y-147110600D03*
X106875000Y-146310600D03*
X106875000Y-145510600D03*
D14*
X106405000Y-159861000D03*
X100605000Y-159861000D03*
X106405000Y-155861000D03*
X100605000Y-155861000D03*
X113517000Y-168243000D03*
X107717000Y-168243000D03*
X113517000Y-164243000D03*
X107717000Y-164243000D03*
X99293000Y-168243000D03*
X93493000Y-168243000D03*
X99293000Y-164243000D03*
X93493000Y-164243000D03*
G36*
G01*
X105415501Y-168859000D02*
X104515499Y-168859000D01*
G75*
G02*
X104265500Y-168609001I0J249999D01*
G01*
X104265500Y-167908999D01*
G75*
G02*
X104515499Y-167659000I249999J0D01*
G01*
X105415501Y-167659000D01*
G75*
G02*
X105665500Y-167908999I0J-249999D01*
G01*
X105665500Y-168609001D01*
G75*
G02*
X105415501Y-168859000I-249999J0D01*
G01*
G37*
G36*
G01*
X105415501Y-166859000D02*
X104515499Y-166859000D01*
G75*
G02*
X104265500Y-166609001I0J249999D01*
G01*
X104265500Y-165908999D01*
G75*
G02*
X104515499Y-165659000I249999J0D01*
G01*
X105415501Y-165659000D01*
G75*
G02*
X105665500Y-165908999I0J-249999D01*
G01*
X105665500Y-166609001D01*
G75*
G02*
X105415501Y-166859000I-249999J0D01*
G01*
G37*
G36*
G01*
X102494501Y-168859000D02*
X101594499Y-168859000D01*
G75*
G02*
X101344500Y-168609001I0J249999D01*
G01*
X101344500Y-167908999D01*
G75*
G02*
X101594499Y-167659000I249999J0D01*
G01*
X102494501Y-167659000D01*
G75*
G02*
X102744500Y-167908999I0J-249999D01*
G01*
X102744500Y-168609001D01*
G75*
G02*
X102494501Y-168859000I-249999J0D01*
G01*
G37*
G36*
G01*
X102494501Y-166859000D02*
X101594499Y-166859000D01*
G75*
G02*
X101344500Y-166609001I0J249999D01*
G01*
X101344500Y-165908999D01*
G75*
G02*
X101594499Y-165659000I249999J0D01*
G01*
X102494501Y-165659000D01*
G75*
G02*
X102744500Y-165908999I0J-249999D01*
G01*
X102744500Y-166609001D01*
G75*
G02*
X102494501Y-166859000I-249999J0D01*
G01*
G37*
G36*
G01*
X104844001Y-146285000D02*
X103943999Y-146285000D01*
G75*
G02*
X103694000Y-146035001I0J249999D01*
G01*
X103694000Y-145334999D01*
G75*
G02*
X103943999Y-145085000I249999J0D01*
G01*
X104844001Y-145085000D01*
G75*
G02*
X105094000Y-145334999I0J-249999D01*
G01*
X105094000Y-146035001D01*
G75*
G02*
X104844001Y-146285000I-249999J0D01*
G01*
G37*
G36*
G01*
X104844001Y-148285000D02*
X103943999Y-148285000D01*
G75*
G02*
X103694000Y-148035001I0J249999D01*
G01*
X103694000Y-147334999D01*
G75*
G02*
X103943999Y-147085000I249999J0D01*
G01*
X104844001Y-147085000D01*
G75*
G02*
X105094000Y-147334999I0J-249999D01*
G01*
X105094000Y-148035001D01*
G75*
G02*
X104844001Y-148285000I-249999J0D01*
G01*
G37*
G36*
G01*
X96755000Y-133534999D02*
X96755000Y-134435001D01*
G75*
G02*
X96505001Y-134685000I-249999J0D01*
G01*
X95804999Y-134685000D01*
G75*
G02*
X95555000Y-134435001I0J249999D01*
G01*
X95555000Y-133534999D01*
G75*
G02*
X95804999Y-133285000I249999J0D01*
G01*
X96505001Y-133285000D01*
G75*
G02*
X96755000Y-133534999I0J-249999D01*
G01*
G37*
G36*
G01*
X98755000Y-133534999D02*
X98755000Y-134435001D01*
G75*
G02*
X98505001Y-134685000I-249999J0D01*
G01*
X97804999Y-134685000D01*
G75*
G02*
X97555000Y-134435001I0J249999D01*
G01*
X97555000Y-133534999D01*
G75*
G02*
X97804999Y-133285000I249999J0D01*
G01*
X98505001Y-133285000D01*
G75*
G02*
X98755000Y-133534999I0J-249999D01*
G01*
G37*
D15*
X102930000Y-133667500D03*
X100270000Y-134317500D03*
X100270000Y-133017500D03*
D16*
X99377500Y-142672500D03*
X99377500Y-138632500D03*
D17*
X99950000Y-131000500D03*
X103250000Y-131000500D03*
X91123500Y-132715000D03*
X94423500Y-132715000D03*
X94423500Y-135191500D03*
X91123500Y-135191500D03*
G36*
G01*
X94076500Y-149548000D02*
X95026500Y-149548000D01*
G75*
G02*
X95276500Y-149798000I0J-250000D01*
G01*
X95276500Y-150473000D01*
G75*
G02*
X95026500Y-150723000I-250000J0D01*
G01*
X94076500Y-150723000D01*
G75*
G02*
X93826500Y-150473000I0J250000D01*
G01*
X93826500Y-149798000D01*
G75*
G02*
X94076500Y-149548000I250000J0D01*
G01*
G37*
G36*
G01*
X94076500Y-147473000D02*
X95026500Y-147473000D01*
G75*
G02*
X95276500Y-147723000I0J-250000D01*
G01*
X95276500Y-148398000D01*
G75*
G02*
X95026500Y-148648000I-250000J0D01*
G01*
X94076500Y-148648000D01*
G75*
G02*
X93826500Y-148398000I0J250000D01*
G01*
X93826500Y-147723000D01*
G75*
G02*
X94076500Y-147473000I250000J0D01*
G01*
G37*
G36*
G01*
X115371900Y-124251300D02*
X114421900Y-124251300D01*
G75*
G02*
X114171900Y-124001300I0J250000D01*
G01*
X114171900Y-123326300D01*
G75*
G02*
X114421900Y-123076300I250000J0D01*
G01*
X115371900Y-123076300D01*
G75*
G02*
X115621900Y-123326300I0J-250000D01*
G01*
X115621900Y-124001300D01*
G75*
G02*
X115371900Y-124251300I-250000J0D01*
G01*
G37*
G36*
G01*
X115371900Y-126326300D02*
X114421900Y-126326300D01*
G75*
G02*
X114171900Y-126076300I0J250000D01*
G01*
X114171900Y-125401300D01*
G75*
G02*
X114421900Y-125151300I250000J0D01*
G01*
X115371900Y-125151300D01*
G75*
G02*
X115621900Y-125401300I0J-250000D01*
G01*
X115621900Y-126076300D01*
G75*
G02*
X115371900Y-126326300I-250000J0D01*
G01*
G37*
G36*
G01*
X113085900Y-124251300D02*
X112135900Y-124251300D01*
G75*
G02*
X111885900Y-124001300I0J250000D01*
G01*
X111885900Y-123326300D01*
G75*
G02*
X112135900Y-123076300I250000J0D01*
G01*
X113085900Y-123076300D01*
G75*
G02*
X113335900Y-123326300I0J-250000D01*
G01*
X113335900Y-124001300D01*
G75*
G02*
X113085900Y-124251300I-250000J0D01*
G01*
G37*
G36*
G01*
X113085900Y-126326300D02*
X112135900Y-126326300D01*
G75*
G02*
X111885900Y-126076300I0J250000D01*
G01*
X111885900Y-125401300D01*
G75*
G02*
X112135900Y-125151300I250000J0D01*
G01*
X113085900Y-125151300D01*
G75*
G02*
X113335900Y-125401300I0J-250000D01*
G01*
X113335900Y-126076300D01*
G75*
G02*
X113085900Y-126326300I-250000J0D01*
G01*
G37*
G36*
G01*
X110799900Y-124251300D02*
X109849900Y-124251300D01*
G75*
G02*
X109599900Y-124001300I0J250000D01*
G01*
X109599900Y-123326300D01*
G75*
G02*
X109849900Y-123076300I250000J0D01*
G01*
X110799900Y-123076300D01*
G75*
G02*
X111049900Y-123326300I0J-250000D01*
G01*
X111049900Y-124001300D01*
G75*
G02*
X110799900Y-124251300I-250000J0D01*
G01*
G37*
G36*
G01*
X110799900Y-126326300D02*
X109849900Y-126326300D01*
G75*
G02*
X109599900Y-126076300I0J250000D01*
G01*
X109599900Y-125401300D01*
G75*
G02*
X109849900Y-125151300I250000J0D01*
G01*
X110799900Y-125151300D01*
G75*
G02*
X111049900Y-125401300I0J-250000D01*
G01*
X111049900Y-126076300D01*
G75*
G02*
X110799900Y-126326300I-250000J0D01*
G01*
G37*
G36*
G01*
X108513900Y-124251300D02*
X107563900Y-124251300D01*
G75*
G02*
X107313900Y-124001300I0J250000D01*
G01*
X107313900Y-123326300D01*
G75*
G02*
X107563900Y-123076300I250000J0D01*
G01*
X108513900Y-123076300D01*
G75*
G02*
X108763900Y-123326300I0J-250000D01*
G01*
X108763900Y-124001300D01*
G75*
G02*
X108513900Y-124251300I-250000J0D01*
G01*
G37*
G36*
G01*
X108513900Y-126326300D02*
X107563900Y-126326300D01*
G75*
G02*
X107313900Y-126076300I0J250000D01*
G01*
X107313900Y-125401300D01*
G75*
G02*
X107563900Y-125151300I250000J0D01*
G01*
X108513900Y-125151300D01*
G75*
G02*
X108763900Y-125401300I0J-250000D01*
G01*
X108763900Y-126076300D01*
G75*
G02*
X108513900Y-126326300I-250000J0D01*
G01*
G37*
G36*
G01*
X106227900Y-124251300D02*
X105277900Y-124251300D01*
G75*
G02*
X105027900Y-124001300I0J250000D01*
G01*
X105027900Y-123326300D01*
G75*
G02*
X105277900Y-123076300I250000J0D01*
G01*
X106227900Y-123076300D01*
G75*
G02*
X106477900Y-123326300I0J-250000D01*
G01*
X106477900Y-124001300D01*
G75*
G02*
X106227900Y-124251300I-250000J0D01*
G01*
G37*
G36*
G01*
X106227900Y-126326300D02*
X105277900Y-126326300D01*
G75*
G02*
X105027900Y-126076300I0J250000D01*
G01*
X105027900Y-125401300D01*
G75*
G02*
X105277900Y-125151300I250000J0D01*
G01*
X106227900Y-125151300D01*
G75*
G02*
X106477900Y-125401300I0J-250000D01*
G01*
X106477900Y-126076300D01*
G75*
G02*
X106227900Y-126326300I-250000J0D01*
G01*
G37*
G36*
G01*
X103941900Y-124251300D02*
X102991900Y-124251300D01*
G75*
G02*
X102741900Y-124001300I0J250000D01*
G01*
X102741900Y-123326300D01*
G75*
G02*
X102991900Y-123076300I250000J0D01*
G01*
X103941900Y-123076300D01*
G75*
G02*
X104191900Y-123326300I0J-250000D01*
G01*
X104191900Y-124001300D01*
G75*
G02*
X103941900Y-124251300I-250000J0D01*
G01*
G37*
G36*
G01*
X103941900Y-126326300D02*
X102991900Y-126326300D01*
G75*
G02*
X102741900Y-126076300I0J250000D01*
G01*
X102741900Y-125401300D01*
G75*
G02*
X102991900Y-125151300I250000J0D01*
G01*
X103941900Y-125151300D01*
G75*
G02*
X104191900Y-125401300I0J-250000D01*
G01*
X104191900Y-126076300D01*
G75*
G02*
X103941900Y-126326300I-250000J0D01*
G01*
G37*
G36*
G01*
X91663500Y-125164000D02*
X92613500Y-125164000D01*
G75*
G02*
X92863500Y-125414000I0J-250000D01*
G01*
X92863500Y-126089000D01*
G75*
G02*
X92613500Y-126339000I-250000J0D01*
G01*
X91663500Y-126339000D01*
G75*
G02*
X91413500Y-126089000I0J250000D01*
G01*
X91413500Y-125414000D01*
G75*
G02*
X91663500Y-125164000I250000J0D01*
G01*
G37*
G36*
G01*
X91663500Y-123089000D02*
X92613500Y-123089000D01*
G75*
G02*
X92863500Y-123339000I0J-250000D01*
G01*
X92863500Y-124014000D01*
G75*
G02*
X92613500Y-124264000I-250000J0D01*
G01*
X91663500Y-124264000D01*
G75*
G02*
X91413500Y-124014000I0J250000D01*
G01*
X91413500Y-123339000D01*
G75*
G02*
X91663500Y-123089000I250000J0D01*
G01*
G37*
G36*
G01*
X93022000Y-137066000D02*
X93022000Y-138016000D01*
G75*
G02*
X92772000Y-138266000I-250000J0D01*
G01*
X92097000Y-138266000D01*
G75*
G02*
X91847000Y-138016000I0J250000D01*
G01*
X91847000Y-137066000D01*
G75*
G02*
X92097000Y-136816000I250000J0D01*
G01*
X92772000Y-136816000D01*
G75*
G02*
X93022000Y-137066000I0J-250000D01*
G01*
G37*
G36*
G01*
X95097000Y-137066000D02*
X95097000Y-138016000D01*
G75*
G02*
X94847000Y-138266000I-250000J0D01*
G01*
X94172000Y-138266000D01*
G75*
G02*
X93922000Y-138016000I0J250000D01*
G01*
X93922000Y-137066000D01*
G75*
G02*
X94172000Y-136816000I250000J0D01*
G01*
X94847000Y-136816000D01*
G75*
G02*
X95097000Y-137066000I0J-250000D01*
G01*
G37*
G36*
G01*
X101655900Y-124251300D02*
X100705900Y-124251300D01*
G75*
G02*
X100455900Y-124001300I0J250000D01*
G01*
X100455900Y-123326300D01*
G75*
G02*
X100705900Y-123076300I250000J0D01*
G01*
X101655900Y-123076300D01*
G75*
G02*
X101905900Y-123326300I0J-250000D01*
G01*
X101905900Y-124001300D01*
G75*
G02*
X101655900Y-124251300I-250000J0D01*
G01*
G37*
G36*
G01*
X101655900Y-126326300D02*
X100705900Y-126326300D01*
G75*
G02*
X100455900Y-126076300I0J250000D01*
G01*
X100455900Y-125401300D01*
G75*
G02*
X100705900Y-125151300I250000J0D01*
G01*
X101655900Y-125151300D01*
G75*
G02*
X101905900Y-125401300I0J-250000D01*
G01*
X101905900Y-126076300D01*
G75*
G02*
X101655900Y-126326300I-250000J0D01*
G01*
G37*
G36*
G01*
X93085500Y-143352500D02*
X93085500Y-144302500D01*
G75*
G02*
X92835500Y-144552500I-250000J0D01*
G01*
X92160500Y-144552500D01*
G75*
G02*
X91910500Y-144302500I0J250000D01*
G01*
X91910500Y-143352500D01*
G75*
G02*
X92160500Y-143102500I250000J0D01*
G01*
X92835500Y-143102500D01*
G75*
G02*
X93085500Y-143352500I0J-250000D01*
G01*
G37*
G36*
G01*
X95160500Y-143352500D02*
X95160500Y-144302500D01*
G75*
G02*
X94910500Y-144552500I-250000J0D01*
G01*
X94235500Y-144552500D01*
G75*
G02*
X93985500Y-144302500I0J250000D01*
G01*
X93985500Y-143352500D01*
G75*
G02*
X94235500Y-143102500I250000J0D01*
G01*
X94910500Y-143102500D01*
G75*
G02*
X95160500Y-143352500I0J-250000D01*
G01*
G37*
G36*
G01*
X99369900Y-124251300D02*
X98419900Y-124251300D01*
G75*
G02*
X98169900Y-124001300I0J250000D01*
G01*
X98169900Y-123326300D01*
G75*
G02*
X98419900Y-123076300I250000J0D01*
G01*
X99369900Y-123076300D01*
G75*
G02*
X99619900Y-123326300I0J-250000D01*
G01*
X99619900Y-124001300D01*
G75*
G02*
X99369900Y-124251300I-250000J0D01*
G01*
G37*
G36*
G01*
X99369900Y-126326300D02*
X98419900Y-126326300D01*
G75*
G02*
X98169900Y-126076300I0J250000D01*
G01*
X98169900Y-125401300D01*
G75*
G02*
X98419900Y-125151300I250000J0D01*
G01*
X99369900Y-125151300D01*
G75*
G02*
X99619900Y-125401300I0J-250000D01*
G01*
X99619900Y-126076300D01*
G75*
G02*
X99369900Y-126326300I-250000J0D01*
G01*
G37*
G36*
G01*
X97605000Y-132301000D02*
X97605000Y-131351000D01*
G75*
G02*
X97855000Y-131101000I250000J0D01*
G01*
X98530000Y-131101000D01*
G75*
G02*
X98780000Y-131351000I0J-250000D01*
G01*
X98780000Y-132301000D01*
G75*
G02*
X98530000Y-132551000I-250000J0D01*
G01*
X97855000Y-132551000D01*
G75*
G02*
X97605000Y-132301000I0J250000D01*
G01*
G37*
G36*
G01*
X95530000Y-132301000D02*
X95530000Y-131351000D01*
G75*
G02*
X95780000Y-131101000I250000J0D01*
G01*
X96455000Y-131101000D01*
G75*
G02*
X96705000Y-131351000I0J-250000D01*
G01*
X96705000Y-132301000D01*
G75*
G02*
X96455000Y-132551000I-250000J0D01*
G01*
X95780000Y-132551000D01*
G75*
G02*
X95530000Y-132301000I0J250000D01*
G01*
G37*
G36*
G01*
X97122000Y-124264000D02*
X96172000Y-124264000D01*
G75*
G02*
X95922000Y-124014000I0J250000D01*
G01*
X95922000Y-123339000D01*
G75*
G02*
X96172000Y-123089000I250000J0D01*
G01*
X97122000Y-123089000D01*
G75*
G02*
X97372000Y-123339000I0J-250000D01*
G01*
X97372000Y-124014000D01*
G75*
G02*
X97122000Y-124264000I-250000J0D01*
G01*
G37*
G36*
G01*
X97122000Y-126339000D02*
X96172000Y-126339000D01*
G75*
G02*
X95922000Y-126089000I0J250000D01*
G01*
X95922000Y-125414000D01*
G75*
G02*
X96172000Y-125164000I250000J0D01*
G01*
X97122000Y-125164000D01*
G75*
G02*
X97372000Y-125414000I0J-250000D01*
G01*
X97372000Y-126089000D01*
G75*
G02*
X97122000Y-126339000I-250000J0D01*
G01*
G37*
G36*
G01*
X93949500Y-125164000D02*
X94899500Y-125164000D01*
G75*
G02*
X95149500Y-125414000I0J-250000D01*
G01*
X95149500Y-126089000D01*
G75*
G02*
X94899500Y-126339000I-250000J0D01*
G01*
X93949500Y-126339000D01*
G75*
G02*
X93699500Y-126089000I0J250000D01*
G01*
X93699500Y-125414000D01*
G75*
G02*
X93949500Y-125164000I250000J0D01*
G01*
G37*
G36*
G01*
X93949500Y-123089000D02*
X94899500Y-123089000D01*
G75*
G02*
X95149500Y-123339000I0J-250000D01*
G01*
X95149500Y-124014000D01*
G75*
G02*
X94899500Y-124264000I-250000J0D01*
G01*
X93949500Y-124264000D01*
G75*
G02*
X93699500Y-124014000I0J250000D01*
G01*
X93699500Y-123339000D01*
G75*
G02*
X93949500Y-123089000I250000J0D01*
G01*
G37*
M02*
