G04 #@! TF.GenerationSoftware,KiCad,Pcbnew,(5.1.10)-1*
G04 #@! TF.CreationDate,2021-11-22T20:28:52+00:00*
G04 #@! TF.ProjectId,Big Ben Ornament,42696720-4265-46e2-904f-726e616d656e,rev?*
G04 #@! TF.SameCoordinates,Original*
G04 #@! TF.FileFunction,Profile,NP*
%FSLAX46Y46*%
G04 Gerber Fmt 4.6, Leading zero omitted, Abs format (unit mm)*
G04 Created by KiCad (PCBNEW (5.1.10)-1) date 2021-11-22 20:28:52*
%MOMM*%
%LPD*%
G01*
G04 APERTURE LIST*
G04 #@! TA.AperFunction,Profile*
%ADD10C,0.050000*%
G04 #@! TD*
G04 APERTURE END LIST*
D10*
X101765445Y-34255429D02*
X101670309Y-34565999D01*
X101670309Y-34565999D02*
X101579541Y-34878196D01*
X101579541Y-34878196D02*
X101492404Y-35192424D01*
X101492404Y-35192424D02*
X101408160Y-35509092D01*
X101408160Y-35509092D02*
X101326070Y-35828604D01*
X101326070Y-35828604D02*
X101245398Y-36151367D01*
X101245398Y-36151367D02*
X101165405Y-36477787D01*
X101165405Y-36477787D02*
X101085354Y-36808272D01*
X101085354Y-36808272D02*
X101004507Y-37143226D01*
X101004507Y-37143226D02*
X100922127Y-37483057D01*
X100922127Y-37483057D02*
X100837476Y-37828170D01*
X100837476Y-37828170D02*
X100749816Y-38178972D01*
X100749816Y-38178972D02*
X100658409Y-38535870D01*
X100658409Y-38535870D02*
X100562519Y-38899269D01*
X100562519Y-38899269D02*
X100461406Y-39269576D01*
X100461406Y-39269576D02*
X100354334Y-39647197D01*
X100354334Y-39647197D02*
X100240564Y-40032538D01*
X100240564Y-40032538D02*
X100119360Y-40426006D01*
X100119360Y-40426006D02*
X99989983Y-40828007D01*
X99989983Y-40828007D02*
X99851696Y-41238948D01*
X99851696Y-41238948D02*
X99703760Y-41659234D01*
X99703760Y-41659234D02*
X99545439Y-42089272D01*
X99545439Y-42089272D02*
X99375995Y-42529468D01*
X99375995Y-42529468D02*
X99194690Y-42980229D01*
X99194690Y-42980229D02*
X99000785Y-43441960D01*
X99000785Y-43441960D02*
X98793545Y-43915069D01*
X98793545Y-43915069D02*
X98572230Y-44399961D01*
X98572230Y-44399961D02*
X98336104Y-44897043D01*
X98336104Y-44897043D02*
X98084428Y-45406721D01*
X98084428Y-45406721D02*
X97816465Y-45929402D01*
X97816465Y-45929402D02*
X97531478Y-46465491D01*
X97531478Y-46465491D02*
X97228728Y-47015395D01*
X110464936Y-49573034D02*
X110464043Y-49500095D01*
X110464043Y-49500095D02*
X110461395Y-49424927D01*
X110461395Y-49424927D02*
X110457032Y-49347699D01*
X110457032Y-49347699D02*
X110450997Y-49268578D01*
X110450997Y-49268578D02*
X110443331Y-49187734D01*
X110443331Y-49187734D02*
X110434077Y-49105335D01*
X110434077Y-49105335D02*
X110423277Y-49021550D01*
X110423277Y-49021550D02*
X110410972Y-48936548D01*
X110410972Y-48936548D02*
X110397205Y-48850496D01*
X110397205Y-48850496D02*
X110382017Y-48763563D01*
X110382017Y-48763563D02*
X110365451Y-48675919D01*
X110365451Y-48675919D02*
X110347548Y-48587732D01*
X110347548Y-48587732D02*
X110328351Y-48499169D01*
X110328351Y-48499169D02*
X110307902Y-48410401D01*
X110307902Y-48410401D02*
X110286242Y-48321595D01*
X110286242Y-48321595D02*
X110263414Y-48232921D01*
X110263414Y-48232921D02*
X110239459Y-48144546D01*
X110239459Y-48144546D02*
X110214419Y-48056639D01*
X110214419Y-48056639D02*
X110188337Y-47969369D01*
X110188337Y-47969369D02*
X110161254Y-47882905D01*
X110161254Y-47882905D02*
X110133213Y-47797415D01*
X110133213Y-47797415D02*
X110104255Y-47713067D01*
X110104255Y-47713067D02*
X110074423Y-47630031D01*
X110074423Y-47630031D02*
X110043758Y-47548475D01*
X110043758Y-47548475D02*
X110012303Y-47468567D01*
X110012303Y-47468567D02*
X109980099Y-47390476D01*
X109980099Y-47390476D02*
X109947188Y-47314371D01*
X109947188Y-47314371D02*
X109913613Y-47240420D01*
X109913613Y-47240420D02*
X109879415Y-47168792D01*
X109879415Y-47168792D02*
X109844636Y-47099656D01*
X109844636Y-47099656D02*
X109809319Y-47033179D01*
X109809319Y-47033179D02*
X109773505Y-46969532D01*
X105317920Y-34421224D02*
X105273626Y-34255546D01*
X105273626Y-34255546D02*
X105217328Y-34099848D01*
X105217328Y-34099848D02*
X105149796Y-33954167D01*
X105149796Y-33954167D02*
X105071799Y-33818541D01*
X105071799Y-33818541D02*
X104984108Y-33693008D01*
X104984108Y-33693008D02*
X104887492Y-33577604D01*
X104887492Y-33577604D02*
X104782721Y-33472367D01*
X104782721Y-33472367D02*
X104670567Y-33377336D01*
X104670567Y-33377336D02*
X104551797Y-33292546D01*
X104551797Y-33292546D02*
X104427183Y-33218036D01*
X104427183Y-33218036D02*
X104297495Y-33153844D01*
X104297495Y-33153844D02*
X104163502Y-33100006D01*
X104163502Y-33100006D02*
X104025974Y-33056560D01*
X104025974Y-33056560D02*
X103885682Y-33023543D01*
X103885682Y-33023543D02*
X103743394Y-33000994D01*
X103743394Y-33000994D02*
X103599883Y-32988949D01*
X103599883Y-32988949D02*
X103455916Y-32987446D01*
X103455916Y-32987446D02*
X103312265Y-32996523D01*
X103312265Y-32996523D02*
X103169699Y-33016217D01*
X103169699Y-33016217D02*
X103028989Y-33046565D01*
X103028989Y-33046565D02*
X102890903Y-33087605D01*
X102890903Y-33087605D02*
X102756213Y-33139374D01*
X102756213Y-33139374D02*
X102625688Y-33201911D01*
X102625688Y-33201911D02*
X102500099Y-33275251D01*
X102500099Y-33275251D02*
X102380214Y-33359434D01*
X102380214Y-33359434D02*
X102266804Y-33454495D01*
X102266804Y-33454495D02*
X102160640Y-33560474D01*
X102160640Y-33560474D02*
X102062491Y-33677406D01*
X102062491Y-33677406D02*
X101973127Y-33805331D01*
X101973127Y-33805331D02*
X101893318Y-33944284D01*
X101893318Y-33944284D02*
X101823834Y-34094304D01*
X101823834Y-34094304D02*
X101765445Y-34255429D01*
X110554787Y-59621221D02*
X110520540Y-59580477D01*
X110520540Y-59580477D02*
X110494013Y-59534887D01*
X110494013Y-59534887D02*
X110475659Y-59485545D01*
X110475659Y-59485545D02*
X110465932Y-59433546D01*
X110465932Y-59433546D02*
X110464422Y-59403061D01*
X109773505Y-46969532D02*
X109467963Y-46431759D01*
X109467963Y-46431759D02*
X109179313Y-45907581D01*
X109179313Y-45907581D02*
X108906939Y-45396578D01*
X108906939Y-45396578D02*
X108650224Y-44898330D01*
X108650224Y-44898330D02*
X108408552Y-44412417D01*
X108408552Y-44412417D02*
X108181306Y-43938419D01*
X108181306Y-43938419D02*
X107967871Y-43475917D01*
X107967871Y-43475917D02*
X107767631Y-43024490D01*
X107767631Y-43024490D02*
X107579968Y-42583718D01*
X107579968Y-42583718D02*
X107404267Y-42153183D01*
X107404267Y-42153183D02*
X107239912Y-41732463D01*
X107239912Y-41732463D02*
X107086286Y-41321139D01*
X107086286Y-41321139D02*
X106942773Y-40918792D01*
X106942773Y-40918792D02*
X106808757Y-40525000D01*
X106808757Y-40525000D02*
X106683622Y-40139345D01*
X106683622Y-40139345D02*
X106566751Y-39761407D01*
X106566751Y-39761407D02*
X106457528Y-39390765D01*
X106457528Y-39390765D02*
X106355337Y-39027000D01*
X106355337Y-39027000D02*
X106259561Y-38669692D01*
X106259561Y-38669692D02*
X106169585Y-38318421D01*
X106169585Y-38318421D02*
X106084793Y-37972767D01*
X106084793Y-37972767D02*
X106004567Y-37632310D01*
X106004567Y-37632310D02*
X105928292Y-37296631D01*
X105928292Y-37296631D02*
X105855351Y-36965310D01*
X105855351Y-36965310D02*
X105785129Y-36637926D01*
X105785129Y-36637926D02*
X105717008Y-36314059D01*
X105717008Y-36314059D02*
X105650374Y-35993291D01*
X105650374Y-35993291D02*
X105584609Y-35675201D01*
X105584609Y-35675201D02*
X105519097Y-35359369D01*
X105519097Y-35359369D02*
X105453223Y-35045375D01*
X105453223Y-35045375D02*
X105386369Y-34732800D01*
X105386369Y-34732800D02*
X105317920Y-34421224D01*
X110464422Y-59403061D02*
X110464936Y-49573034D01*
X110772947Y-59711586D02*
X110719920Y-59706991D01*
X110719920Y-59706991D02*
X110668926Y-59693511D01*
X110668926Y-59693511D02*
X110621058Y-59671600D01*
X110621058Y-59671600D02*
X110577411Y-59641709D01*
X110577411Y-59641709D02*
X110554787Y-59621221D01*
X96170395Y-59711864D02*
X96108992Y-59715936D01*
X96108992Y-59715936D02*
X96049617Y-59727904D01*
X96049617Y-59727904D02*
X95992971Y-59747397D01*
X95992971Y-59747397D02*
X95939756Y-59774042D01*
X95939756Y-59774042D02*
X95890675Y-59807468D01*
X95890675Y-59807468D02*
X95846431Y-59847302D01*
X95846431Y-59847302D02*
X95807727Y-59893173D01*
X95807727Y-59893173D02*
X95775264Y-59944709D01*
X116497449Y-71936684D02*
X116497449Y-70693838D01*
X117703943Y-111527866D02*
X117704664Y-111473702D01*
X117704664Y-111473702D02*
X117706822Y-111419709D01*
X117706822Y-111419709D02*
X117710404Y-111365913D01*
X117710404Y-111365913D02*
X117715401Y-111312339D01*
X117715401Y-111312339D02*
X117721801Y-111259014D01*
X117721801Y-111259014D02*
X117729592Y-111205962D01*
X117729592Y-111205962D02*
X117738765Y-111153210D01*
X117738765Y-111153210D02*
X117749308Y-111100784D01*
X117749308Y-111100784D02*
X117761210Y-111048709D01*
X117761210Y-111048709D02*
X117774460Y-110997011D01*
X117774460Y-110997011D02*
X117789047Y-110945717D01*
X117789047Y-110945717D02*
X117804961Y-110894851D01*
X117804961Y-110894851D02*
X117822189Y-110844440D01*
X117822189Y-110844440D02*
X117840722Y-110794510D01*
X117840722Y-110794510D02*
X117860548Y-110745086D01*
X117860548Y-110745086D02*
X117881656Y-110696195D01*
X117881656Y-110696195D02*
X117904035Y-110647862D01*
X117904035Y-110647862D02*
X117927674Y-110600112D01*
X117927674Y-110600112D02*
X117952563Y-110552972D01*
X117952563Y-110552972D02*
X117978690Y-110506468D01*
X117978690Y-110506468D02*
X118006044Y-110460625D01*
X118006044Y-110460625D02*
X118034615Y-110415470D01*
X118034615Y-110415470D02*
X118064391Y-110371027D01*
X118064391Y-110371027D02*
X118095361Y-110327324D01*
X118095361Y-110327324D02*
X118127515Y-110284385D01*
X118127515Y-110284385D02*
X118160841Y-110242236D01*
X118160841Y-110242236D02*
X118195328Y-110200904D01*
X118195328Y-110200904D02*
X118230966Y-110160414D01*
X118230966Y-110160414D02*
X118267743Y-110120793D01*
X118267743Y-110120793D02*
X118305648Y-110082065D01*
X118305648Y-110082065D02*
X118344671Y-110044256D01*
X118344671Y-110044256D02*
X118384801Y-110007394D01*
X89340601Y-170732176D02*
X89345348Y-170826200D01*
X89345348Y-170826200D02*
X89359284Y-170917508D01*
X89359284Y-170917508D02*
X89381944Y-171005638D01*
X89381944Y-171005638D02*
X89412868Y-171090127D01*
X89412868Y-171090127D02*
X89451592Y-171170513D01*
X89451592Y-171170513D02*
X89497654Y-171246335D01*
X89497654Y-171246335D02*
X89550593Y-171317129D01*
X89550593Y-171317129D02*
X89609946Y-171382434D01*
X89609946Y-171382434D02*
X89675251Y-171441787D01*
X89675251Y-171441787D02*
X89746045Y-171494726D01*
X89746045Y-171494726D02*
X89821867Y-171540788D01*
X89821867Y-171540788D02*
X89902253Y-171579512D01*
X89902253Y-171579512D02*
X89986742Y-171610436D01*
X89986742Y-171610436D02*
X90074872Y-171633096D01*
X90074872Y-171633096D02*
X90166180Y-171647032D01*
X90166180Y-171647032D02*
X90260205Y-171651780D01*
X116497449Y-70693838D02*
X116496922Y-70625750D01*
X116496922Y-70625750D02*
X116495344Y-70557757D01*
X116495344Y-70557757D02*
X116492716Y-70489868D01*
X116492716Y-70489868D02*
X116489042Y-70422095D01*
X116489042Y-70422095D02*
X116484325Y-70354448D01*
X116484325Y-70354448D02*
X116478566Y-70286939D01*
X116478566Y-70286939D02*
X116471768Y-70219579D01*
X116471768Y-70219579D02*
X116463934Y-70152378D01*
X116463934Y-70152378D02*
X116455066Y-70085347D01*
X116455066Y-70085347D02*
X116445168Y-70018498D01*
X116445168Y-70018498D02*
X116434241Y-69951842D01*
X116434241Y-69951842D02*
X116422288Y-69885389D01*
X116422288Y-69885389D02*
X116409313Y-69819150D01*
X116409313Y-69819150D02*
X116395316Y-69753137D01*
X116395316Y-69753137D02*
X116380301Y-69687360D01*
X116380301Y-69687360D02*
X116364271Y-69621831D01*
X116364271Y-69621831D02*
X116347228Y-69556560D01*
X116347228Y-69556560D02*
X116329175Y-69491558D01*
X116329175Y-69491558D02*
X116310114Y-69426837D01*
X116310114Y-69426837D02*
X116290048Y-69362407D01*
X116290048Y-69362407D02*
X116268979Y-69298280D01*
X116268979Y-69298280D02*
X116246910Y-69234466D01*
X116246910Y-69234466D02*
X116223844Y-69170976D01*
X116223844Y-69170976D02*
X116199783Y-69107821D01*
X116199783Y-69107821D02*
X116174730Y-69045013D01*
X116174730Y-69045013D02*
X116148687Y-68982561D01*
X116148687Y-68982561D02*
X116121657Y-68920478D01*
X116121657Y-68920478D02*
X116093643Y-68858775D01*
X116093643Y-68858775D02*
X116064646Y-68797461D01*
X116064646Y-68797461D02*
X116034671Y-68736549D01*
X116034671Y-68736549D02*
X116003718Y-68676049D01*
X116003718Y-68676049D02*
X115971792Y-68615972D01*
X88786737Y-73713615D02*
X88784841Y-73802027D01*
X88784841Y-73802027D02*
X88779179Y-73889916D01*
X88779179Y-73889916D02*
X88769785Y-73977176D01*
X88769785Y-73977176D02*
X88756697Y-74063695D01*
X88756697Y-74063695D02*
X88739951Y-74149368D01*
X88739951Y-74149368D02*
X88719581Y-74234084D01*
X88719581Y-74234084D02*
X88695626Y-74317735D01*
X88695626Y-74317735D02*
X88668120Y-74400214D01*
X88668120Y-74400214D02*
X88637100Y-74481410D01*
X88637100Y-74481410D02*
X88602602Y-74561217D01*
X88602602Y-74561217D02*
X88564663Y-74639525D01*
X88564663Y-74639525D02*
X88523317Y-74716227D01*
X88523317Y-74716227D02*
X88478602Y-74791212D01*
X88478602Y-74791212D02*
X88430553Y-74864374D01*
X88430553Y-74864374D02*
X88379206Y-74935604D01*
X88379206Y-74935604D02*
X88324599Y-75004793D01*
X87841295Y-109273610D02*
X88659742Y-110007394D01*
X88659742Y-110007394D02*
X88699873Y-110044256D01*
X88699873Y-110044256D02*
X88738898Y-110082065D01*
X88738898Y-110082065D02*
X88776805Y-110120793D01*
X88776805Y-110120793D02*
X88813583Y-110160414D01*
X88813583Y-110160414D02*
X88849222Y-110200904D01*
X88849222Y-110200904D02*
X88883710Y-110242236D01*
X88883710Y-110242236D02*
X88917037Y-110284385D01*
X88917037Y-110284385D02*
X88949191Y-110327324D01*
X88949191Y-110327324D02*
X88980161Y-110371027D01*
X88980161Y-110371027D02*
X89009937Y-110415470D01*
X89009937Y-110415470D02*
X89038508Y-110460625D01*
X89038508Y-110460625D02*
X89065862Y-110506468D01*
X89065862Y-110506468D02*
X89091989Y-110552972D01*
X89091989Y-110552972D02*
X89116878Y-110600112D01*
X89116878Y-110600112D02*
X89140517Y-110647862D01*
X89140517Y-110647862D02*
X89162896Y-110696195D01*
X89162896Y-110696195D02*
X89184003Y-110745086D01*
X89184003Y-110745086D02*
X89203828Y-110794510D01*
X89203828Y-110794510D02*
X89222360Y-110844440D01*
X89222360Y-110844440D02*
X89239588Y-110894851D01*
X89239588Y-110894851D02*
X89255501Y-110945717D01*
X89255501Y-110945717D02*
X89270087Y-110997011D01*
X89270087Y-110997011D02*
X89283337Y-111048709D01*
X89283337Y-111048709D02*
X89295238Y-111100784D01*
X89295238Y-111100784D02*
X89305780Y-111153210D01*
X89305780Y-111153210D02*
X89314952Y-111205962D01*
X89314952Y-111205962D02*
X89322744Y-111259014D01*
X89322744Y-111259014D02*
X89329143Y-111312339D01*
X89329143Y-111312339D02*
X89334139Y-111365913D01*
X89334139Y-111365913D02*
X89337721Y-111419709D01*
X89337721Y-111419709D02*
X89339879Y-111473702D01*
X89339879Y-111473702D02*
X89340601Y-111527866D01*
X96491009Y-59622377D02*
X96450265Y-59656624D01*
X96450265Y-59656624D02*
X96404675Y-59683151D01*
X96404675Y-59683151D02*
X96355334Y-59701504D01*
X96355334Y-59701504D02*
X96303334Y-59711231D01*
X96303334Y-59711231D02*
X96272849Y-59712742D01*
X117495795Y-72288400D02*
X116849165Y-72288400D01*
X89340601Y-111527866D02*
X89340601Y-170732176D01*
X90547116Y-70693838D02*
X90547116Y-71936684D01*
X115971792Y-68615972D02*
X111269280Y-59944709D01*
X90547116Y-71936684D02*
X90543063Y-71990247D01*
X90543063Y-71990247D02*
X90531303Y-72041273D01*
X90531303Y-72041273D02*
X90512433Y-72089167D01*
X90512433Y-72089167D02*
X90487048Y-72133332D01*
X90487048Y-72133332D02*
X90455746Y-72173170D01*
X90455746Y-72173170D02*
X90419124Y-72208085D01*
X90419124Y-72208085D02*
X90377777Y-72237481D01*
X90377777Y-72237481D02*
X90332304Y-72260760D01*
X90332304Y-72260760D02*
X90283299Y-72277327D01*
X90283299Y-72277327D02*
X90231361Y-72286584D01*
X90231361Y-72286584D02*
X90195400Y-72288400D01*
X90260205Y-171651780D02*
X116784339Y-171651780D01*
X96579608Y-49467205D02*
X96581374Y-59404217D01*
X119767684Y-108017722D02*
X119767684Y-76885084D01*
X116224911Y-92529615D02*
G75*
G03*
X116224911Y-92529615I-12700000J0D01*
G01*
X87280391Y-108021254D02*
X87282775Y-108110277D01*
X87282775Y-108110277D02*
X87289878Y-108198638D01*
X87289878Y-108198638D02*
X87301620Y-108286173D01*
X87301620Y-108286173D02*
X87317926Y-108372714D01*
X87317926Y-108372714D02*
X87338717Y-108458098D01*
X87338717Y-108458098D02*
X87363915Y-108542159D01*
X87363915Y-108542159D02*
X87393445Y-108624730D01*
X87393445Y-108624730D02*
X87427227Y-108705648D01*
X87427227Y-108705648D02*
X87465184Y-108784747D01*
X87465184Y-108784747D02*
X87507240Y-108861861D01*
X87507240Y-108861861D02*
X87553316Y-108936825D01*
X87553316Y-108936825D02*
X87603335Y-109009474D01*
X87603335Y-109009474D02*
X87657220Y-109079642D01*
X87657220Y-109079642D02*
X87714894Y-109147164D01*
X87714894Y-109147164D02*
X87776277Y-109211875D01*
X87776277Y-109211875D02*
X87841295Y-109273610D01*
X87661375Y-75819709D02*
X87616404Y-75876824D01*
X87616404Y-75876824D02*
X87574109Y-75935661D01*
X87574109Y-75935661D02*
X87534522Y-75996121D01*
X87534522Y-75996121D02*
X87497673Y-76058105D01*
X87497673Y-76058105D02*
X87463594Y-76121515D01*
X87463594Y-76121515D02*
X87432316Y-76186254D01*
X87432316Y-76186254D02*
X87403869Y-76252223D01*
X87403869Y-76252223D02*
X87378285Y-76319323D01*
X87378285Y-76319323D02*
X87355594Y-76387457D01*
X87355594Y-76387457D02*
X87335829Y-76456527D01*
X87335829Y-76456527D02*
X87319018Y-76526433D01*
X87319018Y-76526433D02*
X87305195Y-76597078D01*
X87305195Y-76597078D02*
X87294390Y-76668364D01*
X87294390Y-76668364D02*
X87286633Y-76740192D01*
X87286633Y-76740192D02*
X87281956Y-76812465D01*
X87281956Y-76812465D02*
X87280391Y-76885084D01*
X88324599Y-75004793D02*
X87661375Y-75819709D01*
X89548749Y-72288400D02*
X89470427Y-72292305D01*
X89470427Y-72292305D02*
X89394462Y-72303772D01*
X89394462Y-72303772D02*
X89321225Y-72322421D01*
X89321225Y-72322421D02*
X89251089Y-72347877D01*
X89251089Y-72347877D02*
X89184425Y-72379760D01*
X89184425Y-72379760D02*
X89121606Y-72417695D01*
X89121606Y-72417695D02*
X89063004Y-72461304D01*
X89063004Y-72461304D02*
X89008991Y-72510210D01*
X89008991Y-72510210D02*
X88959939Y-72564035D01*
X88959939Y-72564035D02*
X88916220Y-72622402D01*
X88916220Y-72622402D02*
X88878206Y-72684934D01*
X88878206Y-72684934D02*
X88846269Y-72751253D01*
X88846269Y-72751253D02*
X88820782Y-72820983D01*
X88820782Y-72820983D02*
X88802116Y-72893745D01*
X88802116Y-72893745D02*
X88790643Y-72969163D01*
X88790643Y-72969163D02*
X88786737Y-73046860D01*
X87280391Y-76885084D02*
X87280391Y-108021254D01*
X97228728Y-47015395D02*
X97195827Y-47075943D01*
X97195827Y-47075943D02*
X97163302Y-47139085D01*
X97163302Y-47139085D02*
X97131195Y-47204665D01*
X97131195Y-47204665D02*
X97099550Y-47272528D01*
X97099550Y-47272528D02*
X97068412Y-47342517D01*
X97068412Y-47342517D02*
X97037824Y-47414477D01*
X97037824Y-47414477D02*
X97007830Y-47488252D01*
X97007830Y-47488252D02*
X96978475Y-47563687D01*
X96978475Y-47563687D02*
X96949801Y-47640626D01*
X96949801Y-47640626D02*
X96921854Y-47718913D01*
X96921854Y-47718913D02*
X96894676Y-47798392D01*
X96894676Y-47798392D02*
X96868313Y-47878908D01*
X96868313Y-47878908D02*
X96842807Y-47960305D01*
X96842807Y-47960305D02*
X96818203Y-48042428D01*
X96818203Y-48042428D02*
X96794545Y-48125120D01*
X96794545Y-48125120D02*
X96771876Y-48208227D01*
X96771876Y-48208227D02*
X96750241Y-48291592D01*
X96750241Y-48291592D02*
X96729683Y-48375059D01*
X96729683Y-48375059D02*
X96710247Y-48458474D01*
X96710247Y-48458474D02*
X96691976Y-48541680D01*
X96691976Y-48541680D02*
X96674914Y-48624521D01*
X96674914Y-48624521D02*
X96659105Y-48706843D01*
X96659105Y-48706843D02*
X96644594Y-48788488D01*
X96644594Y-48788488D02*
X96631423Y-48869303D01*
X96631423Y-48869303D02*
X96619638Y-48949130D01*
X96619638Y-48949130D02*
X96609281Y-49027815D01*
X96609281Y-49027815D02*
X96600397Y-49105201D01*
X96600397Y-49105201D02*
X96593030Y-49181132D01*
X96593030Y-49181132D02*
X96587224Y-49255454D01*
X96587224Y-49255454D02*
X96583022Y-49328011D01*
X96583022Y-49328011D02*
X96580468Y-49398646D01*
X96580468Y-49398646D02*
X96579608Y-49467205D01*
X110874170Y-59711864D02*
X110772947Y-59711586D01*
X88786737Y-73046860D02*
X88786737Y-73713615D01*
X118719945Y-75008325D02*
X118665337Y-74938514D01*
X118665337Y-74938514D02*
X118613990Y-74866740D01*
X118613990Y-74866740D02*
X118565941Y-74793107D01*
X118565941Y-74793107D02*
X118521226Y-74717717D01*
X118521226Y-74717717D02*
X118479880Y-74640673D01*
X118479880Y-74640673D02*
X118441941Y-74562079D01*
X118441941Y-74562079D02*
X118407443Y-74482039D01*
X118407443Y-74482039D02*
X118376423Y-74400655D01*
X118376423Y-74400655D02*
X118348917Y-74318031D01*
X118348917Y-74318031D02*
X118324962Y-74234270D01*
X118324962Y-74234270D02*
X118304592Y-74149475D01*
X118304592Y-74149475D02*
X118287846Y-74063751D01*
X118287846Y-74063751D02*
X118274758Y-73977199D01*
X118274758Y-73977199D02*
X118265364Y-73889923D01*
X118265364Y-73889923D02*
X118259702Y-73802027D01*
X118259702Y-73802027D02*
X118257807Y-73713615D01*
X119206780Y-109273610D02*
X119271797Y-109211874D01*
X119271797Y-109211874D02*
X119333180Y-109147157D01*
X119333180Y-109147157D02*
X119390854Y-109079619D01*
X119390854Y-109079619D02*
X119444739Y-109009419D01*
X119444739Y-109009419D02*
X119494758Y-108936717D01*
X119494758Y-108936717D02*
X119540834Y-108861675D01*
X119540834Y-108861675D02*
X119582890Y-108784451D01*
X119582890Y-108784451D02*
X119620847Y-108705207D01*
X119620847Y-108705207D02*
X119654629Y-108624102D01*
X119654629Y-108624102D02*
X119684159Y-108541296D01*
X119684159Y-108541296D02*
X119709357Y-108456950D01*
X119709357Y-108456950D02*
X119730148Y-108371224D01*
X119730148Y-108371224D02*
X119746454Y-108284278D01*
X119746454Y-108284278D02*
X119758196Y-108196272D01*
X119758196Y-108196272D02*
X119765299Y-108107367D01*
X119765299Y-108107367D02*
X119767684Y-108017722D01*
X96272849Y-59712742D02*
X96170395Y-59711864D01*
X119767684Y-76885084D02*
X119766107Y-76812291D01*
X119766107Y-76812291D02*
X119761399Y-76739875D01*
X119761399Y-76739875D02*
X119753594Y-76667931D01*
X119753594Y-76667931D02*
X119742726Y-76596552D01*
X119742726Y-76596552D02*
X119728827Y-76525832D01*
X119728827Y-76525832D02*
X119711933Y-76455867D01*
X119711933Y-76455867D02*
X119692077Y-76386750D01*
X119692077Y-76386750D02*
X119669292Y-76318576D01*
X119669292Y-76318576D02*
X119643613Y-76251438D01*
X119643613Y-76251438D02*
X119615072Y-76185431D01*
X119615072Y-76185431D02*
X119583705Y-76120650D01*
X119583705Y-76120650D02*
X119549544Y-76057188D01*
X119549544Y-76057188D02*
X119512623Y-75995140D01*
X119512623Y-75995140D02*
X119472977Y-75934600D01*
X119472977Y-75934600D02*
X119430638Y-75875662D01*
X119430638Y-75875662D02*
X119385642Y-75818422D01*
X95775264Y-59944709D02*
X91072752Y-68619503D01*
X111269280Y-59944709D02*
X111236816Y-59893173D01*
X111236816Y-59893173D02*
X111198111Y-59847302D01*
X111198111Y-59847302D02*
X111153868Y-59807468D01*
X111153868Y-59807468D02*
X111104789Y-59774042D01*
X111104789Y-59774042D02*
X111051577Y-59747397D01*
X111051577Y-59747397D02*
X110994934Y-59727904D01*
X110994934Y-59727904D02*
X110935564Y-59715936D01*
X110935564Y-59715936D02*
X110874170Y-59711864D01*
X116849165Y-72288400D02*
X116795602Y-72284347D01*
X116795602Y-72284347D02*
X116744575Y-72272587D01*
X116744575Y-72272587D02*
X116696681Y-72253717D01*
X116696681Y-72253717D02*
X116652517Y-72228332D01*
X116652517Y-72228332D02*
X116612679Y-72197030D01*
X116612679Y-72197030D02*
X116577763Y-72160408D01*
X116577763Y-72160408D02*
X116548368Y-72119061D01*
X116548368Y-72119061D02*
X116525088Y-72073588D01*
X116525088Y-72073588D02*
X116508521Y-72024583D01*
X116508521Y-72024583D02*
X116499264Y-71972645D01*
X116499264Y-71972645D02*
X116497449Y-71936684D01*
X118257807Y-73050412D02*
X118253853Y-72972787D01*
X118253853Y-72972787D02*
X118242254Y-72897340D01*
X118242254Y-72897340D02*
X118223399Y-72824459D01*
X118223399Y-72824459D02*
X118197679Y-72754537D01*
X118197679Y-72754537D02*
X118165485Y-72687963D01*
X118165485Y-72687963D02*
X118127208Y-72625129D01*
X118127208Y-72625129D02*
X118083237Y-72566424D01*
X118083237Y-72566424D02*
X118033965Y-72512241D01*
X118033965Y-72512241D02*
X117979782Y-72462969D01*
X117979782Y-72462969D02*
X117921077Y-72418998D01*
X117921077Y-72418998D02*
X117858243Y-72380721D01*
X117858243Y-72380721D02*
X117791669Y-72348527D01*
X117791669Y-72348527D02*
X117721747Y-72322807D01*
X117721747Y-72322807D02*
X117648866Y-72303952D01*
X117648866Y-72303952D02*
X117573419Y-72292353D01*
X117573419Y-72292353D02*
X117495795Y-72288400D01*
X119385642Y-75818422D02*
X118719945Y-75008325D01*
X96581374Y-59404217D02*
X96576780Y-59457243D01*
X96576780Y-59457243D02*
X96563300Y-59508237D01*
X96563300Y-59508237D02*
X96541388Y-59556105D01*
X96541388Y-59556105D02*
X96511497Y-59599752D01*
X96511497Y-59599752D02*
X96491009Y-59622377D01*
X117703943Y-170732176D02*
X117703943Y-111527866D01*
X118257807Y-73713615D02*
X118257807Y-73050412D01*
X118384801Y-110007394D02*
X119206780Y-109273610D01*
X91072752Y-68619503D02*
X91040825Y-68679259D01*
X91040825Y-68679259D02*
X91009873Y-68739458D01*
X91009873Y-68739458D02*
X90979897Y-68800089D01*
X90979897Y-68800089D02*
X90950901Y-68861140D01*
X90950901Y-68861140D02*
X90922887Y-68922599D01*
X90922887Y-68922599D02*
X90895858Y-68984455D01*
X90895858Y-68984455D02*
X90869816Y-69046696D01*
X90869816Y-69046696D02*
X90844763Y-69109311D01*
X90844763Y-69109311D02*
X90820703Y-69172287D01*
X90820703Y-69172287D02*
X90797638Y-69235613D01*
X90797638Y-69235613D02*
X90775570Y-69299278D01*
X90775570Y-69299278D02*
X90754502Y-69363269D01*
X90754502Y-69363269D02*
X90734437Y-69427576D01*
X90734437Y-69427576D02*
X90715376Y-69492187D01*
X90715376Y-69492187D02*
X90697324Y-69557089D01*
X90697324Y-69557089D02*
X90680282Y-69622272D01*
X90680282Y-69622272D02*
X90664253Y-69687724D01*
X90664253Y-69687724D02*
X90649239Y-69753433D01*
X90649239Y-69753433D02*
X90635244Y-69819387D01*
X90635244Y-69819387D02*
X90622269Y-69885575D01*
X90622269Y-69885575D02*
X90610317Y-69951985D01*
X90610317Y-69951985D02*
X90599391Y-70018606D01*
X90599391Y-70018606D02*
X90589494Y-70085426D01*
X90589494Y-70085426D02*
X90580627Y-70152433D01*
X90580627Y-70152433D02*
X90572794Y-70219616D01*
X90572794Y-70219616D02*
X90565997Y-70286963D01*
X90565997Y-70286963D02*
X90560238Y-70354462D01*
X90560238Y-70354462D02*
X90555521Y-70422102D01*
X90555521Y-70422102D02*
X90551847Y-70489871D01*
X90551847Y-70489871D02*
X90549220Y-70557758D01*
X90549220Y-70557758D02*
X90547642Y-70625751D01*
X90547642Y-70625751D02*
X90547116Y-70693838D01*
X116784339Y-171651780D02*
X116878363Y-171647032D01*
X116878363Y-171647032D02*
X116969671Y-171633096D01*
X116969671Y-171633096D02*
X117057801Y-171610436D01*
X117057801Y-171610436D02*
X117142290Y-171579512D01*
X117142290Y-171579512D02*
X117222676Y-171540788D01*
X117222676Y-171540788D02*
X117298498Y-171494726D01*
X117298498Y-171494726D02*
X117369292Y-171441787D01*
X117369292Y-171441787D02*
X117434597Y-171382434D01*
X117434597Y-171382434D02*
X117493950Y-171317129D01*
X117493950Y-171317129D02*
X117546889Y-171246335D01*
X117546889Y-171246335D02*
X117592951Y-171170513D01*
X117592951Y-171170513D02*
X117631675Y-171090127D01*
X117631675Y-171090127D02*
X117662599Y-171005638D01*
X117662599Y-171005638D02*
X117685259Y-170917508D01*
X117685259Y-170917508D02*
X117699195Y-170826200D01*
X117699195Y-170826200D02*
X117703943Y-170732176D01*
X90195400Y-72288400D02*
X89548749Y-72288400D01*
M02*
